<?xml version="1.0" encoding="UTF-8" standalone="no"?>
<!DOCTYPE svg PUBLIC "-//W3C//DTD SVG 1.1//EN"
 "http://www.w3.org/Graphics/SVG/1.1/DTD/svg11.dtd">
<!-- Generated by graphviz version 2.38.0 (20140413.2041)
 -->
<!-- Title: nodos Pages: 1 -->
<svg width="328pt" height="99pt"
 viewBox="0.00 0.00 328.49 99.00" xmlns="http://www.w3.org/2000/svg" xmlns:xlink="http://www.w3.org/1999/xlink">
<g id="graph0" class="graph" transform="scale(1 1) rotate(0) translate(4 95)">
<title>nodos</title>
<g id="clust1" class="cluster"><title>cluster_0</title>
<polygon fill="none" stroke="black" points="8,-8 8,-83 312.486,-83 312.486,-8 8,-8"/>
<text text-anchor="middle" x="160.243" y="-67.8" font-family="Times,serif" font-size="14.00">audio</text>
</g>
<!-- oscillator -->
<g id="node1" class="node"><title>oscillator</title>
<ellipse fill="none" stroke="black" cx="59.5461" cy="-34" rx="43.5923" ry="18"/>
<text text-anchor="middle" x="59.5461" y="-30.3" font-family="Times,serif" font-size="14.00">oscillator</text>
</g>
<!-- gain -->
<g id="node2" class="node"><title>gain</title>
<ellipse fill="none" stroke="black" cx="166.092" cy="-34" rx="27" ry="18"/>
<text text-anchor="middle" x="166.092" y="-30.3" font-family="Times,serif" font-size="14.00">gain</text>
</g>
<!-- oscillator&#45;&gt;gain -->
<g id="edge1" class="edge"><title>oscillator&#45;&gt;gain</title>
<path fill="none" stroke="black" d="M103.371,-34C111.856,-34 120.684,-34 128.922,-34"/>
<polygon fill="black" stroke="black" points="128.969,-37.5001 138.969,-34 128.969,-30.5001 128.969,-37.5001"/>
</g>
<!-- speaker -->
<g id="node3" class="node"><title>speaker</title>
<ellipse fill="none" stroke="black" cx="266.789" cy="-34" rx="37.8943" ry="18"/>
<text text-anchor="middle" x="266.789" y="-30.3" font-family="Times,serif" font-size="14.00">speaker</text>
</g>
<!-- gain&#45;&gt;speaker -->
<g id="edge2" class="edge"><title>gain&#45;&gt;speaker</title>
<path fill="none" stroke="black" d="M193.282,-34C201.163,-34 210.063,-34 218.86,-34"/>
<polygon fill="black" stroke="black" points="219.073,-37.5001 229.073,-34 219.073,-30.5001 219.073,-37.5001"/>
</g>
</g>
</svg>
