<?xml version="1.0" encoding="UTF-8" standalone="no"?>
<!DOCTYPE svg PUBLIC "-//W3C//DTD SVG 1.1//EN"
 "http://www.w3.org/Graphics/SVG/1.1/DTD/svg11.dtd">
<!-- Generated by graphviz version 2.38.0 (20140413.2041)
 -->
<!-- Title: nodos Pages: 1 -->
<svg width="331pt" height="99pt"
 viewBox="0.00 0.00 331.09 99.00" xmlns="http://www.w3.org/2000/svg" xmlns:xlink="http://www.w3.org/1999/xlink">
<g id="graph0" class="graph" transform="scale(1 1) rotate(0) translate(4 95)">
<title>nodos</title>
<g id="clust1" class="cluster"><title>cluster_0</title>
<polygon fill="none" stroke="black" points="8,-8 8,-83 315.085,-83 315.085,-8 8,-8"/>
<text text-anchor="middle" x="161.543" y="-67.8" font-family="Times,serif" font-size="14.00">audio</text>
</g>
<!-- oscillator -->
<g id="node1" class="node"><title>oscillator</title>
<ellipse fill="none" stroke="black" cx="60.1961" cy="-34" rx="44.393" ry="18"/>
<text text-anchor="middle" x="60.1961" y="-30.3" font-family="Times,serif" font-size="14.00">oscillator</text>
</g>
<!-- gain -->
<g id="node2" class="node"><title>gain</title>
<ellipse fill="none" stroke="black" cx="167.392" cy="-34" rx="27" ry="18"/>
<text text-anchor="middle" x="167.392" y="-30.3" font-family="Times,serif" font-size="14.00">gain</text>
</g>
<!-- oscillator&#45;&gt;gain -->
<g id="edge1" class="edge"><title>oscillator&#45;&gt;gain</title>
<path fill="none" stroke="black" d="M104.591,-34C113.107,-34 121.955,-34 130.205,-34"/>
<polygon fill="black" stroke="black" points="130.264,-37.5001 140.264,-34 130.264,-30.5001 130.264,-37.5001"/>
</g>
<!-- speaker -->
<g id="node3" class="node"><title>speaker</title>
<ellipse fill="none" stroke="black" cx="268.739" cy="-34" rx="38.1938" ry="18"/>
<text text-anchor="middle" x="268.739" y="-30.3" font-family="Times,serif" font-size="14.00">speaker</text>
</g>
<!-- gain&#45;&gt;speaker -->
<g id="edge2" class="edge"><title>gain&#45;&gt;speaker</title>
<path fill="none" stroke="black" d="M194.494,-34C202.345,-34 211.219,-34 220.011,-34"/>
<polygon fill="black" stroke="black" points="220.229,-37.5001 230.229,-34 220.229,-30.5001 220.229,-37.5001"/>
</g>
</g>
</svg>
