<?xml version="1.0" encoding="UTF-8" standalone="no"?><svg xmlns="http://www.w3.org/2000/svg" xmlns:xlink="http://www.w3.org/1999/xlink" contentScriptType="application/ecmascript" contentStyleType="text/css" height="175px" preserveAspectRatio="none" style="width:90px;height:175px;" version="1.1" viewBox="0 0 90 175" width="90px" zoomAndPan="magnify"><defs><filter height="300%" id="fo29f0l2nb1kk" width="300%" x="-1" y="-1"><feGaussianBlur result="blurOut" stdDeviation="2.0"/><feColorMatrix in="blurOut" result="blurOut2" type="matrix" values="0 0 0 0 0 0 0 0 0 0 0 0 0 0 0 0 0 0 .4 0"/><feOffset dx="4.0" dy="4.0" in="blurOut2" result="blurOut3"/><feBlend in="SourceGraphic" in2="blurOut3" mode="normal"/></filter></defs><g><!--class Frutero--><rect fill="#FEFECE" filter="url(#fo29f0l2nb1kk)" height="48" id="Frutero" style="stroke: #A80036; stroke-width: 1.5;" width="73" x="6" y="8"/><ellipse cx="21" cy="24" fill="#ADD1B2" rx="11" ry="11" style="stroke: #A80036; stroke-width: 1.0;"/><path d="M23.9731,29.6431 Q23.3921,29.9419 22.7529,30.0913 Q22.1138,30.2407 21.4082,30.2407 Q18.9014,30.2407 17.5815,28.5889 Q16.2617,26.937 16.2617,23.8159 Q16.2617,20.6865 17.5815,19.0347 Q18.9014,17.3828 21.4082,17.3828 Q22.1138,17.3828 22.7612,17.5322 Q23.4087,17.6816 23.9731,17.9805 L23.9731,20.7031 Q23.3423,20.1221 22.7488,19.8523 Q22.1553,19.5825 21.5244,19.5825 Q20.1797,19.5825 19.4949,20.6492 Q18.8101,21.7158 18.8101,23.8159 Q18.8101,25.9077 19.4949,26.9744 Q20.1797,28.041 21.5244,28.041 Q22.1553,28.041 22.7488,27.7712 Q23.3423,27.5015 23.9731,26.9204 Z "/><text fill="#000000" font-family="sans-serif" font-size="12" lengthAdjust="spacingAndGlyphs" textLength="41" x="35" y="28.5352">Frutero</text><line style="stroke: #A80036; stroke-width: 1.5;" x1="7" x2="78" y1="40" y2="40"/><line style="stroke: #A80036; stroke-width: 1.5;" x1="7" x2="78" y1="48" y2="48"/><!--class Fruta--><rect fill="#FEFECE" filter="url(#fo29f0l2nb1kk)" height="48" id="Fruta" style="stroke: #A80036; stroke-width: 1.5;" width="61" x="12" y="116"/><ellipse cx="27" cy="132" fill="#ADD1B2" rx="11" ry="11" style="stroke: #A80036; stroke-width: 1.0;"/><path d="M29.9731,137.6431 Q29.3921,137.9419 28.7529,138.0913 Q28.1138,138.2407 27.4082,138.2407 Q24.9014,138.2407 23.5815,136.5889 Q22.2617,134.937 22.2617,131.8159 Q22.2617,128.6865 23.5815,127.0347 Q24.9014,125.3828 27.4082,125.3828 Q28.1138,125.3828 28.7612,125.5322 Q29.4087,125.6816 29.9731,125.9805 L29.9731,128.7031 Q29.3423,128.1221 28.7488,127.8523 Q28.1553,127.5825 27.5244,127.5825 Q26.1797,127.5825 25.4949,128.6492 Q24.8101,129.7158 24.8101,131.8159 Q24.8101,133.9077 25.4949,134.9744 Q26.1797,136.041 27.5244,136.041 Q28.1553,136.041 28.7488,135.7712 Q29.3423,135.5015 29.9731,134.9204 Z "/><text fill="#000000" font-family="sans-serif" font-size="12" lengthAdjust="spacingAndGlyphs" textLength="29" x="41" y="136.5352">Fruta</text><line style="stroke: #A80036; stroke-width: 1.5;" x1="13" x2="72" y1="148" y2="148"/><line style="stroke: #A80036; stroke-width: 1.5;" x1="13" x2="72" y1="156" y2="156"/><!--link Frutero to Fruta--><path d="M42.5,69.6145 C42.5,84.9531 42.5,102.2402 42.5,115.8436 " fill="none" id="Frutero-Fruta" style="stroke: #A80036; stroke-width: 1.0;"/><polygon fill="#FFFFFF" points="42.5,56.2373,38.5,62.2373,42.5,68.2373,46.5,62.2373,42.5,56.2373" style="stroke: #A80036; stroke-width: 1.0;"/><text fill="#000000" font-family="sans-serif" font-size="13" lengthAdjust="spacingAndGlyphs" textLength="8" x="33.525" y="76.5795">1</text><text fill="#000000" font-family="sans-serif" font-size="13" lengthAdjust="spacingAndGlyphs" textLength="6" x="35.7313" y="105.3398">*</text><!--
@startuml Agregación

Frutero "1" o- - "*" Fruta

@enduml

PlantUML version 1.2018.10(Sat Aug 25 19:02:59 CEST 2018)
(GPL source distribution)
Java Runtime: Java(TM) SE Runtime Environment
JVM: Java HotSpot(TM) 64-Bit Server VM
Java Version: 1.8.0_121-b13
Operating System: Mac OS X
OS Version: 10.13.6
Default Encoding: UTF-8
Language: es
Country: ES
--></g></svg>