<?xml version="1.0" encoding="UTF-8" standalone="no"?><svg xmlns="http://www.w3.org/2000/svg" xmlns:xlink="http://www.w3.org/1999/xlink" contentScriptType="application/ecmascript" contentStyleType="text/css" height="343px" preserveAspectRatio="none" style="width:136px;height:343px;" version="1.1" viewBox="0 0 136 343" width="136px" zoomAndPan="magnify"><defs><filter height="300%" id="f11e0deik3tf66" width="300%" x="-1" y="-1"><feGaussianBlur result="blurOut" stdDeviation="2.0"/><feColorMatrix in="blurOut" result="blurOut2" type="matrix" values="0 0 0 0 0 0 0 0 0 0 0 0 0 0 0 0 0 0 .4 0"/><feOffset dx="4.0" dy="4.0" in="blurOut2" result="blurOut3"/><feBlend in="SourceGraphic" in2="blurOut3" mode="normal"/></filter></defs><g><!--class Enemy--><rect fill="#FEFECE" filter="url(#f11e0deik3tf66)" height="60.9551" id="Enemy" style="stroke: #A80036; stroke-width: 1.5;" width="109" x="11" y="8"/><ellipse cx="43.55" cy="24" fill="#ADD1B2" rx="11" ry="11" style="stroke: #A80036; stroke-width: 1.0;"/><path d="M46.5231,29.6431 Q45.9421,29.9419 45.3029,30.0913 Q44.6638,30.2407 43.9582,30.2407 Q41.4514,30.2407 40.1315,28.5889 Q38.8117,26.937 38.8117,23.8159 Q38.8117,20.6865 40.1315,19.0347 Q41.4514,17.3828 43.9582,17.3828 Q44.6638,17.3828 45.3112,17.5322 Q45.9587,17.6816 46.5231,17.9805 L46.5231,20.7031 Q45.8923,20.1221 45.2988,19.8523 Q44.7053,19.5825 44.0744,19.5825 Q42.7297,19.5825 42.0449,20.6492 Q41.3601,21.7158 41.3601,23.8159 Q41.3601,25.9077 42.0449,26.9744 Q42.7297,28.041 44.0744,28.041 Q44.7053,28.041 45.2988,27.7712 Q45.8923,27.5015 46.5231,26.9204 Z "/><text fill="#000000" font-family="sans-serif" font-size="12" lengthAdjust="spacingAndGlyphs" textLength="38" x="61.45" y="28.5352">Enemy</text><line style="stroke: #A80036; stroke-width: 1.5;" x1="12" x2="119" y1="40" y2="40"/><rect fill="none" height="6" style="stroke: #C82930; stroke-width: 1.0;" width="6" x="19" y="48.9775"/><text fill="#000000" font-family="sans-serif" font-size="11" lengthAdjust="spacingAndGlyphs" textLength="83" x="31" y="54.6348">Player objective</text><line style="stroke: #A80036; stroke-width: 1.5;" x1="12" x2="119" y1="60.9551" y2="60.9551"/><!--class Player--><rect fill="#FEFECE" filter="url(#f11e0deik3tf66)" height="60.9551" id="Player" style="stroke: #A80036; stroke-width: 1.5;" width="119" x="6" y="146"/><ellipse cx="44.4" cy="162" fill="#ADD1B2" rx="11" ry="11" style="stroke: #A80036; stroke-width: 1.0;"/><path d="M47.3731,167.6431 Q46.7921,167.9419 46.1529,168.0913 Q45.5138,168.2407 44.8082,168.2407 Q42.3014,168.2407 40.9815,166.5889 Q39.6617,164.937 39.6617,161.8159 Q39.6617,158.6865 40.9815,157.0347 Q42.3014,155.3828 44.8082,155.3828 Q45.5138,155.3828 46.1612,155.5322 Q46.8087,155.6816 47.3731,155.9805 L47.3731,158.7031 Q46.7423,158.1221 46.1488,157.8523 Q45.5553,157.5825 44.9244,157.5825 Q43.5797,157.5825 42.8949,158.6492 Q42.2101,159.7158 42.2101,161.8159 Q42.2101,163.9077 42.8949,164.9744 Q43.5797,166.041 44.9244,166.041 Q45.5553,166.041 46.1488,165.7712 Q46.7423,165.5015 47.3731,164.9204 Z "/><text fill="#000000" font-family="sans-serif" font-size="12" lengthAdjust="spacingAndGlyphs" textLength="35" x="63.6" y="166.5352">Player</text><line style="stroke: #A80036; stroke-width: 1.5;" x1="7" x2="124" y1="178" y2="178"/><rect fill="none" height="6" style="stroke: #C82930; stroke-width: 1.0;" width="6" x="14" y="186.9775"/><text fill="#000000" font-family="sans-serif" font-size="11" lengthAdjust="spacingAndGlyphs" textLength="93" x="26" y="192.6348">Weapon objective</text><line style="stroke: #A80036; stroke-width: 1.5;" x1="7" x2="124" y1="198.9551" y2="198.9551"/><!--class Weapon--><rect fill="#FEFECE" filter="url(#f11e0deik3tf66)" height="48" id="Weapon" style="stroke: #A80036; stroke-width: 1.5;" width="78" x="26.5" y="284"/><ellipse cx="41.5" cy="300" fill="#ADD1B2" rx="11" ry="11" style="stroke: #A80036; stroke-width: 1.0;"/><path d="M44.4731,305.6431 Q43.8921,305.9419 43.2529,306.0913 Q42.6138,306.2407 41.9082,306.2407 Q39.4014,306.2407 38.0815,304.5889 Q36.7617,302.937 36.7617,299.8159 Q36.7617,296.6865 38.0815,295.0347 Q39.4014,293.3828 41.9082,293.3828 Q42.6138,293.3828 43.2612,293.5322 Q43.9087,293.6816 44.4731,293.9805 L44.4731,296.7031 Q43.8423,296.1221 43.2488,295.8523 Q42.6553,295.5825 42.0244,295.5825 Q40.6797,295.5825 39.9949,296.6492 Q39.3101,297.7158 39.3101,299.8159 Q39.3101,301.9077 39.9949,302.9744 Q40.6797,304.041 42.0244,304.041 Q42.6553,304.041 43.2488,303.7712 Q43.8423,303.5015 44.4731,302.9204 Z "/><text fill="#000000" font-family="sans-serif" font-size="12" lengthAdjust="spacingAndGlyphs" textLength="46" x="55.5" y="304.5352">Weapon</text><line style="stroke: #A80036; stroke-width: 1.5;" x1="27.5" x2="103.5" y1="316" y2="316"/><line style="stroke: #A80036; stroke-width: 1.5;" x1="27.5" x2="103.5" y1="324" y2="324"/><!--link Player to Weapon--><path d="M65.5,207.3309 C65.5,228.8854 65.5,257.4932 65.5,278.7024 " fill="none" id="Player-Weapon" style="stroke: #A80036; stroke-width: 1.0;"/><polygon fill="#A80036" points="65.5,283.9263,69.5,274.9263,65.5,278.9263,61.5,274.9263,65.5,283.9263" style="stroke: #A80036; stroke-width: 1.0;"/><text fill="#000000" font-family="sans-serif" font-size="13" lengthAdjust="spacingAndGlyphs" textLength="23" x="66.5" y="250.5684">uso</text><!--link Enemy to Player--><path d="M65.5,69.1267 C65.5,90.2983 65.5,118.5374 65.5,140.7418 " fill="none" id="Enemy-Player" style="stroke: #A80036; stroke-width: 1.0;"/><polygon fill="#A80036" points="65.5,145.9589,69.5,136.9589,65.5,140.9589,61.5,136.9589,65.5,145.9589" style="stroke: #A80036; stroke-width: 1.0;"/><text fill="#000000" font-family="sans-serif" font-size="13" lengthAdjust="spacingAndGlyphs" textLength="23" x="66.5" y="112.5684">uso</text><!--
@startuml
class Enemy {
    -Player objective
}
class Player {
    -Weapon objective
}
Player - -> Weapon : uso
Enemy - -> Player : uso
@enduml

PlantUML version 1.2018.00(Thu Jan 04 20:42:56 CET 2018)
(GPL source distribution)
Java Runtime: Java(TM) SE Runtime Environment
JVM: Java HotSpot(TM) 64-Bit Server VM
Java Version: 9.0.1+11
Operating System: Mac OS X
OS Version: 10.13.2
Default Encoding: UTF-8
Language: es
Country: ES
--></g></svg>