<?xml version="1.0" encoding="UTF-8" standalone="no"?><svg xmlns="http://www.w3.org/2000/svg" xmlns:xlink="http://www.w3.org/1999/xlink" contentScriptType="application/ecmascript" contentStyleType="text/css" height="175px" preserveAspectRatio="none" style="width:164px;height:175px;" version="1.1" viewBox="0 0 164 175" width="164px" zoomAndPan="magnify"><defs><filter height="300%" id="fs5v8xnpv0whx" width="300%" x="-1" y="-1"><feGaussianBlur result="blurOut" stdDeviation="2.0"/><feColorMatrix in="blurOut" result="blurOut2" type="matrix" values="0 0 0 0 0 0 0 0 0 0 0 0 0 0 0 0 0 0 .4 0"/><feOffset dx="4.0" dy="4.0" in="blurOut2" result="blurOut3"/><feBlend in="SourceGraphic" in2="blurOut3" mode="normal"/></filter></defs><g><!--class Fruta--><rect fill="#FEFECE" filter="url(#fs5v8xnpv0whx)" height="48" id="Fruta" style="stroke: #A80036; stroke-width: 1.5;" width="61" x="50.5" y="8"/><ellipse cx="65.5" cy="24" fill="#ADD1B2" rx="11" ry="11" style="stroke: #A80036; stroke-width: 1.0;"/><path d="M68.4731,29.6431 Q67.8921,29.9419 67.2529,30.0913 Q66.6138,30.2407 65.9082,30.2407 Q63.4014,30.2407 62.0815,28.5889 Q60.7617,26.937 60.7617,23.8159 Q60.7617,20.6865 62.0815,19.0347 Q63.4014,17.3828 65.9082,17.3828 Q66.6138,17.3828 67.2612,17.5322 Q67.9087,17.6816 68.4731,17.9805 L68.4731,20.7031 Q67.8423,20.1221 67.2488,19.8523 Q66.6553,19.5825 66.0244,19.5825 Q64.6797,19.5825 63.9949,20.6492 Q63.3101,21.7158 63.3101,23.8159 Q63.3101,25.9077 63.9949,26.9744 Q64.6797,28.041 66.0244,28.041 Q66.6553,28.041 67.2488,27.7712 Q67.8423,27.5015 68.4731,26.9204 Z "/><text fill="#000000" font-family="sans-serif" font-size="12" lengthAdjust="spacingAndGlyphs" textLength="29" x="79.5" y="28.5352">Fruta</text><line style="stroke: #A80036; stroke-width: 1.5;" x1="51.5" x2="110.5" y1="40" y2="40"/><line style="stroke: #A80036; stroke-width: 1.5;" x1="51.5" x2="110.5" y1="48" y2="48"/><!--class Tallo--><rect fill="#FEFECE" filter="url(#fs5v8xnpv0whx)" height="48" id="Tallo" style="stroke: #A80036; stroke-width: 1.5;" width="60" x="6" y="116"/><ellipse cx="21" cy="132" fill="#ADD1B2" rx="11" ry="11" style="stroke: #A80036; stroke-width: 1.0;"/><path d="M23.9731,137.6431 Q23.3921,137.9419 22.7529,138.0913 Q22.1138,138.2407 21.4082,138.2407 Q18.9014,138.2407 17.5815,136.5889 Q16.2617,134.937 16.2617,131.8159 Q16.2617,128.6865 17.5815,127.0347 Q18.9014,125.3828 21.4082,125.3828 Q22.1138,125.3828 22.7612,125.5322 Q23.4087,125.6816 23.9731,125.9805 L23.9731,128.7031 Q23.3423,128.1221 22.7488,127.8523 Q22.1553,127.5825 21.5244,127.5825 Q20.1797,127.5825 19.4949,128.6492 Q18.8101,129.7158 18.8101,131.8159 Q18.8101,133.9077 19.4949,134.9744 Q20.1797,136.041 21.5244,136.041 Q22.1553,136.041 22.7488,135.7712 Q23.3423,135.5015 23.9731,134.9204 Z "/><text fill="#000000" font-family="sans-serif" font-size="12" lengthAdjust="spacingAndGlyphs" textLength="28" x="35" y="136.5352">Tallo</text><line style="stroke: #A80036; stroke-width: 1.5;" x1="7" x2="65" y1="148" y2="148"/><line style="stroke: #A80036; stroke-width: 1.5;" x1="7" x2="65" y1="156" y2="156"/><!--class Piel--><rect fill="#FEFECE" filter="url(#fs5v8xnpv0whx)" height="48" id="Piel" style="stroke: #A80036; stroke-width: 1.5;" width="52" x="101" y="116"/><ellipse cx="116" cy="132" fill="#ADD1B2" rx="11" ry="11" style="stroke: #A80036; stroke-width: 1.0;"/><path d="M118.9731,137.6431 Q118.3921,137.9419 117.7529,138.0913 Q117.1138,138.2407 116.4082,138.2407 Q113.9014,138.2407 112.5815,136.5889 Q111.2617,134.937 111.2617,131.8159 Q111.2617,128.6865 112.5815,127.0347 Q113.9014,125.3828 116.4082,125.3828 Q117.1138,125.3828 117.7612,125.5322 Q118.4087,125.6816 118.9731,125.9805 L118.9731,128.7031 Q118.3423,128.1221 117.7488,127.8523 Q117.1553,127.5825 116.5244,127.5825 Q115.1797,127.5825 114.4949,128.6492 Q113.8101,129.7158 113.8101,131.8159 Q113.8101,133.9077 114.4949,134.9744 Q115.1797,136.041 116.5244,136.041 Q117.1553,136.041 117.7488,135.7712 Q118.3423,135.5015 118.9731,134.9204 Z "/><text fill="#000000" font-family="sans-serif" font-size="12" lengthAdjust="spacingAndGlyphs" textLength="20" x="130" y="136.5352">Piel</text><line style="stroke: #A80036; stroke-width: 1.5;" x1="102" x2="152" y1="148" y2="148"/><line style="stroke: #A80036; stroke-width: 1.5;" x1="102" x2="152" y1="156" y2="156"/><!--link Fruta to Tallo--><path d="M65.7176,68.6779 C59.2308,84.246 51.8489,101.9626 46.0652,115.8436 " fill="none" id="Fruta-Tallo" style="stroke: #A80036; stroke-width: 1.0;"/><polygon fill="#A80036" points="70.9011,56.2373,64.9011,60.2373,66.2857,67.3142,72.2857,63.3142,70.9011,56.2373" style="stroke: #A80036; stroke-width: 1.0;"/><!--link Fruta to Piel--><path d="M96.4234,68.2115 C103.1019,83.8913 110.7397,101.8238 116.7112,115.8436 " fill="none" id="Fruta-Piel" style="stroke: #A80036; stroke-width: 1.0;"/><polygon fill="#A80036" points="91.3233,56.2373,89.9944,63.3249,96.0257,67.2776,97.3546,60.19,91.3233,56.2373" style="stroke: #A80036; stroke-width: 1.0;"/><!--
@startuml Composición

Fruta *- - Tallo
Fruta *- - Piel

@enduml

PlantUML version 1.2018.10(Sat Aug 25 19:02:59 CEST 2018)
(GPL source distribution)
Java Runtime: Java(TM) SE Runtime Environment
JVM: Java HotSpot(TM) 64-Bit Server VM
Java Version: 1.8.0_121-b13
Operating System: Mac OS X
OS Version: 10.13.6
Default Encoding: UTF-8
Language: es
Country: ES
--></g></svg>