<?xml version="1.0" encoding="UTF-8" standalone="no"?><svg xmlns="http://www.w3.org/2000/svg" xmlns:xlink="http://www.w3.org/1999/xlink" contentScriptType="application/ecmascript" contentStyleType="text/css" height="378px" preserveAspectRatio="none" style="width:97px;height:378px;" version="1.1" viewBox="0 0 97 378" width="97px" zoomAndPan="magnify"><defs><filter height="300%" id="fay2261khjbpb" width="300%" x="-1" y="-1"><feGaussianBlur result="blurOut" stdDeviation="2.0"/><feColorMatrix in="blurOut" result="blurOut2" type="matrix" values="0 0 0 0 0 0 0 0 0 0 0 0 0 0 0 0 0 0 .4 0"/><feOffset dx="4.0" dy="4.0" in="blurOut2" result="blurOut3"/><feBlend in="SourceGraphic" in2="blurOut3" mode="normal"/></filter></defs><g><!--class Entity--><rect fill="#FEFECE" filter="url(#fay2261khjbpb)" height="32" id="Entity" style="stroke: #A80036; stroke-width: 1.5;" width="63" x="14.5" y="8"/><ellipse cx="29.5" cy="24" fill="#ADD1B2" rx="11" ry="11" style="stroke: #A80036; stroke-width: 1.0;"/><path d="M32.4731,29.6431 Q31.8921,29.9419 31.2529,30.0913 Q30.6138,30.2407 29.9082,30.2407 Q27.4014,30.2407 26.0815,28.5889 Q24.7617,26.937 24.7617,23.8159 Q24.7617,20.6865 26.0815,19.0347 Q27.4014,17.3828 29.9082,17.3828 Q30.6138,17.3828 31.2612,17.5322 Q31.9087,17.6816 32.4731,17.9805 L32.4731,20.7031 Q31.8423,20.1221 31.2488,19.8523 Q30.6553,19.5825 30.0244,19.5825 Q28.6797,19.5825 27.9949,20.6492 Q27.3101,21.7158 27.3101,23.8159 Q27.3101,25.9077 27.9949,26.9744 Q28.6797,28.041 30.0244,28.041 Q30.6553,28.041 31.2488,27.7712 Q31.8423,27.5015 32.4731,26.9204 Z "/><text fill="#000000" font-family="sans-serif" font-size="12" lengthAdjust="spacingAndGlyphs" textLength="31" x="43.5" y="28.5352">Entity</text><!--class Movable--><rect fill="#FEFECE" filter="url(#fay2261khjbpb)" height="32" id="Movable" style="stroke: #A80036; stroke-width: 1.5;" width="80" x="6" y="117"/><ellipse cx="21" cy="133" fill="#ADD1B2" rx="11" ry="11" style="stroke: #A80036; stroke-width: 1.0;"/><path d="M23.9731,138.6431 Q23.3921,138.9419 22.7529,139.0913 Q22.1138,139.2407 21.4082,139.2407 Q18.9014,139.2407 17.5815,137.5889 Q16.2617,135.937 16.2617,132.8159 Q16.2617,129.6865 17.5815,128.0347 Q18.9014,126.3828 21.4082,126.3828 Q22.1138,126.3828 22.7612,126.5322 Q23.4087,126.6816 23.9731,126.9805 L23.9731,129.7031 Q23.3423,129.1221 22.7488,128.8523 Q22.1553,128.5825 21.5244,128.5825 Q20.1797,128.5825 19.4949,129.6492 Q18.8101,130.7158 18.8101,132.8159 Q18.8101,134.9077 19.4949,135.9744 Q20.1797,137.041 21.5244,137.041 Q22.1553,137.041 22.7488,136.7712 Q23.3423,136.5015 23.9731,135.9204 Z "/><text fill="#000000" font-family="sans-serif" font-size="12" lengthAdjust="spacingAndGlyphs" textLength="48" x="35" y="137.5352">Movable</text><!--class Visible--><rect fill="#FEFECE" filter="url(#fay2261khjbpb)" height="32" id="Visible" style="stroke: #A80036; stroke-width: 1.5;" width="70" x="11" y="226"/><ellipse cx="26" cy="242" fill="#ADD1B2" rx="11" ry="11" style="stroke: #A80036; stroke-width: 1.0;"/><path d="M28.9731,247.6431 Q28.3921,247.9419 27.7529,248.0913 Q27.1138,248.2407 26.4082,248.2407 Q23.9014,248.2407 22.5815,246.5889 Q21.2617,244.937 21.2617,241.8159 Q21.2617,238.6865 22.5815,237.0347 Q23.9014,235.3828 26.4082,235.3828 Q27.1138,235.3828 27.7612,235.5322 Q28.4087,235.6816 28.9731,235.9805 L28.9731,238.7031 Q28.3423,238.1221 27.7488,237.8523 Q27.1553,237.5825 26.5244,237.5825 Q25.1797,237.5825 24.4949,238.6492 Q23.8101,239.7158 23.8101,241.8159 Q23.8101,243.9077 24.4949,244.9744 Q25.1797,246.041 26.5244,246.041 Q27.1553,246.041 27.7488,245.7712 Q28.3423,245.5015 28.9731,244.9204 Z "/><text fill="#000000" font-family="sans-serif" font-size="12" lengthAdjust="spacingAndGlyphs" textLength="38" x="40" y="246.5352">Visible</text><!--class Player--><rect fill="#FEFECE" filter="url(#fay2261khjbpb)" height="32" id="Player" style="stroke: #A80036; stroke-width: 1.5;" width="67" x="12.5" y="335"/><ellipse cx="27.5" cy="351" fill="#ADD1B2" rx="11" ry="11" style="stroke: #A80036; stroke-width: 1.0;"/><path d="M30.4731,356.6431 Q29.8921,356.9419 29.2529,357.0913 Q28.6138,357.2407 27.9082,357.2407 Q25.4014,357.2407 24.0815,355.5889 Q22.7617,353.937 22.7617,350.8159 Q22.7617,347.6865 24.0815,346.0347 Q25.4014,344.3828 27.9082,344.3828 Q28.6138,344.3828 29.2612,344.5322 Q29.9087,344.6816 30.4731,344.9805 L30.4731,347.7031 Q29.8423,347.1221 29.2488,346.8523 Q28.6553,346.5825 28.0244,346.5825 Q26.6797,346.5825 25.9949,347.6492 Q25.3101,348.7158 25.3101,350.8159 Q25.3101,352.9077 25.9949,353.9744 Q26.6797,355.041 28.0244,355.041 Q28.6553,355.041 29.2488,354.7712 Q29.8423,354.5015 30.4731,353.9204 Z "/><text fill="#000000" font-family="sans-serif" font-size="12" lengthAdjust="spacingAndGlyphs" textLength="35" x="41.5" y="355.5352">Player</text><!--link Entity to Movable--><path d="M46,60.3472 C46,79.4941 46,102.0157 46,116.8507 " fill="none" id="Entity-Movable" style="stroke: #A80036; stroke-width: 1.0;"/><polygon fill="none" points="39.0001,60.0834,46,40.0833,53.0001,60.0833,39.0001,60.0834" style="stroke: #A80036; stroke-width: 1.0;"/><text fill="#000000" font-family="sans-serif" font-size="13" lengthAdjust="spacingAndGlyphs" textLength="38" x="47" y="83.5684">es-un</text><!--link Movable to Visible--><path d="M46,169.3472 C46,188.4941 46,211.0157 46,225.8507 " fill="none" id="Movable-Visible" style="stroke: #A80036; stroke-width: 1.0;"/><polygon fill="none" points="39.0001,169.0834,46,149.0833,53.0001,169.0833,39.0001,169.0834" style="stroke: #A80036; stroke-width: 1.0;"/><text fill="#000000" font-family="sans-serif" font-size="13" lengthAdjust="spacingAndGlyphs" textLength="38" x="47" y="192.5684">es-un</text><!--link Visible to Player--><path d="M46,278.3472 C46,297.4941 46,320.0157 46,334.8507 " fill="none" id="Visible-Player" style="stroke: #A80036; stroke-width: 1.0;"/><polygon fill="none" points="39.0001,278.0834,46,258.0833,53.0001,278.0833,39.0001,278.0834" style="stroke: #A80036; stroke-width: 1.0;"/><text fill="#000000" font-family="sans-serif" font-size="13" lengthAdjust="spacingAndGlyphs" textLength="38" x="47" y="301.5684">es-un</text><!--
@startuml
Entity <|- - Movable : es-un
Movable<|- - Visible : es-un
Visible<|- - Player : es-un
hide members
@enduml

PlantUML version 1.2018.00(Thu Jan 04 20:42:56 CET 2018)
(GPL source distribution)
Java Runtime: Java(TM) SE Runtime Environment
JVM: Java HotSpot(TM) 64-Bit Server VM
Java Version: 9.0.1+11
Operating System: Mac OS X
OS Version: 10.13.2
Default Encoding: UTF-8
Language: es
Country: ES
--></g></svg>