<?xml version="1.0" encoding="UTF-8" standalone="no"?><svg xmlns="http://www.w3.org/2000/svg" xmlns:xlink="http://www.w3.org/1999/xlink" contentScriptType="application/ecmascript" contentStyleType="text/css" height="309px" preserveAspectRatio="none" style="width:244px;height:309px;" version="1.1" viewBox="0 0 244 309" width="244px" zoomAndPan="magnify"><defs><filter height="300%" id="f1nrchg55bfejb" width="300%" x="-1" y="-1"><feGaussianBlur result="blurOut" stdDeviation="2.0"/><feColorMatrix in="blurOut" result="blurOut2" type="matrix" values="0 0 0 0 0 0 0 0 0 0 0 0 0 0 0 0 0 0 .4 0"/><feOffset dx="4.0" dy="4.0" in="blurOut2" result="blurOut3"/><feBlend in="SourceGraphic" in2="blurOut3" mode="normal"/></filter></defs><g><!--class Fruta--><rect fill="#FEFECE" filter="url(#f1nrchg55bfejb)" height="73.9102" id="Fruta" style="stroke: #A80036; stroke-width: 1.5;" width="80" x="111.5" y="8"/><ellipse cx="135.05" cy="24" fill="#ADD1B2" rx="11" ry="11" style="stroke: #A80036; stroke-width: 1.0;"/><path d="M138.0231,29.6431 Q137.4421,29.9419 136.8029,30.0913 Q136.1638,30.2407 135.4582,30.2407 Q132.9514,30.2407 131.6315,28.5889 Q130.3117,26.937 130.3117,23.8159 Q130.3117,20.6865 131.6315,19.0347 Q132.9514,17.3828 135.4582,17.3828 Q136.1638,17.3828 136.8112,17.5322 Q137.4587,17.6816 138.0231,17.9805 L138.0231,20.7031 Q137.3923,20.1221 136.7988,19.8523 Q136.2053,19.5825 135.5744,19.5825 Q134.2297,19.5825 133.5449,20.6492 Q132.8601,21.7158 132.8601,23.8159 Q132.8601,25.9077 133.5449,26.9744 Q134.2297,28.041 135.5744,28.041 Q136.2053,28.041 136.7988,27.7712 Q137.3923,27.5015 138.0231,26.9204 Z "/><text fill="#000000" font-family="sans-serif" font-size="12" lengthAdjust="spacingAndGlyphs" textLength="29" x="150.95" y="28.5352">Fruta</text><line style="stroke: #A80036; stroke-width: 1.5;" x1="112.5" x2="190.5" y1="40" y2="40"/><text fill="#000000" font-family="sans-serif" font-size="11" lengthAdjust="spacingAndGlyphs" textLength="57" x="117.5" y="54.6348">int tamaño</text><line style="stroke: #A80036; stroke-width: 1.5;" x1="112.5" x2="190.5" y1="60.9551" y2="60.9551"/><text fill="#000000" font-family="sans-serif" font-size="11" lengthAdjust="spacingAndGlyphs" textLength="68" x="117.5" y="75.5898">void comer()</text><!--class Manzana--><rect fill="#FEFECE" filter="url(#f1nrchg55bfejb)" height="48" id="Manzana" style="stroke: #A80036; stroke-width: 1.5;" width="84" x="56.5" y="142"/><ellipse cx="71.5" cy="158" fill="#ADD1B2" rx="11" ry="11" style="stroke: #A80036; stroke-width: 1.0;"/><path d="M74.4731,163.6431 Q73.8921,163.9419 73.2529,164.0913 Q72.6138,164.2407 71.9082,164.2407 Q69.4014,164.2407 68.0815,162.5889 Q66.7617,160.937 66.7617,157.8159 Q66.7617,154.6865 68.0815,153.0347 Q69.4014,151.3828 71.9082,151.3828 Q72.6138,151.3828 73.2612,151.5322 Q73.9087,151.6816 74.4731,151.9805 L74.4731,154.7031 Q73.8423,154.1221 73.2488,153.8523 Q72.6553,153.5825 72.0244,153.5825 Q70.6797,153.5825 69.9949,154.6492 Q69.3101,155.7158 69.3101,157.8159 Q69.3101,159.9077 69.9949,160.9744 Q70.6797,162.041 72.0244,162.041 Q72.6553,162.041 73.2488,161.7712 Q73.8423,161.5015 74.4731,160.9204 Z "/><text fill="#000000" font-family="sans-serif" font-size="12" lengthAdjust="spacingAndGlyphs" textLength="52" x="85.5" y="162.5352">Manzana</text><line style="stroke: #A80036; stroke-width: 1.5;" x1="57.5" x2="139.5" y1="174" y2="174"/><line style="stroke: #A80036; stroke-width: 1.5;" x1="57.5" x2="139.5" y1="182" y2="182"/><!--class Pera--><rect fill="#FEFECE" filter="url(#f1nrchg55bfejb)" height="48" id="Pera" style="stroke: #A80036; stroke-width: 1.5;" width="58" x="175.5" y="142"/><ellipse cx="190.5" cy="158" fill="#ADD1B2" rx="11" ry="11" style="stroke: #A80036; stroke-width: 1.0;"/><path d="M193.4731,163.6431 Q192.8921,163.9419 192.2529,164.0913 Q191.6138,164.2407 190.9082,164.2407 Q188.4014,164.2407 187.0815,162.5889 Q185.7617,160.937 185.7617,157.8159 Q185.7617,154.6865 187.0815,153.0347 Q188.4014,151.3828 190.9082,151.3828 Q191.6138,151.3828 192.2612,151.5322 Q192.9087,151.6816 193.4731,151.9805 L193.4731,154.7031 Q192.8423,154.1221 192.2488,153.8523 Q191.6553,153.5825 191.0244,153.5825 Q189.6797,153.5825 188.9949,154.6492 Q188.3101,155.7158 188.3101,157.8159 Q188.3101,159.9077 188.9949,160.9744 Q189.6797,162.041 191.0244,162.041 Q191.6553,162.041 192.2488,161.7712 Q192.8423,161.5015 193.4731,160.9204 Z "/><text fill="#000000" font-family="sans-serif" font-size="12" lengthAdjust="spacingAndGlyphs" textLength="26" x="204.5" y="162.5352">Pera</text><line style="stroke: #A80036; stroke-width: 1.5;" x1="176.5" x2="232.5" y1="174" y2="174"/><line style="stroke: #A80036; stroke-width: 1.5;" x1="176.5" x2="232.5" y1="182" y2="182"/><!--class Golden--><rect fill="#FEFECE" filter="url(#f1nrchg55bfejb)" height="48" id="Golden" style="stroke: #A80036; stroke-width: 1.5;" width="73" x="6" y="250"/><ellipse cx="21" cy="266" fill="#ADD1B2" rx="11" ry="11" style="stroke: #A80036; stroke-width: 1.0;"/><path d="M23.9731,271.6431 Q23.3921,271.9419 22.7529,272.0913 Q22.1138,272.2407 21.4082,272.2407 Q18.9014,272.2407 17.5815,270.5889 Q16.2617,268.937 16.2617,265.8159 Q16.2617,262.6865 17.5815,261.0347 Q18.9014,259.3828 21.4082,259.3828 Q22.1138,259.3828 22.7612,259.5322 Q23.4087,259.6816 23.9731,259.9805 L23.9731,262.7031 Q23.3423,262.1221 22.7488,261.8523 Q22.1553,261.5825 21.5244,261.5825 Q20.1797,261.5825 19.4949,262.6492 Q18.8101,263.7158 18.8101,265.8159 Q18.8101,267.9077 19.4949,268.9744 Q20.1797,270.041 21.5244,270.041 Q22.1553,270.041 22.7488,269.7712 Q23.3423,269.5015 23.9731,268.9204 Z "/><text fill="#000000" font-family="sans-serif" font-size="12" lengthAdjust="spacingAndGlyphs" textLength="41" x="35" y="270.5352">Golden</text><line style="stroke: #A80036; stroke-width: 1.5;" x1="7" x2="78" y1="282" y2="282"/><line style="stroke: #A80036; stroke-width: 1.5;" x1="7" x2="78" y1="290" y2="290"/><!--class PinkLady--><rect fill="#FEFECE" filter="url(#f1nrchg55bfejb)" height="48" id="PinkLady" style="stroke: #A80036; stroke-width: 1.5;" width="83" x="114" y="250"/><ellipse cx="129" cy="266" fill="#ADD1B2" rx="11" ry="11" style="stroke: #A80036; stroke-width: 1.0;"/><path d="M131.9731,271.6431 Q131.3921,271.9419 130.7529,272.0913 Q130.1138,272.2407 129.4082,272.2407 Q126.9014,272.2407 125.5815,270.5889 Q124.2617,268.937 124.2617,265.8159 Q124.2617,262.6865 125.5815,261.0347 Q126.9014,259.3828 129.4082,259.3828 Q130.1138,259.3828 130.7612,259.5322 Q131.4087,259.6816 131.9731,259.9805 L131.9731,262.7031 Q131.3423,262.1221 130.7488,261.8523 Q130.1553,261.5825 129.5244,261.5825 Q128.1797,261.5825 127.4949,262.6492 Q126.8101,263.7158 126.8101,265.8159 Q126.8101,267.9077 127.4949,268.9744 Q128.1797,270.041 129.5244,270.041 Q130.1553,270.041 130.7488,269.7712 Q131.3423,269.5015 131.9731,268.9204 Z "/><text fill="#000000" font-family="sans-serif" font-size="12" lengthAdjust="spacingAndGlyphs" textLength="51" x="143" y="270.5352">PinkLady</text><line style="stroke: #A80036; stroke-width: 1.5;" x1="115" x2="196" y1="282" y2="282"/><line style="stroke: #A80036; stroke-width: 1.5;" x1="115" x2="196" y1="290" y2="290"/><!--link Fruta to Manzana--><path d="M127.0447,100.832 C120.7046,115.3065 114.2075,130.1394 109.0166,141.9903 " fill="none" id="Fruta-Manzana" style="stroke: #A80036; stroke-width: 1.0;"/><polygon fill="none" points="120.7295,97.8025,135.1658,82.2913,133.5533,103.4195,120.7295,97.8025" style="stroke: #A80036; stroke-width: 1.0;"/><!--link Fruta to Pera--><path d="M175.9553,100.832 C182.2954,115.3065 188.7925,130.1394 193.9834,141.9903 " fill="none" id="Fruta-Pera" style="stroke: #A80036; stroke-width: 1.0;"/><polygon fill="none" points="169.4467,103.4195,167.8342,82.2913,182.2705,97.8025,169.4467,103.4195" style="stroke: #A80036; stroke-width: 1.0;"/><!--link Manzana to Golden--><path d="M76.533,208.3649 C69.2334,222.4428 61.3594,237.6283 55.0255,249.8436 " fill="none" id="Manzana-Golden" style="stroke: #A80036; stroke-width: 1.0;"/><polygon fill="none" points="70.5118,204.7702,85.9325,190.2373,82.9404,211.2146,70.5118,204.7702" style="stroke: #A80036; stroke-width: 1.0;"/><!--link Manzana to PinkLady--><path d="M120.8592,208.3649 C128.2892,222.4428 136.3038,237.6283 142.7508,249.8436 " fill="none" id="Manzana-PinkLady" style="stroke: #A80036; stroke-width: 1.0;"/><polygon fill="none" points="114.4364,211.1923,111.2919,190.2373,126.8178,204.6577,114.4364,211.1923" style="stroke: #A80036; stroke-width: 1.0;"/><!--
@startuml Herencia
class Fruta {
    int tamaño
    void comer()
}

Fruta <|- - Manzana
Fruta <|- - Pera

Manzana <|- - Golden
Manzana <|- - PinkLady
@enduml

PlantUML version 1.2018.10(Sat Aug 25 19:02:59 CEST 2018)
(GPL source distribution)
Java Runtime: Java(TM) SE Runtime Environment
JVM: Java HotSpot(TM) 64-Bit Server VM
Java Version: 1.8.0_121-b13
Operating System: Mac OS X
OS Version: 10.13.6
Default Encoding: UTF-8
Language: es
Country: ES
--></g></svg>