<?xml version="1.0" encoding="UTF-8" standalone="no"?><svg xmlns="http://www.w3.org/2000/svg" xmlns:xlink="http://www.w3.org/1999/xlink" contentScriptType="application/ecmascript" contentStyleType="text/css" height="404px" preserveAspectRatio="none" style="width:244px;height:404px;" version="1.1" viewBox="0 0 244 404" width="244px" zoomAndPan="magnify"><defs><filter height="300%" id="f1sqrlysgt7g2b" width="300%" x="-1" y="-1"><feGaussianBlur result="blurOut" stdDeviation="2.0"/><feColorMatrix in="blurOut" result="blurOut2" type="matrix" values="0 0 0 0 0 0 0 0 0 0 0 0 0 0 0 0 0 0 .4 0"/><feOffset dx="4.0" dy="4.0" in="blurOut2" result="blurOut3"/><feBlend in="SourceGraphic" in2="blurOut3" mode="normal"/></filter></defs><g><!--class EsComible--><rect fill="#FEFECE" filter="url(#f1sqrlysgt7g2b)" height="60.9551" id="EsComible" style="stroke: #A80036; stroke-width: 1.5;" width="92" x="105.5" y="8"/><ellipse cx="120.5" cy="24" fill="#ADD1B2" rx="11" ry="11" style="stroke: #A80036; stroke-width: 1.0;"/><path d="M123.4731,29.6431 Q122.8921,29.9419 122.2529,30.0913 Q121.6138,30.2407 120.9082,30.2407 Q118.4014,30.2407 117.0815,28.5889 Q115.7617,26.937 115.7617,23.8159 Q115.7617,20.6865 117.0815,19.0347 Q118.4014,17.3828 120.9082,17.3828 Q121.6138,17.3828 122.2612,17.5322 Q122.9087,17.6816 123.4731,17.9805 L123.4731,20.7031 Q122.8423,20.1221 122.2488,19.8523 Q121.6553,19.5825 121.0244,19.5825 Q119.6797,19.5825 118.9949,20.6492 Q118.3101,21.7158 118.3101,23.8159 Q118.3101,25.9077 118.9949,26.9744 Q119.6797,28.041 121.0244,28.041 Q121.6553,28.041 122.2488,27.7712 Q122.8423,27.5015 123.4731,26.9204 Z "/><text fill="#000000" font-family="sans-serif" font-size="12" lengthAdjust="spacingAndGlyphs" textLength="60" x="134.5" y="28.5352">EsComible</text><line style="stroke: #A80036; stroke-width: 1.5;" x1="106.5" x2="196.5" y1="40" y2="40"/><line style="stroke: #A80036; stroke-width: 1.5;" x1="106.5" x2="196.5" y1="48" y2="48"/><text fill="#000000" font-family="sans-serif" font-size="11" lengthAdjust="spacingAndGlyphs" textLength="68" x="111.5" y="62.6348">void comer()</text><!--class Fruta--><rect fill="#FEFECE" filter="url(#f1sqrlysgt7g2b)" height="48" id="Fruta" style="stroke: #A80036; stroke-width: 1.5;" width="61" x="121" y="129"/><ellipse cx="136" cy="145" fill="#ADD1B2" rx="11" ry="11" style="stroke: #A80036; stroke-width: 1.0;"/><path d="M138.9731,150.6431 Q138.3921,150.9419 137.7529,151.0913 Q137.1138,151.2407 136.4082,151.2407 Q133.9014,151.2407 132.5815,149.5889 Q131.2617,147.937 131.2617,144.8159 Q131.2617,141.6865 132.5815,140.0347 Q133.9014,138.3828 136.4082,138.3828 Q137.1138,138.3828 137.7612,138.5322 Q138.4087,138.6816 138.9731,138.9805 L138.9731,141.7031 Q138.3423,141.1221 137.7488,140.8523 Q137.1553,140.5825 136.5244,140.5825 Q135.1797,140.5825 134.4949,141.6492 Q133.8101,142.7158 133.8101,144.8159 Q133.8101,146.9077 134.4949,147.9744 Q135.1797,149.041 136.5244,149.041 Q137.1553,149.041 137.7488,148.7712 Q138.3423,148.5015 138.9731,147.9204 Z "/><text fill="#000000" font-family="sans-serif" font-size="12" lengthAdjust="spacingAndGlyphs" textLength="29" x="150" y="149.5352">Fruta</text><line style="stroke: #A80036; stroke-width: 1.5;" x1="122" x2="181" y1="161" y2="161"/><line style="stroke: #A80036; stroke-width: 1.5;" x1="122" x2="181" y1="169" y2="169"/><!--class Manzana--><rect fill="#FEFECE" filter="url(#f1sqrlysgt7g2b)" height="48" id="Manzana" style="stroke: #A80036; stroke-width: 1.5;" width="84" x="56.5" y="237"/><ellipse cx="71.5" cy="253" fill="#ADD1B2" rx="11" ry="11" style="stroke: #A80036; stroke-width: 1.0;"/><path d="M74.4731,258.6431 Q73.8921,258.9419 73.2529,259.0913 Q72.6138,259.2407 71.9082,259.2407 Q69.4014,259.2407 68.0815,257.5889 Q66.7617,255.937 66.7617,252.8159 Q66.7617,249.6865 68.0815,248.0347 Q69.4014,246.3828 71.9082,246.3828 Q72.6138,246.3828 73.2612,246.5322 Q73.9087,246.6816 74.4731,246.9805 L74.4731,249.7031 Q73.8423,249.1221 73.2488,248.8523 Q72.6553,248.5825 72.0244,248.5825 Q70.6797,248.5825 69.9949,249.6492 Q69.3101,250.7158 69.3101,252.8159 Q69.3101,254.9077 69.9949,255.9744 Q70.6797,257.041 72.0244,257.041 Q72.6553,257.041 73.2488,256.7712 Q73.8423,256.5015 74.4731,255.9204 Z "/><text fill="#000000" font-family="sans-serif" font-size="12" lengthAdjust="spacingAndGlyphs" textLength="52" x="85.5" y="257.5352">Manzana</text><line style="stroke: #A80036; stroke-width: 1.5;" x1="57.5" x2="139.5" y1="269" y2="269"/><line style="stroke: #A80036; stroke-width: 1.5;" x1="57.5" x2="139.5" y1="277" y2="277"/><!--class Pera--><rect fill="#FEFECE" filter="url(#f1sqrlysgt7g2b)" height="48" id="Pera" style="stroke: #A80036; stroke-width: 1.5;" width="58" x="175.5" y="237"/><ellipse cx="190.5" cy="253" fill="#ADD1B2" rx="11" ry="11" style="stroke: #A80036; stroke-width: 1.0;"/><path d="M193.4731,258.6431 Q192.8921,258.9419 192.2529,259.0913 Q191.6138,259.2407 190.9082,259.2407 Q188.4014,259.2407 187.0815,257.5889 Q185.7617,255.937 185.7617,252.8159 Q185.7617,249.6865 187.0815,248.0347 Q188.4014,246.3828 190.9082,246.3828 Q191.6138,246.3828 192.2612,246.5322 Q192.9087,246.6816 193.4731,246.9805 L193.4731,249.7031 Q192.8423,249.1221 192.2488,248.8523 Q191.6553,248.5825 191.0244,248.5825 Q189.6797,248.5825 188.9949,249.6492 Q188.3101,250.7158 188.3101,252.8159 Q188.3101,254.9077 188.9949,255.9744 Q189.6797,257.041 191.0244,257.041 Q191.6553,257.041 192.2488,256.7712 Q192.8423,256.5015 193.4731,255.9204 Z "/><text fill="#000000" font-family="sans-serif" font-size="12" lengthAdjust="spacingAndGlyphs" textLength="26" x="204.5" y="257.5352">Pera</text><line style="stroke: #A80036; stroke-width: 1.5;" x1="176.5" x2="232.5" y1="269" y2="269"/><line style="stroke: #A80036; stroke-width: 1.5;" x1="176.5" x2="232.5" y1="277" y2="277"/><!--class Golden--><rect fill="#FEFECE" filter="url(#f1sqrlysgt7g2b)" height="48" id="Golden" style="stroke: #A80036; stroke-width: 1.5;" width="73" x="6" y="345"/><ellipse cx="21" cy="361" fill="#ADD1B2" rx="11" ry="11" style="stroke: #A80036; stroke-width: 1.0;"/><path d="M23.9731,366.6431 Q23.3921,366.9419 22.7529,367.0913 Q22.1138,367.2407 21.4082,367.2407 Q18.9014,367.2407 17.5815,365.5889 Q16.2617,363.937 16.2617,360.8159 Q16.2617,357.6865 17.5815,356.0347 Q18.9014,354.3828 21.4082,354.3828 Q22.1138,354.3828 22.7612,354.5322 Q23.4087,354.6816 23.9731,354.9805 L23.9731,357.7031 Q23.3423,357.1221 22.7488,356.8523 Q22.1553,356.5825 21.5244,356.5825 Q20.1797,356.5825 19.4949,357.6492 Q18.8101,358.7158 18.8101,360.8159 Q18.8101,362.9077 19.4949,363.9744 Q20.1797,365.041 21.5244,365.041 Q22.1553,365.041 22.7488,364.7712 Q23.3423,364.5015 23.9731,363.9204 Z "/><text fill="#000000" font-family="sans-serif" font-size="12" lengthAdjust="spacingAndGlyphs" textLength="41" x="35" y="365.5352">Golden</text><line style="stroke: #A80036; stroke-width: 1.5;" x1="7" x2="78" y1="377" y2="377"/><line style="stroke: #A80036; stroke-width: 1.5;" x1="7" x2="78" y1="385" y2="385"/><!--class PinkLady--><rect fill="#FEFECE" filter="url(#f1sqrlysgt7g2b)" height="48" id="PinkLady" style="stroke: #A80036; stroke-width: 1.5;" width="83" x="114" y="345"/><ellipse cx="129" cy="361" fill="#ADD1B2" rx="11" ry="11" style="stroke: #A80036; stroke-width: 1.0;"/><path d="M131.9731,366.6431 Q131.3921,366.9419 130.7529,367.0913 Q130.1138,367.2407 129.4082,367.2407 Q126.9014,367.2407 125.5815,365.5889 Q124.2617,363.937 124.2617,360.8159 Q124.2617,357.6865 125.5815,356.0347 Q126.9014,354.3828 129.4082,354.3828 Q130.1138,354.3828 130.7612,354.5322 Q131.4087,354.6816 131.9731,354.9805 L131.9731,357.7031 Q131.3423,357.1221 130.7488,356.8523 Q130.1553,356.5825 129.5244,356.5825 Q128.1797,356.5825 127.4949,357.6492 Q126.8101,358.7158 126.8101,360.8159 Q126.8101,362.9077 127.4949,363.9744 Q128.1797,365.041 129.5244,365.041 Q130.1553,365.041 130.7488,364.7712 Q131.3423,364.5015 131.9731,363.9204 Z "/><text fill="#000000" font-family="sans-serif" font-size="12" lengthAdjust="spacingAndGlyphs" textLength="51" x="143" y="365.5352">PinkLady</text><line style="stroke: #A80036; stroke-width: 1.5;" x1="115" x2="196" y1="377" y2="377"/><line style="stroke: #A80036; stroke-width: 1.5;" x1="115" x2="196" y1="385" y2="385"/><!--link Fruta to Manzana--><path d="M130.7098,195.3649 C123.8012,209.4428 116.3491,224.6283 110.3545,236.8436 " fill="none" id="Fruta-Manzana" style="stroke: #A80036; stroke-width: 1.0;"/><polygon fill="none" points="124.5106,192.108,139.6058,177.2373,137.0788,198.2757,124.5106,192.108" style="stroke: #A80036; stroke-width: 1.0;"/><!--link Fruta to Pera--><path d="M172.2902,195.3649 C179.1988,209.4428 186.6509,224.6283 192.6455,236.8436 " fill="none" id="Fruta-Pera" style="stroke: #A80036; stroke-width: 1.0;"/><polygon fill="none" points="165.9212,198.2757,163.3942,177.2373,178.4894,192.108,165.9212,198.2757" style="stroke: #A80036; stroke-width: 1.0;"/><!--link EsComible to Fruta--><path d="M151.5,89.2346 C151.5,102.9779 151.5,117.2288 151.5,128.7634 " fill="none" id="EsComible-Fruta" style="stroke: #A80036; stroke-width: 1.0; stroke-dasharray: 7.0,7.0;"/><polygon fill="none" points="144.5001,89.1839,151.5,69.1839,158.5001,89.1839,144.5001,89.1839" style="stroke: #A80036; stroke-width: 1.0;"/><!--link Manzana to Golden--><path d="M76.533,303.3649 C69.2334,317.4428 61.3594,332.6283 55.0255,344.8436 " fill="none" id="Manzana-Golden" style="stroke: #A80036; stroke-width: 1.0;"/><polygon fill="none" points="70.5118,299.7702,85.9325,285.2373,82.9404,306.2146,70.5118,299.7702" style="stroke: #A80036; stroke-width: 1.0;"/><!--link Manzana to PinkLady--><path d="M120.8592,303.3649 C128.2892,317.4428 136.3038,332.6283 142.7508,344.8436 " fill="none" id="Manzana-PinkLady" style="stroke: #A80036; stroke-width: 1.0;"/><polygon fill="none" points="114.4364,306.1923,111.2919,285.2373,126.8178,299.6577,114.4364,306.1923" style="stroke: #A80036; stroke-width: 1.0;"/><!--
@startuml Herencia
class EsComible {
    void comer()
}

Fruta <|- - Manzana
Fruta <|- - Pera

EsComible <|.. Fruta


Manzana <|- - Golden
Manzana <|- - PinkLady
@enduml

PlantUML version 1.2018.10(Sat Aug 25 19:02:59 CEST 2018)
(GPL source distribution)
Java Runtime: Java(TM) SE Runtime Environment
JVM: Java HotSpot(TM) 64-Bit Server VM
Java Version: 1.8.0_121-b13
Operating System: Mac OS X
OS Version: 10.13.6
Default Encoding: UTF-8
Language: es
Country: ES
--></g></svg>