<?xml version="1.0" encoding="UTF-8" standalone="no"?><svg xmlns="http://www.w3.org/2000/svg" xmlns:xlink="http://www.w3.org/1999/xlink" contentScriptType="application/ecmascript" contentStyleType="text/css" height="92px" preserveAspectRatio="none" style="width:97px;height:92px;" version="1.1" viewBox="0 0 97 92" width="97px" zoomAndPan="magnify"><defs><filter height="300%" id="f1p3n8i4dydgkl" width="300%" x="-1" y="-1"><feGaussianBlur result="blurOut" stdDeviation="2.0"/><feColorMatrix in="blurOut" result="blurOut2" type="matrix" values="0 0 0 0 0 0 0 0 0 0 0 0 0 0 0 0 0 0 .4 0"/><feOffset dx="4.0" dy="4.0" in="blurOut2" result="blurOut3"/><feBlend in="SourceGraphic" in2="blurOut3" mode="normal"/></filter></defs><g><!--class Fruta--><rect fill="#FEFECE" filter="url(#f1p3n8i4dydgkl)" height="73.9102" id="Fruta" style="stroke: #A80036; stroke-width: 1.5;" width="80" x="6" y="8"/><ellipse cx="29.55" cy="24" fill="#ADD1B2" rx="11" ry="11" style="stroke: #A80036; stroke-width: 1.0;"/><path d="M32.5231,29.6431 Q31.9421,29.9419 31.3029,30.0913 Q30.6638,30.2407 29.9582,30.2407 Q27.4514,30.2407 26.1315,28.5889 Q24.8117,26.937 24.8117,23.8159 Q24.8117,20.6865 26.1315,19.0347 Q27.4514,17.3828 29.9582,17.3828 Q30.6638,17.3828 31.3112,17.5322 Q31.9587,17.6816 32.5231,17.9805 L32.5231,20.7031 Q31.8923,20.1221 31.2988,19.8523 Q30.7053,19.5825 30.0744,19.5825 Q28.7297,19.5825 28.0449,20.6492 Q27.3601,21.7158 27.3601,23.8159 Q27.3601,25.9077 28.0449,26.9744 Q28.7297,28.041 30.0744,28.041 Q30.7053,28.041 31.2988,27.7712 Q31.8923,27.5015 32.5231,26.9204 Z "/><text fill="#000000" font-family="sans-serif" font-size="12" lengthAdjust="spacingAndGlyphs" textLength="29" x="45.45" y="28.5352">Fruta</text><line style="stroke: #A80036; stroke-width: 1.5;" x1="7" x2="85" y1="40" y2="40"/><text fill="#000000" font-family="sans-serif" font-size="11" lengthAdjust="spacingAndGlyphs" textLength="57" x="12" y="54.6348">int tamaño</text><line style="stroke: #A80036; stroke-width: 1.5;" x1="7" x2="85" y1="60.9551" y2="60.9551"/><text fill="#000000" font-family="sans-serif" font-size="11" lengthAdjust="spacingAndGlyphs" textLength="68" x="12" y="75.5898">void comer()</text><!--
@startuml
class Fruta {
    int tamaño
    void comer()
}
@enduml

PlantUML version 1.2018.10(Sat Aug 25 19:02:59 CEST 2018)
(GPL source distribution)
Java Runtime: Java(TM) SE Runtime Environment
JVM: Java HotSpot(TM) 64-Bit Server VM
Java Version: 1.8.0_121-b13
Operating System: Mac OS X
OS Version: 10.13.6
Default Encoding: UTF-8
Language: es
Country: ES
--></g></svg>