<?xml version="1.0" encoding="UTF-8" standalone="no"?><svg xmlns="http://www.w3.org/2000/svg" xmlns:xlink="http://www.w3.org/1999/xlink" contentScriptType="application/ecmascript" contentStyleType="text/css" height="201px" preserveAspectRatio="none" style="width:216px;height:201px;" version="1.1" viewBox="0 0 216 201" width="216px" zoomAndPan="magnify"><defs><filter height="300%" id="f1h551fk1i670u" width="300%" x="-1" y="-1"><feGaussianBlur result="blurOut" stdDeviation="2.0"/><feColorMatrix in="blurOut" result="blurOut2" type="matrix" values="0 0 0 0 0 0 0 0 0 0 0 0 0 0 0 0 0 0 .4 0"/><feOffset dx="4.0" dy="4.0" in="blurOut2" result="blurOut3"/><feBlend in="SourceGraphic" in2="blurOut3" mode="normal"/></filter></defs><g><!--class Fruta--><rect fill="#FEFECE" filter="url(#f1h551fk1i670u)" height="73.9102" id="Fruta" style="stroke: #A80036; stroke-width: 1.5;" width="80" x="6" y="8"/><ellipse cx="29.55" cy="24" fill="#ADD1B2" rx="11" ry="11" style="stroke: #A80036; stroke-width: 1.0;"/><path d="M32.5231,29.6431 Q31.9421,29.9419 31.3029,30.0913 Q30.6638,30.2407 29.9582,30.2407 Q27.4514,30.2407 26.1315,28.5889 Q24.8117,26.937 24.8117,23.8159 Q24.8117,20.6865 26.1315,19.0347 Q27.4514,17.3828 29.9582,17.3828 Q30.6638,17.3828 31.3112,17.5322 Q31.9587,17.6816 32.5231,17.9805 L32.5231,20.7031 Q31.8923,20.1221 31.2988,19.8523 Q30.7053,19.5825 30.0744,19.5825 Q28.7297,19.5825 28.0449,20.6492 Q27.3601,21.7158 27.3601,23.8159 Q27.3601,25.9077 28.0449,26.9744 Q28.7297,28.041 30.0744,28.041 Q30.7053,28.041 31.2988,27.7712 Q31.8923,27.5015 32.5231,26.9204 Z "/><text fill="#000000" font-family="sans-serif" font-size="12" lengthAdjust="spacingAndGlyphs" textLength="29" x="45.45" y="28.5352">Fruta</text><line style="stroke: #A80036; stroke-width: 1.5;" x1="7" x2="85" y1="40" y2="40"/><text fill="#000000" font-family="sans-serif" font-size="11" lengthAdjust="spacingAndGlyphs" textLength="57" x="12" y="54.6348">int tamaño</text><line style="stroke: #A80036; stroke-width: 1.5;" x1="7" x2="85" y1="60.9551" y2="60.9551"/><text fill="#000000" font-family="sans-serif" font-size="11" lengthAdjust="spacingAndGlyphs" textLength="68" x="12" y="75.5898">void comer()</text><!--class Manzana--><rect fill="#FEFECE" filter="url(#f1h551fk1i670u)" height="48" id="Manzana" style="stroke: #A80036; stroke-width: 1.5;" width="84" x="121" y="21"/><ellipse cx="136" cy="37" fill="#ADD1B2" rx="11" ry="11" style="stroke: #A80036; stroke-width: 1.0;"/><path d="M138.9731,42.6431 Q138.3921,42.9419 137.7529,43.0913 Q137.1138,43.2407 136.4082,43.2407 Q133.9014,43.2407 132.5815,41.5889 Q131.2617,39.937 131.2617,36.8159 Q131.2617,33.6865 132.5815,32.0347 Q133.9014,30.3828 136.4082,30.3828 Q137.1138,30.3828 137.7612,30.5322 Q138.4087,30.6816 138.9731,30.9805 L138.9731,33.7031 Q138.3423,33.1221 137.7488,32.8523 Q137.1553,32.5825 136.5244,32.5825 Q135.1797,32.5825 134.4949,33.6492 Q133.8101,34.7158 133.8101,36.8159 Q133.8101,38.9077 134.4949,39.9744 Q135.1797,41.041 136.5244,41.041 Q137.1553,41.041 137.7488,40.7712 Q138.3423,40.5015 138.9731,39.9204 Z "/><text fill="#000000" font-family="sans-serif" font-size="12" lengthAdjust="spacingAndGlyphs" textLength="52" x="150" y="41.5352">Manzana</text><line style="stroke: #A80036; stroke-width: 1.5;" x1="122" x2="204" y1="53" y2="53"/><line style="stroke: #A80036; stroke-width: 1.5;" x1="122" x2="204" y1="61" y2="61"/><!--class Pera--><rect fill="#FEFECE" filter="url(#f1h551fk1i670u)" height="48" id="Pera" style="stroke: #A80036; stroke-width: 1.5;" width="58" x="17" y="142"/><ellipse cx="32" cy="158" fill="#ADD1B2" rx="11" ry="11" style="stroke: #A80036; stroke-width: 1.0;"/><path d="M34.9731,163.6431 Q34.3921,163.9419 33.7529,164.0913 Q33.1138,164.2407 32.4082,164.2407 Q29.9014,164.2407 28.5815,162.5889 Q27.2617,160.937 27.2617,157.8159 Q27.2617,154.6865 28.5815,153.0347 Q29.9014,151.3828 32.4082,151.3828 Q33.1138,151.3828 33.7612,151.5322 Q34.4087,151.6816 34.9731,151.9805 L34.9731,154.7031 Q34.3423,154.1221 33.7488,153.8523 Q33.1553,153.5825 32.5244,153.5825 Q31.1797,153.5825 30.4949,154.6492 Q29.8101,155.7158 29.8101,157.8159 Q29.8101,159.9077 30.4949,160.9744 Q31.1797,162.041 32.5244,162.041 Q33.1553,162.041 33.7488,161.7712 Q34.3423,161.5015 34.9731,160.9204 Z "/><text fill="#000000" font-family="sans-serif" font-size="12" lengthAdjust="spacingAndGlyphs" textLength="26" x="46" y="162.5352">Pera</text><line style="stroke: #A80036; stroke-width: 1.5;" x1="18" x2="74" y1="174" y2="174"/><line style="stroke: #A80036; stroke-width: 1.5;" x1="18" x2="74" y1="182" y2="182"/><!--link Fruta to Manzana--><!--link Fruta to Pera--><!--
@startuml
class Fruta {
    int tamaño
    void comer()
}

class Manzana
class Pera
@enduml

PlantUML version 1.2018.10(Sat Aug 25 19:02:59 CEST 2018)
(GPL source distribution)
Java Runtime: Java(TM) SE Runtime Environment
JVM: Java HotSpot(TM) 64-Bit Server VM
Java Version: 1.8.0_121-b13
Operating System: Mac OS X
OS Version: 10.13.6
Default Encoding: UTF-8
Language: es
Country: ES
--></g></svg>