<?xml version="1.0" encoding="UTF-8" standalone="no"?><svg xmlns="http://www.w3.org/2000/svg" xmlns:xlink="http://www.w3.org/1999/xlink" contentScriptType="application/ecmascript" contentStyleType="text/css" height="577px" preserveAspectRatio="none" style="width:384px;height:577px;" version="1.1" viewBox="0 0 384 577" width="384px" zoomAndPan="magnify"><defs><filter height="300%" id="f1jtfks5a84w21" width="300%" x="-1" y="-1"><feGaussianBlur result="blurOut" stdDeviation="2.0"/><feColorMatrix in="blurOut" result="blurOut2" type="matrix" values="0 0 0 0 0 0 0 0 0 0 0 0 0 0 0 0 0 0 .4 0"/><feOffset dx="4.0" dy="4.0" in="blurOut2" result="blurOut3"/><feBlend in="SourceGraphic" in2="blurOut3" mode="normal"/></filter></defs><g><!--class Entity--><rect fill="#FEFECE" filter="url(#f1jtfks5a84w21)" height="60.9551" id="Entity" style="stroke: #A80036; stroke-width: 1.5;" width="63" x="200.5" y="155"/><ellipse cx="215.5" cy="171" fill="#ADD1B2" rx="11" ry="11" style="stroke: #A80036; stroke-width: 1.0;"/><path d="M218.4731,176.6431 Q217.8921,176.9419 217.2529,177.0913 Q216.6138,177.2407 215.9082,177.2407 Q213.4014,177.2407 212.0815,175.5889 Q210.7617,173.937 210.7617,170.8159 Q210.7617,167.6865 212.0815,166.0347 Q213.4014,164.3828 215.9082,164.3828 Q216.6138,164.3828 217.2612,164.5322 Q217.9087,164.6816 218.4731,164.9805 L218.4731,167.7031 Q217.8423,167.1221 217.2488,166.8523 Q216.6553,166.5825 216.0244,166.5825 Q214.6797,166.5825 213.9949,167.6492 Q213.3101,168.7158 213.3101,170.8159 Q213.3101,172.9077 213.9949,173.9744 Q214.6797,175.041 216.0244,175.041 Q216.6553,175.041 217.2488,174.7712 Q217.8423,174.5015 218.4731,173.9204 Z "/><text fill="#000000" font-family="sans-serif" font-size="12" lengthAdjust="spacingAndGlyphs" textLength="31" x="229.5" y="175.5352">Entity</text><line style="stroke: #A80036; stroke-width: 1.5;" x1="201.5" x2="262.5" y1="187" y2="187"/><line style="stroke: #A80036; stroke-width: 1.5;" x1="201.5" x2="262.5" y1="195" y2="195"/><ellipse cx="211.5" cy="206.9775" fill="#84BE84" rx="3" ry="3" style="stroke: #038048; stroke-width: 1.0;"/><text fill="#000000" font-family="sans-serif" font-size="11" lengthAdjust="spacingAndGlyphs" textLength="27" x="220.5" y="209.6348">tick()</text><!--class Component--><rect fill="#FEFECE" filter="url(#f1jtfks5a84w21)" height="73.9102" id="Component" style="stroke: #A80036; stroke-width: 1.5;" width="108" x="113" y="276"/><ellipse cx="132.5" cy="292" fill="#A9DCDF" rx="11" ry="11" style="stroke: #A80036; stroke-width: 1.0;"/><path d="M132.6133,287.3481 L131.4595,292.4199 L133.7754,292.4199 Z M131.1191,285.1069 L134.1157,285.1069 L137.4609,297.5 L135.0122,297.5 L134.2485,294.437 L130.9697,294.437 L130.2227,297.5 L127.7739,297.5 Z "/><text fill="#000000" font-family="sans-serif" font-size="12" font-style="italic" lengthAdjust="spacingAndGlyphs" textLength="66" x="147.5" y="296.5352">Component</text><line style="stroke: #A80036; stroke-width: 1.5;" x1="114" x2="220" y1="308" y2="308"/><ellipse cx="124" cy="319.9775" fill="none" rx="3" ry="3" style="stroke: #038048; stroke-width: 1.0;"/><text fill="#000000" font-family="sans-serif" font-size="11" lengthAdjust="spacingAndGlyphs" textLength="82" x="133" y="322.6348">messageQueue</text><line style="stroke: #A80036; stroke-width: 1.5;" x1="114" x2="220" y1="328.9551" y2="328.9551"/><ellipse cx="124" cy="340.9326" fill="#84BE84" rx="3" ry="3" style="stroke: #038048; stroke-width: 1.0;"/><text fill="#000000" font-family="sans-serif" font-size="11" lengthAdjust="spacingAndGlyphs" textLength="27" x="133" y="343.5898">tick()</text><!--class Game--><rect fill="#FEFECE" filter="url(#f1jtfks5a84w21)" height="86.8652" id="Game" style="stroke: #A80036; stroke-width: 1.5;" width="108" x="263" y="8"/><ellipse cx="296.9" cy="24" fill="#ADD1B2" rx="11" ry="11" style="stroke: #A80036; stroke-width: 1.0;"/><path d="M299.8731,29.6431 Q299.2921,29.9419 298.6529,30.0913 Q298.0138,30.2407 297.3082,30.2407 Q294.8014,30.2407 293.4815,28.5889 Q292.1617,26.937 292.1617,23.8159 Q292.1617,20.6865 293.4815,19.0347 Q294.8014,17.3828 297.3082,17.3828 Q298.0138,17.3828 298.6612,17.5322 Q299.3087,17.6816 299.8731,17.9805 L299.8731,20.7031 Q299.2423,20.1221 298.6488,19.8523 Q298.0553,19.5825 297.4244,19.5825 Q296.0797,19.5825 295.3949,20.6492 Q294.7101,21.7158 294.7101,23.8159 Q294.7101,25.9077 295.3949,26.9744 Q296.0797,28.041 297.4244,28.041 Q298.0553,28.041 298.6488,27.7712 Q299.2423,27.5015 299.8731,26.9204 Z "/><text fill="#000000" font-family="sans-serif" font-size="12" lengthAdjust="spacingAndGlyphs" textLength="34" x="315.1" y="28.5352">Game</text><line style="stroke: #A80036; stroke-width: 1.5;" x1="264" x2="370" y1="40" y2="40"/><ellipse cx="274" cy="51.9775" fill="none" rx="3" ry="3" style="stroke: #038048; stroke-width: 1.0;"/><text fill="#000000" font-family="sans-serif" font-size="11" lengthAdjust="spacingAndGlyphs" textLength="39" x="283" y="54.6348">entities</text><ellipse cx="274" cy="64.9326" fill="none" rx="3" ry="3" style="stroke: #038048; stroke-width: 1.0;"/><text fill="#000000" font-family="sans-serif" font-size="11" lengthAdjust="spacingAndGlyphs" textLength="82" x="283" y="67.5898">messageQueue</text><line style="stroke: #A80036; stroke-width: 1.5;" x1="264" x2="370" y1="73.9102" y2="73.9102"/><ellipse cx="274" cy="85.8877" fill="#84BE84" rx="3" ry="3" style="stroke: #038048; stroke-width: 1.0;"/><text fill="#000000" font-family="sans-serif" font-size="11" lengthAdjust="spacingAndGlyphs" textLength="27" x="283" y="88.5449">tick()</text><!--class Attacker--><rect fill="#FEFECE" filter="url(#f1jtfks5a84w21)" height="48" id="Attacker" style="stroke: #A80036; stroke-width: 1.5;" width="80" x="127" y="410"/><ellipse cx="142" cy="426" fill="#ADD1B2" rx="11" ry="11" style="stroke: #A80036; stroke-width: 1.0;"/><path d="M144.9731,431.6431 Q144.3921,431.9419 143.7529,432.0913 Q143.1138,432.2407 142.4082,432.2407 Q139.9014,432.2407 138.5815,430.5889 Q137.2617,428.937 137.2617,425.8159 Q137.2617,422.6865 138.5815,421.0347 Q139.9014,419.3828 142.4082,419.3828 Q143.1138,419.3828 143.7612,419.5322 Q144.4087,419.6816 144.9731,419.9805 L144.9731,422.7031 Q144.3423,422.1221 143.7488,421.8523 Q143.1553,421.5825 142.5244,421.5825 Q141.1797,421.5825 140.4949,422.6492 Q139.8101,423.7158 139.8101,425.8159 Q139.8101,427.9077 140.4949,428.9744 Q141.1797,430.041 142.5244,430.041 Q143.1553,430.041 143.7488,429.7712 Q144.3423,429.5015 144.9731,428.9204 Z "/><text fill="#000000" font-family="sans-serif" font-size="12" lengthAdjust="spacingAndGlyphs" textLength="48" x="156" y="430.5352">Attacker</text><line style="stroke: #A80036; stroke-width: 1.5;" x1="128" x2="206" y1="442" y2="442"/><line style="stroke: #A80036; stroke-width: 1.5;" x1="128" x2="206" y1="450" y2="450"/><!--class Defender--><rect fill="#FEFECE" filter="url(#f1jtfks5a84w21)" height="48" id="Defender" style="stroke: #A80036; stroke-width: 1.5;" width="86" x="6" y="410"/><ellipse cx="21" cy="426" fill="#ADD1B2" rx="11" ry="11" style="stroke: #A80036; stroke-width: 1.0;"/><path d="M23.9731,431.6431 Q23.3921,431.9419 22.7529,432.0913 Q22.1138,432.2407 21.4082,432.2407 Q18.9014,432.2407 17.5815,430.5889 Q16.2617,428.937 16.2617,425.8159 Q16.2617,422.6865 17.5815,421.0347 Q18.9014,419.3828 21.4082,419.3828 Q22.1138,419.3828 22.7612,419.5322 Q23.4087,419.6816 23.9731,419.9805 L23.9731,422.7031 Q23.3423,422.1221 22.7488,421.8523 Q22.1553,421.5825 21.5244,421.5825 Q20.1797,421.5825 19.4949,422.6492 Q18.8101,423.7158 18.8101,425.8159 Q18.8101,427.9077 19.4949,428.9744 Q20.1797,430.041 21.5244,430.041 Q22.1553,430.041 22.7488,429.7712 Q23.3423,429.5015 23.9731,428.9204 Z "/><text fill="#000000" font-family="sans-serif" font-size="12" lengthAdjust="spacingAndGlyphs" textLength="54" x="35" y="430.5352">Defender</text><line style="stroke: #A80036; stroke-width: 1.5;" x1="7" x2="91" y1="442" y2="442"/><line style="stroke: #A80036; stroke-width: 1.5;" x1="7" x2="91" y1="450" y2="450"/><!--class Message--><rect fill="#FEFECE" filter="url(#f1jtfks5a84w21)" height="48" id="Message" style="stroke: #A80036; stroke-width: 1.5;" width="82" x="262" y="289"/><ellipse cx="277" cy="305" fill="#A9DCDF" rx="11" ry="11" style="stroke: #A80036; stroke-width: 1.0;"/><path d="M277.1133,300.3481 L275.9595,305.4199 L278.2754,305.4199 Z M275.6191,298.1069 L278.6157,298.1069 L281.9609,310.5 L279.5122,310.5 L278.7485,307.437 L275.4697,307.437 L274.7227,310.5 L272.2739,310.5 Z "/><text fill="#000000" font-family="sans-serif" font-size="12" font-style="italic" lengthAdjust="spacingAndGlyphs" textLength="50" x="291" y="309.5352">Message</text><line style="stroke: #A80036; stroke-width: 1.5;" x1="263" x2="343" y1="321" y2="321"/><line style="stroke: #A80036; stroke-width: 1.5;" x1="263" x2="343" y1="329" y2="329"/><!--class Attack--><rect fill="#FEFECE" filter="url(#f1jtfks5a84w21)" height="48" id="Attack" style="stroke: #A80036; stroke-width: 1.5;" width="68" x="133" y="518"/><ellipse cx="148" cy="534" fill="#ADD1B2" rx="11" ry="11" style="stroke: #A80036; stroke-width: 1.0;"/><path d="M150.9731,539.6431 Q150.3921,539.9419 149.7529,540.0913 Q149.1138,540.2407 148.4082,540.2407 Q145.9014,540.2407 144.5815,538.5889 Q143.2617,536.937 143.2617,533.8159 Q143.2617,530.6865 144.5815,529.0347 Q145.9014,527.3828 148.4082,527.3828 Q149.1138,527.3828 149.7612,527.5322 Q150.4087,527.6816 150.9731,527.9805 L150.9731,530.7031 Q150.3423,530.1221 149.7488,529.8523 Q149.1553,529.5825 148.5244,529.5825 Q147.1797,529.5825 146.4949,530.6492 Q145.8101,531.7158 145.8101,533.8159 Q145.8101,535.9077 146.4949,536.9744 Q147.1797,538.041 148.5244,538.041 Q149.1553,538.041 149.7488,537.7712 Q150.3423,537.5015 150.9731,536.9204 Z "/><text fill="#000000" font-family="sans-serif" font-size="12" lengthAdjust="spacingAndGlyphs" textLength="36" x="162" y="538.5352">Attack</text><line style="stroke: #A80036; stroke-width: 1.5;" x1="134" x2="200" y1="550" y2="550"/><line style="stroke: #A80036; stroke-width: 1.5;" x1="134" x2="200" y1="558" y2="558"/><!--class Presence--><rect fill="#FEFECE" filter="url(#f1jtfks5a84w21)" height="48" id="Presence" style="stroke: #A80036; stroke-width: 1.5;" width="84" x="289" y="518"/><ellipse cx="304" cy="534" fill="#ADD1B2" rx="11" ry="11" style="stroke: #A80036; stroke-width: 1.0;"/><path d="M306.9731,539.6431 Q306.3921,539.9419 305.7529,540.0913 Q305.1138,540.2407 304.4082,540.2407 Q301.9014,540.2407 300.5815,538.5889 Q299.2617,536.937 299.2617,533.8159 Q299.2617,530.6865 300.5815,529.0347 Q301.9014,527.3828 304.4082,527.3828 Q305.1138,527.3828 305.7612,527.5322 Q306.4087,527.6816 306.9731,527.9805 L306.9731,530.7031 Q306.3423,530.1221 305.7488,529.8523 Q305.1553,529.5825 304.5244,529.5825 Q303.1797,529.5825 302.4949,530.6492 Q301.8101,531.7158 301.8101,533.8159 Q301.8101,535.9077 302.4949,536.9744 Q303.1797,538.041 304.5244,538.041 Q305.1553,538.041 305.7488,537.7712 Q306.3423,537.5015 306.9731,536.9204 Z "/><text fill="#000000" font-family="sans-serif" font-size="12" lengthAdjust="spacingAndGlyphs" textLength="52" x="318" y="538.5352">Presence</text><line style="stroke: #A80036; stroke-width: 1.5;" x1="290" x2="372" y1="550" y2="550"/><line style="stroke: #A80036; stroke-width: 1.5;" x1="290" x2="372" y1="558" y2="558"/><!--link Component to Attacker--><path d="M167,370.2968 C167,384.3031 167,398.5389 167,409.9903 " fill="none" id="Component-Attacker" style="stroke: #A80036; stroke-width: 1.0;"/><polygon fill="none" points="160.0001,370.2913,167,350.2913,174.0001,370.2913,160.0001,370.2913" style="stroke: #A80036; stroke-width: 1.0;"/><!--link Component to Defender--><path d="M116.3479,364.9399 C101.0606,380.6158 85.0103,397.0742 72.4144,409.9903 " fill="none" id="Component-Defender" style="stroke: #A80036; stroke-width: 1.0;"/><polygon fill="none" points="111.6582,359.7226,130.6333,350.2913,121.6812,369.4971,111.6582,359.7226" style="stroke: #A80036; stroke-width: 1.0;"/><!--link Game to Message--><path d="M313.9436,108.5894 C310.9331,164.8213 306.4782,248.0329 304.2978,288.7597 " fill="none" id="Game-Message" style="stroke: #A80036; stroke-width: 1.0;"/><polygon fill="#FFFFFF" points="314.6567,95.2692,310.3417,101.0468,314.0152,107.252,318.3302,101.4745,314.6567,95.2692" style="stroke: #A80036; stroke-width: 1.0;"/><!--link Entity to Message--><path d="M249.0063,216.0394 C260.5246,236.7238 275.6468,263.8798 286.9566,284.1897 " fill="none" id="Entity-Message" style="stroke: #A80036; stroke-width: 1.0;"/><polygon fill="#A80036" points="289.4541,288.6746,288.5698,278.8655,287.0214,284.3063,281.5806,282.7579,289.4541,288.6746" style="stroke: #A80036; stroke-width: 1.0;"/><!--link Entity to Component--><path d="M210.3409,227.9851 C202.4368,243.4893 193.5665,260.8887 185.9194,275.8888 " fill="none" id="Entity-Component" style="stroke: #A80036; stroke-width: 1.0;"/><polygon fill="#A80036" points="216.4309,216.0394,210.1421,219.568,210.9805,226.7302,217.2693,223.2016,216.4309,216.0394" style="stroke: #A80036; stroke-width: 1.0;"/><text fill="#000000" font-family="sans-serif" font-size="13" lengthAdjust="spacingAndGlyphs" textLength="8" x="204.3948" y="236.49">1</text><text fill="#000000" font-family="sans-serif" font-size="13" lengthAdjust="spacingAndGlyphs" textLength="6" x="182.8545" y="265.2689">*</text><!--link Game to Entity--><path d="M282.251,106.2808 C271.7208,122.8814 260.5334,140.5179 251.3942,154.9257 " fill="none" id="Game-Entity" style="stroke: #A80036; stroke-width: 1.0;"/><polygon fill="#A80036" points="289.4029,95.006,282.8112,97.93,282.9751,105.1393,289.5668,102.2152,289.4029,95.006" style="stroke: #A80036; stroke-width: 1.0;"/><text fill="#000000" font-family="sans-serif" font-size="13" lengthAdjust="spacingAndGlyphs" textLength="8" x="276.5646" y="115.4187">1</text><text fill="#000000" font-family="sans-serif" font-size="13" lengthAdjust="spacingAndGlyphs" textLength="6" x="248.9804" y="144.2042">*</text><!--link Message to Attack--><path d="M281.9372,355.0708 C266.8808,384.39 245.6997,424.1558 225,458 C212.3321,478.7122 196.612,501.3128 184.7346,517.8489 " fill="none" id="Message-Attack" style="stroke: #A80036; stroke-width: 1.0;"/><polygon fill="none" points="275.7882,351.7194,291.0905,337.0619,288.2687,358.0628,275.7882,351.7194" style="stroke: #A80036; stroke-width: 1.0;"/><!--link Message to Presence--><path d="M308.3744,356.9552 C314.2315,404.8576 323.3888,479.7512 328.0539,517.9047 " fill="none" id="Message-Presence" style="stroke: #A80036; stroke-width: 1.0;"/><polygon fill="none" points="301.4227,357.7759,305.9436,337.0742,315.3192,356.0767,301.4227,357.7759" style="stroke: #A80036; stroke-width: 1.0;"/><!--link Game to Presence--><path d="M330.0019,95.2802 C345.7471,153.2635 369.3119,258.84 362,350 C357.3427,408.0635 344.8845,475.0625 337.2543,512.5859 " fill="none" id="Game-Presence" style="stroke: #A80036; stroke-width: 1.0;"/><polygon fill="#A80036" points="336.165,517.9036,341.8896,509.8893,337.1683,513.0053,334.0523,508.284,336.165,517.9036" style="stroke: #A80036; stroke-width: 1.0;"/><!--link Attacker to Presence--><path d="M203.8048,458.2373 C229.4427,475.1208 263.6526,497.6493 290.1364,515.0898 " fill="none" id="Attacker-Presence" style="stroke: #A80036; stroke-width: 1.0;"/><polygon fill="#A80036" points="294.318,517.8436,289.0015,509.553,290.1422,515.0936,284.6015,516.2343,294.318,517.8436" style="stroke: #A80036; stroke-width: 1.0;"/><!--link Attacker to Attack--><path d="M167,458.2373 C167,474.3565 167,495.6212 167,512.6911 " fill="none" id="Attacker-Attack" style="stroke: #A80036; stroke-width: 1.0;"/><polygon fill="#A80036" points="167,517.8436,171,508.8436,167,512.8436,163,508.8436,167,517.8436" style="stroke: #A80036; stroke-width: 1.0;"/><!--link Defender to Attack--><path d="M75.4815,458.2373 C93.7006,474.9124 117.9359,497.0939 136.8899,514.4416 " fill="none" id="Defender-Attack" style="stroke: #A80036; stroke-width: 1.0;"/><polygon fill="#A80036" points="140.6069,517.8436,136.6683,508.8166,136.9185,514.4679,131.2671,514.7181,140.6069,517.8436" style="stroke: #A80036; stroke-width: 1.0;"/><!--
@startuml
class Entity {
    +tick()
}
abstract class Component {
    +messageQueue
    +tick()
}

class Game {
    +entities
    +messageQueue
    +tick()
}
Component <|- - Attacker
Component <|- - Defender
Game o- - Message
Entity - -> Message
Entity "1" *- - "*" Component
Game "1" *- - "*" Entity
abstract class Message {
}
Message <|- - Attack
Message <|- - Presence

Game - -> Presence 
Attacker - -> Presence 
Attacker - -> Attack 
Defender - -> Attack 
@enduml

PlantUML version 1.2017.19(Sun Nov 12 12:46:22 CET 2017)
(GPL source distribution)
Java Runtime: Java(TM) SE Runtime Environment
JVM: Java HotSpot(TM) 64-Bit Server VM
Java Version: 1.8.0_144-b01
Operating System: Mac OS X
OS Version: 10.13.1
Default Encoding: UTF-8
Language: es
Country: ES
--></g></svg>