<?xml version="1.0" encoding="UTF-8" standalone="no"?><svg xmlns="http://www.w3.org/2000/svg" xmlns:xlink="http://www.w3.org/1999/xlink" contentScriptType="application/ecmascript" contentStyleType="text/css" height="160px" preserveAspectRatio="none" style="width:269px;height:160px;" version="1.1" viewBox="0 0 269 160" width="269px" zoomAndPan="magnify"><defs><filter height="300%" id="fjbfotd91ttx6" width="300%" x="-1" y="-1"><feGaussianBlur result="blurOut" stdDeviation="2.0"/><feColorMatrix in="blurOut" result="blurOut2" type="matrix" values="0 0 0 0 0 0 0 0 0 0 0 0 0 0 0 0 0 0 .4 0"/><feOffset dx="4.0" dy="4.0" in="blurOut2" result="blurOut3"/><feBlend in="SourceGraphic" in2="blurOut3" mode="normal"/></filter></defs><g><!--class Weapon--><rect fill="#FEFECE" filter="url(#fjbfotd91ttx6)" height="32" id="Weapon" style="stroke: #A80036; stroke-width: 1.5;" width="78" x="90.5" y="8"/><ellipse cx="105.5" cy="24" fill="#ADD1B2" rx="11" ry="11" style="stroke: #A80036; stroke-width: 1.0;"/><path d="M108.4731,29.6431 Q107.8921,29.9419 107.2529,30.0913 Q106.6138,30.2407 105.9082,30.2407 Q103.4014,30.2407 102.0815,28.5889 Q100.7617,26.937 100.7617,23.8159 Q100.7617,20.6865 102.0815,19.0347 Q103.4014,17.3828 105.9082,17.3828 Q106.6138,17.3828 107.2612,17.5322 Q107.9087,17.6816 108.4731,17.9805 L108.4731,20.7031 Q107.8423,20.1221 107.2488,19.8523 Q106.6553,19.5825 106.0244,19.5825 Q104.6797,19.5825 103.9949,20.6492 Q103.3101,21.7158 103.3101,23.8159 Q103.3101,25.9077 103.9949,26.9744 Q104.6797,28.041 106.0244,28.041 Q106.6553,28.041 107.2488,27.7712 Q107.8423,27.5015 108.4731,26.9204 Z "/><text fill="#000000" font-family="sans-serif" font-size="12" lengthAdjust="spacingAndGlyphs" textLength="46" x="119.5" y="28.5352">Weapon</text><!--class AttackPower--><rect fill="#FEFECE" filter="url(#fjbfotd91ttx6)" height="32" id="AttackPower" style="stroke: #A80036; stroke-width: 1.5;" width="103" x="6" y="117"/><ellipse cx="21" cy="133" fill="#ADD1B2" rx="11" ry="11" style="stroke: #A80036; stroke-width: 1.0;"/><path d="M23.9731,138.6431 Q23.3921,138.9419 22.7529,139.0913 Q22.1138,139.2407 21.4082,139.2407 Q18.9014,139.2407 17.5815,137.5889 Q16.2617,135.937 16.2617,132.8159 Q16.2617,129.6865 17.5815,128.0347 Q18.9014,126.3828 21.4082,126.3828 Q22.1138,126.3828 22.7612,126.5322 Q23.4087,126.6816 23.9731,126.9805 L23.9731,129.7031 Q23.3423,129.1221 22.7488,128.8523 Q22.1553,128.5825 21.5244,128.5825 Q20.1797,128.5825 19.4949,129.6492 Q18.8101,130.7158 18.8101,132.8159 Q18.8101,134.9077 19.4949,135.9744 Q20.1797,137.041 21.5244,137.041 Q22.1553,137.041 22.7488,136.7712 Q23.3423,136.5015 23.9731,135.9204 Z "/><text fill="#000000" font-family="sans-serif" font-size="12" lengthAdjust="spacingAndGlyphs" textLength="71" x="35" y="137.5352">AttackPower</text><!--class DefensePower--><rect fill="#FEFECE" filter="url(#fjbfotd91ttx6)" height="32" id="DefensePower" style="stroke: #A80036; stroke-width: 1.5;" width="114" x="144.5" y="117"/><ellipse cx="159.5" cy="133" fill="#ADD1B2" rx="11" ry="11" style="stroke: #A80036; stroke-width: 1.0;"/><path d="M162.4731,138.6431 Q161.8921,138.9419 161.2529,139.0913 Q160.6138,139.2407 159.9082,139.2407 Q157.4014,139.2407 156.0815,137.5889 Q154.7617,135.937 154.7617,132.8159 Q154.7617,129.6865 156.0815,128.0347 Q157.4014,126.3828 159.9082,126.3828 Q160.6138,126.3828 161.2612,126.5322 Q161.9087,126.6816 162.4731,126.9805 L162.4731,129.7031 Q161.8423,129.1221 161.2488,128.8523 Q160.6553,128.5825 160.0244,128.5825 Q158.6797,128.5825 157.9949,129.6492 Q157.3101,130.7158 157.3101,132.8159 Q157.3101,134.9077 157.9949,135.9744 Q158.6797,137.041 160.0244,137.041 Q160.6553,137.041 161.2488,136.7712 Q161.8423,136.5015 162.4731,135.9204 Z "/><text fill="#000000" font-family="sans-serif" font-size="12" lengthAdjust="spacingAndGlyphs" textLength="82" x="173.5" y="137.5352">DefensePower</text><!--link Weapon to AttackPower--><path d="M111.6586,51.01 C98.0002,71.6871 79.6177,99.5163 68.1674,116.8507 " fill="none" id="Weapon-AttackPower" style="stroke: #A80036; stroke-width: 1.0;"/><polygon fill="#A80036" points="118.8762,40.0833,112.2316,42.885,112.2622,50.0961,118.9068,47.2943,118.8762,40.0833" style="stroke: #A80036; stroke-width: 1.0;"/><text fill="#000000" font-family="sans-serif" font-size="13" lengthAdjust="spacingAndGlyphs" textLength="51" x="99.5" y="83.5684">parte de</text><!--link Weapon to DefensePower--><path d="M147.3414,51.01 C160.9998,71.6871 179.3823,99.5163 190.8326,116.8507 " fill="none" id="Weapon-DefensePower" style="stroke: #A80036; stroke-width: 1.0;"/><polygon fill="#A80036" points="140.1238,40.0833,140.0932,47.2943,146.7378,50.0961,146.7684,42.885,140.1238,40.0833" style="stroke: #A80036; stroke-width: 1.0;"/><text fill="#000000" font-family="sans-serif" font-size="13" lengthAdjust="spacingAndGlyphs" textLength="51" x="170.5" y="83.5684">parte de</text><!--
@startuml
Weapon *- - AttackPower : parte de
Weapon *- - DefensePower : parte de
hide members
@enduml

PlantUML version 1.2017.16(Sun Sep 03 12:53:37 CEST 2017)
(GPL source distribution)
Java Runtime: Java(TM) SE Runtime Environment
JVM: Java HotSpot(TM) 64-Bit Server VM
Java Version: 1.8.0_144-b01
Operating System: Mac OS X
OS Version: 10.12.6
Default Encoding: UTF-8
Language: es
Country: ES
--></g></svg>