<?xml version="1.0" encoding="UTF-8" standalone="no"?><svg xmlns="http://www.w3.org/2000/svg" xmlns:xlink="http://www.w3.org/1999/xlink" contentScriptType="application/ecmascript" contentStyleType="text/css" height="373px" preserveAspectRatio="none" style="width:97px;height:373px;" version="1.1" viewBox="0 0 97 373" width="97px" zoomAndPan="magnify"><defs><filter height="300%" id="fabdyvw55kam9" width="300%" x="-1" y="-1"><feGaussianBlur result="blurOut" stdDeviation="2.0"/><feColorMatrix in="blurOut" result="blurOut2" type="matrix" values="0 0 0 0 0 0 0 0 0 0 0 0 0 0 0 0 0 0 .4 0"/><feOffset dx="4.0" dy="4.0" in="blurOut2" result="blurOut3"/><feBlend in="SourceGraphic" in2="blurOut3" mode="normal"/></filter></defs><g><!--class Entity--><rect fill="#FEFECE" filter="url(#fabdyvw55kam9)" height="73.9102" id="Entity" style="stroke: #A80036; stroke-width: 1.5;" width="63" x="14.5" y="8"/><ellipse cx="29.5" cy="24" fill="#A9DCDF" rx="11" ry="11" style="stroke: #A80036; stroke-width: 1.0;"/><path d="M29.6133,19.3481 L28.4595,24.4199 L30.7754,24.4199 Z M28.1191,17.1069 L31.1157,17.1069 L34.4609,29.5 L32.0122,29.5 L31.2485,26.437 L27.9697,26.437 L27.2227,29.5 L24.7739,29.5 Z "/><text fill="#000000" font-family="sans-serif" font-size="12" font-style="italic" lengthAdjust="spacingAndGlyphs" textLength="31" x="43.5" y="28.5352">Entity</text><line style="stroke: #A80036; stroke-width: 1.5;" x1="15.5" x2="76.5" y1="40" y2="40"/><rect fill="none" height="6" style="stroke: #C82930; stroke-width: 1.0;" width="6" x="22.5" y="48.9775"/><text fill="#000000" font-family="sans-serif" font-size="11" lengthAdjust="spacingAndGlyphs" textLength="10" x="34.5" y="54.6348">id</text><line style="stroke: #A80036; stroke-width: 1.5;" x1="15.5" x2="76.5" y1="60.9551" y2="60.9551"/><ellipse cx="25.5" cy="72.9326" fill="#84BE84" rx="3" ry="3" style="stroke: #038048; stroke-width: 1.0;"/><text fill="#000000" font-family="sans-serif" font-size="11" font-style="italic" lengthAdjust="spacingAndGlyphs" textLength="27" x="34.5" y="75.5898">tick()</text><!--class Movable--><rect fill="#FEFECE" filter="url(#fabdyvw55kam9)" height="99.8203" id="Movable" style="stroke: #A80036; stroke-width: 1.5;" width="80" x="6" y="142"/><ellipse cx="21" cy="158" fill="#A9DCDF" rx="11" ry="11" style="stroke: #A80036; stroke-width: 1.0;"/><path d="M21.1133,153.3481 L19.9595,158.4199 L22.2754,158.4199 Z M19.6191,151.1069 L22.6157,151.1069 L25.9609,163.5 L23.5122,163.5 L22.7485,160.437 L19.4697,160.437 L18.7227,163.5 L16.2739,163.5 Z "/><text fill="#000000" font-family="sans-serif" font-size="12" font-style="italic" lengthAdjust="spacingAndGlyphs" textLength="48" x="35" y="162.5352">Movable</text><line style="stroke: #A80036; stroke-width: 1.5;" x1="7" x2="85" y1="174" y2="174"/><rect fill="none" height="6" style="stroke: #C82930; stroke-width: 1.0;" width="6" x="14" y="182.9775"/><text fill="#000000" font-family="sans-serif" font-size="11" lengthAdjust="spacingAndGlyphs" textLength="13" x="26" y="188.6348">vx</text><rect fill="none" height="6" style="stroke: #C82930; stroke-width: 1.0;" width="6" x="14" y="195.9326"/><text fill="#000000" font-family="sans-serif" font-size="11" lengthAdjust="spacingAndGlyphs" textLength="12" x="26" y="201.5898">vy</text><text fill="#000000" font-family="sans-serif" font-size="11" lengthAdjust="spacingAndGlyphs" textLength="13" x="26" y="214.5449">-x</text><text fill="#000000" font-family="sans-serif" font-size="11" lengthAdjust="spacingAndGlyphs" textLength="12" x="26" y="227.5">-y</text><line style="stroke: #A80036; stroke-width: 1.5;" x1="7" x2="85" y1="233.8203" y2="233.8203"/><!--class Enemy--><rect fill="#FEFECE" filter="url(#fabdyvw55kam9)" height="60.9551" id="Enemy" style="stroke: #A80036; stroke-width: 1.5;" width="74" x="9" y="302"/><ellipse cx="25.8" cy="318" fill="#A9DCDF" rx="11" ry="11" style="stroke: #A80036; stroke-width: 1.0;"/><path d="M25.9133,313.3481 L24.7595,318.4199 L27.0754,318.4199 Z M24.4191,311.1069 L27.4157,311.1069 L30.7609,323.5 L28.3122,323.5 L27.5485,320.437 L24.2697,320.437 L23.5227,323.5 L21.0739,323.5 Z "/><text fill="#000000" font-family="sans-serif" font-size="12" font-style="italic" lengthAdjust="spacingAndGlyphs" textLength="38" x="40.2" y="322.5352">Enemy</text><line style="stroke: #A80036; stroke-width: 1.5;" x1="10" x2="82" y1="334" y2="334"/><rect fill="none" height="6" style="stroke: #C82930; stroke-width: 1.0;" width="6" x="17" y="342.9775"/><text fill="#000000" font-family="sans-serif" font-size="11" lengthAdjust="spacingAndGlyphs" textLength="48" x="29" y="348.6348">objective</text><line style="stroke: #A80036; stroke-width: 1.5;" x1="10" x2="82" y1="354.9551" y2="354.9551"/><!--link Entity to Movable--><path d="M46,102.3863 C46,115.4191 46,129.1628 46,141.867 " fill="none" id="Entity-Movable" style="stroke: #A80036; stroke-width: 1.0;"/><polygon fill="none" points="39.0001,102.0943,46,82.0943,53.0001,102.0943,39.0001,102.0943" style="stroke: #A80036; stroke-width: 1.0;"/><!--link Movable to Enemy--><path d="M46,262.3559 C46,276.1946 46,290.0278 46,301.7074 " fill="none" id="Movable-Enemy" style="stroke: #A80036; stroke-width: 1.0;"/><polygon fill="none" points="39.0001,262.3269,46,242.3269,53.0001,262.3268,39.0001,262.3269" style="stroke: #A80036; stroke-width: 1.0;"/><!--
@startuml

Entity <|- - Movable
/' Entity <|- - Weapon '/
/' abstract Movable <|- - Player '/
Movable <|- - Enemy
/' Game "1" *- - "*" Entity '/
/' Player o- - Weapon : aggregation '/
/' hide members '/
abstract class Entity {
    {abstract} +tick()
    -id
}
abstract class Movable {
    -vx
    -vy
    -x
    -y
}
abstract class Enemy {
    -objective
}
@enduml

PlantUML version 1.2017.19(Sun Nov 12 12:46:22 CET 2017)
(GPL source distribution)
Java Runtime: Java(TM) SE Runtime Environment
JVM: Java HotSpot(TM) 64-Bit Server VM
Java Version: 1.8.0_144-b01
Operating System: Mac OS X
OS Version: 10.13.1
Default Encoding: UTF-8
Language: es
Country: ES
--></g></svg>