<?xml version="1.0" encoding="UTF-8" standalone="no"?><svg xmlns="http://www.w3.org/2000/svg" xmlns:xlink="http://www.w3.org/1999/xlink" contentScriptType="application/ecmascript" contentStyleType="text/css" height="346px" preserveAspectRatio="none" style="width:218px;height:346px;" version="1.1" viewBox="0 0 218 346" width="218px" zoomAndPan="magnify"><defs><filter height="300%" id="fz6jl0txnpxck" width="300%" x="-1" y="-1"><feGaussianBlur result="blurOut" stdDeviation="2.0"/><feColorMatrix in="blurOut" result="blurOut2" type="matrix" values="0 0 0 0 0 0 0 0 0 0 0 0 0 0 0 0 0 0 .4 0"/><feOffset dx="4.0" dy="4.0" in="blurOut2" result="blurOut3"/><feBlend in="SourceGraphic" in2="blurOut3" mode="normal"/></filter></defs><g><!--class Entity--><rect fill="#FEFECE" filter="url(#fz6jl0txnpxck)" height="32" id="Entity" style="stroke: #A80036; stroke-width: 1.5;" width="63" x="90.5" y="8"/><ellipse cx="105.5" cy="24" fill="#ADD1B2" rx="11" ry="11" style="stroke: #A80036; stroke-width: 1.0;"/><path d="M108.4731,29.6431 Q107.8921,29.9419 107.2529,30.0913 Q106.6138,30.2407 105.9082,30.2407 Q103.4014,30.2407 102.0815,28.5889 Q100.7617,26.937 100.7617,23.8159 Q100.7617,20.6865 102.0815,19.0347 Q103.4014,17.3828 105.9082,17.3828 Q106.6138,17.3828 107.2612,17.5322 Q107.9087,17.6816 108.4731,17.9805 L108.4731,20.7031 Q107.8423,20.1221 107.2488,19.8523 Q106.6553,19.5825 106.0244,19.5825 Q104.6797,19.5825 103.9949,20.6492 Q103.3101,21.7158 103.3101,23.8159 Q103.3101,25.9077 103.9949,26.9744 Q104.6797,28.041 106.0244,28.041 Q106.6553,28.041 107.2488,27.7712 Q107.8423,27.5015 108.4731,26.9204 Z "/><text fill="#000000" font-family="sans-serif" font-size="12" lengthAdjust="spacingAndGlyphs" textLength="31" x="119.5" y="28.5352">Entity</text><!--class Movable--><rect fill="#FEFECE" filter="url(#fz6jl0txnpxck)" height="32" id="Movable" style="stroke: #A80036; stroke-width: 1.5;" width="80" x="36" y="101"/><ellipse cx="51" cy="117" fill="#ADD1B2" rx="11" ry="11" style="stroke: #A80036; stroke-width: 1.0;"/><path d="M53.9731,122.6431 Q53.3921,122.9419 52.7529,123.0913 Q52.1138,123.2407 51.4082,123.2407 Q48.9014,123.2407 47.5815,121.5889 Q46.2617,119.937 46.2617,116.8159 Q46.2617,113.6865 47.5815,112.0347 Q48.9014,110.3828 51.4082,110.3828 Q52.1138,110.3828 52.7612,110.5322 Q53.4087,110.6816 53.9731,110.9805 L53.9731,113.7031 Q53.3423,113.1221 52.7488,112.8523 Q52.1553,112.5825 51.5244,112.5825 Q50.1797,112.5825 49.4949,113.6492 Q48.8101,114.7158 48.8101,116.8159 Q48.8101,118.9077 49.4949,119.9744 Q50.1797,121.041 51.5244,121.041 Q52.1553,121.041 52.7488,120.7712 Q53.3423,120.5015 53.9731,119.9204 Z "/><text fill="#000000" font-family="sans-serif" font-size="12" lengthAdjust="spacingAndGlyphs" textLength="48" x="65" y="121.5352">Movable</text><!--class Visible--><rect fill="#FEFECE" filter="url(#fz6jl0txnpxck)" height="32" id="Visible" style="stroke: #A80036; stroke-width: 1.5;" width="70" x="6" y="210"/><ellipse cx="21" cy="226" fill="#ADD1B2" rx="11" ry="11" style="stroke: #A80036; stroke-width: 1.0;"/><path d="M23.9731,231.6431 Q23.3921,231.9419 22.7529,232.0913 Q22.1138,232.2407 21.4082,232.2407 Q18.9014,232.2407 17.5815,230.5889 Q16.2617,228.937 16.2617,225.8159 Q16.2617,222.6865 17.5815,221.0347 Q18.9014,219.3828 21.4082,219.3828 Q22.1138,219.3828 22.7612,219.5322 Q23.4087,219.6816 23.9731,219.9805 L23.9731,222.7031 Q23.3423,222.1221 22.7488,221.8523 Q22.1553,221.5825 21.5244,221.5825 Q20.1797,221.5825 19.4949,222.6492 Q18.8101,223.7158 18.8101,225.8159 Q18.8101,227.9077 19.4949,228.9744 Q20.1797,230.041 21.5244,230.041 Q22.1553,230.041 22.7488,229.7712 Q23.3423,229.5015 23.9731,228.9204 Z "/><text fill="#000000" font-family="sans-serif" font-size="12" lengthAdjust="spacingAndGlyphs" textLength="38" x="35" y="230.5352">Visible</text><!--class Player--><rect fill="#FEFECE" filter="url(#fz6jl0txnpxck)" height="32" id="Player" style="stroke: #A80036; stroke-width: 1.5;" width="67" x="65.5" y="303"/><ellipse cx="80.5" cy="319" fill="#ADD1B2" rx="11" ry="11" style="stroke: #A80036; stroke-width: 1.0;"/><path d="M83.4731,324.6431 Q82.8921,324.9419 82.2529,325.0913 Q81.6138,325.2407 80.9082,325.2407 Q78.4014,325.2407 77.0815,323.5889 Q75.7617,321.937 75.7617,318.8159 Q75.7617,315.6865 77.0815,314.0347 Q78.4014,312.3828 80.9082,312.3828 Q81.6138,312.3828 82.2612,312.5322 Q82.9087,312.6816 83.4731,312.9805 L83.4731,315.7031 Q82.8423,315.1221 82.2488,314.8523 Q81.6553,314.5825 81.0244,314.5825 Q79.6797,314.5825 78.9949,315.6492 Q78.3101,316.7158 78.3101,318.8159 Q78.3101,320.9077 78.9949,321.9744 Q79.6797,323.041 81.0244,323.041 Q81.6553,323.041 82.2488,322.7712 Q82.8423,322.5015 83.4731,321.9204 Z "/><text fill="#000000" font-family="sans-serif" font-size="12" lengthAdjust="spacingAndGlyphs" textLength="35" x="94.5" y="323.5352">Player</text><!--class NoMovable--><rect fill="#FEFECE" filter="url(#fz6jl0txnpxck)" height="32" id="NoMovable" style="stroke: #A80036; stroke-width: 1.5;" width="96" x="111" y="210"/><ellipse cx="126" cy="226" fill="#ADD1B2" rx="11" ry="11" style="stroke: #A80036; stroke-width: 1.0;"/><path d="M128.9731,231.6431 Q128.3921,231.9419 127.7529,232.0913 Q127.1138,232.2407 126.4082,232.2407 Q123.9014,232.2407 122.5815,230.5889 Q121.2617,228.937 121.2617,225.8159 Q121.2617,222.6865 122.5815,221.0347 Q123.9014,219.3828 126.4082,219.3828 Q127.1138,219.3828 127.7612,219.5322 Q128.4087,219.6816 128.9731,219.9805 L128.9731,222.7031 Q128.3423,222.1221 127.7488,221.8523 Q127.1553,221.5825 126.5244,221.5825 Q125.1797,221.5825 124.4949,222.6492 Q123.8101,223.7158 123.8101,225.8159 Q123.8101,227.9077 124.4949,228.9744 Q125.1797,230.041 126.5244,230.041 Q127.1553,230.041 127.7488,229.7712 Q128.3423,229.5015 128.9731,228.9204 Z "/><text fill="#000000" font-family="sans-serif" font-size="12" lengthAdjust="spacingAndGlyphs" textLength="64" x="140" y="230.5352">NoMovable</text><!--link Entity to Movable--><path d="M104.9663,58.4378 C97.7542,73.0186 89.7014,89.2993 83.9208,100.9863 " fill="none" id="Entity-Movable" style="stroke: #A80036; stroke-width: 1.0;"/><polygon fill="none" points="98.8458,55.0228,113.9874,40.1994,111.3947,61.2298,98.8458,55.0228" style="stroke: #A80036; stroke-width: 1.0;"/><!--link Movable to Visible--><path d="M64.6287,152.4134 C58.4173,171.7577 51.0268,194.7738 46.1856,209.8507 " fill="none" id="Movable-Visible" style="stroke: #A80036; stroke-width: 1.0;"/><polygon fill="none" points="58.0562,149.9856,70.8356,133.0833,71.3859,154.2658,58.0562,149.9856" style="stroke: #A80036; stroke-width: 1.0;"/><!--link Visible to Player--><path d="M61.859,259.4463 C71.1078,274.2762 81.5587,291.0337 89.0129,302.9863 " fill="none" id="Visible-Player" style="stroke: #A80036; stroke-width: 1.0;"/><polygon fill="none" points="55.7469,262.8739,51.1028,242.1994,67.626,255.4653,55.7469,262.8739" style="stroke: #A80036; stroke-width: 1.0;"/><!--link Entity to NoMovable--><path d="M128.6057,60.0635 C136.7083,104.2991 150.0956,177.3867 156.0206,209.7339 " fill="none" id="Entity-NoMovable" style="stroke: #A80036; stroke-width: 1.0;"/><polygon fill="none" points="121.6834,61.123,124.9653,40.189,135.4543,58.6005,121.6834,61.123" style="stroke: #A80036; stroke-width: 1.0;"/><!--link NoMovable to Player--><path d="M137.4217,259.4463 C127.854,274.2762 117.0428,291.0337 109.3314,302.9863 " fill="none" id="NoMovable-Player" style="stroke: #A80036; stroke-width: 1.0;"/><polygon fill="none" points="131.8241,255.2104,148.5488,242.1994,143.5883,262.8002,131.8241,255.2104" style="stroke: #A80036; stroke-width: 1.0;"/><!--link Movable to NoMovable--><path d="M79.2214,137.9863 C82.0123,151.0154 87.065,167.5834 96,180 C103.6815,190.6748 114.6006,199.8701 125.1958,207.1723 " fill="none" id="Movable-NoMovable" style="stroke: #A80036; stroke-width: 1.0;"/><polygon fill="#A80036" points="129.3896,209.9792,124.1353,201.649,125.2345,207.1981,119.6854,208.2973,129.3896,209.9792" style="stroke: #A80036; stroke-width: 1.0;"/><polygon fill="#A80036" points="78.2258,133.0028,76.0668,142.6121,79.2055,137.9059,83.9117,141.0446,78.2258,133.0028" style="stroke: #A80036; stroke-width: 1.0;"/><text fill="#000000" font-family="sans-serif" font-size="13" lengthAdjust="spacingAndGlyphs" textLength="45" x="97" y="176.5684">ERROR!</text><!--
@startuml
Entity <|- - Movable
Movable<|- - Visible 
Visible<|- - Player
Entity <|- - NoMovable
NoMovable<|- - Player
Movable <- -> NoMovable : ERROR!
hide members
@enduml

PlantUML version 1.2017.19(Sun Nov 12 12:46:22 CET 2017)
(GPL source distribution)
Java Runtime: Java(TM) SE Runtime Environment
JVM: Java HotSpot(TM) 64-Bit Server VM
Java Version: 1.8.0_144-b01
Operating System: Mac OS X
OS Version: 10.13.1
Default Encoding: UTF-8
Language: es
Country: ES
--></g></svg>