<?xml version="1.0" encoding="UTF-8" standalone="no"?><svg xmlns="http://www.w3.org/2000/svg" xmlns:xlink="http://www.w3.org/1999/xlink" contentScriptType="application/ecmascript" contentStyleType="text/css" height="419px" preserveAspectRatio="none" style="width:423px;height:419px;" version="1.1" viewBox="0 0 423 419" width="423px" zoomAndPan="magnify"><defs><filter height="300%" id="f1g29ad0pdiwiv" width="300%" x="-1" y="-1"><feGaussianBlur result="blurOut" stdDeviation="2.0"/><feColorMatrix in="blurOut" result="blurOut2" type="matrix" values="0 0 0 0 0 0 0 0 0 0 0 0 0 0 0 0 0 0 .4 0"/><feOffset dx="4.0" dy="4.0" in="blurOut2" result="blurOut3"/><feBlend in="SourceGraphic" in2="blurOut3" mode="normal"/></filter></defs><g><!--class Manager--><rect fill="#FEFECE" filter="url(#f1g29ad0pdiwiv)" height="32" id="Manager" style="stroke: #A80036; stroke-width: 1.5;" width="82" x="156" y="192"/><ellipse cx="171" cy="208" fill="#A9DCDF" rx="11" ry="11" style="stroke: #A80036; stroke-width: 1.0;"/><path d="M171.1133,203.3481 L169.9595,208.4199 L172.2754,208.4199 Z M169.6191,201.1069 L172.6157,201.1069 L175.9609,213.5 L173.5122,213.5 L172.7485,210.437 L169.4697,210.437 L168.7227,213.5 L166.2739,213.5 Z "/><text fill="#000000" font-family="sans-serif" font-size="12" font-style="italic" lengthAdjust="spacingAndGlyphs" textLength="50" x="185" y="212.5352">Manager</text><!--class Component--><rect fill="#FEFECE" filter="url(#f1g29ad0pdiwiv)" height="32" id="Component" style="stroke: #A80036; stroke-width: 1.5;" width="98" x="6" y="284"/><ellipse cx="21" cy="300" fill="#A9DCDF" rx="11" ry="11" style="stroke: #A80036; stroke-width: 1.0;"/><path d="M21.1133,295.3481 L19.9595,300.4199 L22.2754,300.4199 Z M19.6191,293.1069 L22.6157,293.1069 L25.9609,305.5 L23.5122,305.5 L22.7485,302.437 L19.4697,302.437 L18.7227,305.5 L16.2739,305.5 Z "/><text fill="#000000" font-family="sans-serif" font-size="12" font-style="italic" lengthAdjust="spacingAndGlyphs" textLength="66" x="35" y="304.5352">Component</text><!--class PhysicsManager--><rect fill="#FEFECE" filter="url(#f1g29ad0pdiwiv)" height="32" id="PhysicsManager" style="stroke: #A80036; stroke-width: 1.5;" width="123" x="289.5" y="284"/><ellipse cx="304.5" cy="300" fill="#ADD1B2" rx="11" ry="11" style="stroke: #A80036; stroke-width: 1.0;"/><path d="M307.4731,305.6431 Q306.8921,305.9419 306.2529,306.0913 Q305.6138,306.2407 304.9082,306.2407 Q302.4014,306.2407 301.0815,304.5889 Q299.7617,302.937 299.7617,299.8159 Q299.7617,296.6865 301.0815,295.0347 Q302.4014,293.3828 304.9082,293.3828 Q305.6138,293.3828 306.2612,293.5322 Q306.9087,293.6816 307.4731,293.9805 L307.4731,296.7031 Q306.8423,296.1221 306.2488,295.8523 Q305.6553,295.5825 305.0244,295.5825 Q303.6797,295.5825 302.9949,296.6492 Q302.3101,297.7158 302.3101,299.8159 Q302.3101,301.9077 302.9949,302.9744 Q303.6797,304.041 305.0244,304.041 Q305.6553,304.041 306.2488,303.7712 Q306.8423,303.5015 307.4731,302.9204 Z "/><text fill="#000000" font-family="sans-serif" font-size="12" lengthAdjust="spacingAndGlyphs" textLength="91" x="318.5" y="304.5352">PhysicsManager</text><!--class AudioManager--><rect fill="#FEFECE" filter="url(#f1g29ad0pdiwiv)" height="32" id="AudioManager" style="stroke: #A80036; stroke-width: 1.5;" width="115" x="139.5" y="284"/><ellipse cx="154.5" cy="300" fill="#ADD1B2" rx="11" ry="11" style="stroke: #A80036; stroke-width: 1.0;"/><path d="M157.4731,305.6431 Q156.8921,305.9419 156.2529,306.0913 Q155.6138,306.2407 154.9082,306.2407 Q152.4014,306.2407 151.0815,304.5889 Q149.7617,302.937 149.7617,299.8159 Q149.7617,296.6865 151.0815,295.0347 Q152.4014,293.3828 154.9082,293.3828 Q155.6138,293.3828 156.2612,293.5322 Q156.9087,293.6816 157.4731,293.9805 L157.4731,296.7031 Q156.8423,296.1221 156.2488,295.8523 Q155.6553,295.5825 155.0244,295.5825 Q153.6797,295.5825 152.9949,296.6492 Q152.3101,297.7158 152.3101,299.8159 Q152.3101,301.9077 152.9949,302.9744 Q153.6797,304.041 155.0244,304.041 Q155.6553,304.041 156.2488,303.7712 Q156.8423,303.5015 157.4731,302.9204 Z "/><text fill="#000000" font-family="sans-serif" font-size="12" lengthAdjust="spacingAndGlyphs" textLength="83" x="168.5" y="304.5352">AudioManager</text><!--class Game--><rect fill="#FEFECE" filter="url(#f1g29ad0pdiwiv)" height="32" id="Game" style="stroke: #A80036; stroke-width: 1.5;" width="66" x="92" y="8"/><ellipse cx="107" cy="24" fill="#ADD1B2" rx="11" ry="11" style="stroke: #A80036; stroke-width: 1.0;"/><path d="M109.9731,29.6431 Q109.3921,29.9419 108.7529,30.0913 Q108.1138,30.2407 107.4082,30.2407 Q104.9014,30.2407 103.5815,28.5889 Q102.2617,26.937 102.2617,23.8159 Q102.2617,20.6865 103.5815,19.0347 Q104.9014,17.3828 107.4082,17.3828 Q108.1138,17.3828 108.7612,17.5322 Q109.4087,17.6816 109.9731,17.9805 L109.9731,20.7031 Q109.3423,20.1221 108.7488,19.8523 Q108.1553,19.5825 107.5244,19.5825 Q106.1797,19.5825 105.4949,20.6492 Q104.8101,21.7158 104.8101,23.8159 Q104.8101,25.9077 105.4949,26.9744 Q106.1797,28.041 107.5244,28.041 Q108.1553,28.041 108.7488,27.7712 Q109.3423,27.5015 109.9731,26.9204 Z "/><text fill="#000000" font-family="sans-serif" font-size="12" lengthAdjust="spacingAndGlyphs" textLength="34" x="121" y="28.5352">Game</text><!--class Scenario--><rect fill="#FEFECE" filter="url(#f1g29ad0pdiwiv)" height="32" id="Scenario" style="stroke: #A80036; stroke-width: 1.5;" width="80" x="39" y="100"/><ellipse cx="54" cy="116" fill="#ADD1B2" rx="11" ry="11" style="stroke: #A80036; stroke-width: 1.0;"/><path d="M56.9731,121.6431 Q56.3921,121.9419 55.7529,122.0913 Q55.1138,122.2407 54.4082,122.2407 Q51.9014,122.2407 50.5815,120.5889 Q49.2617,118.937 49.2617,115.8159 Q49.2617,112.6865 50.5815,111.0347 Q51.9014,109.3828 54.4082,109.3828 Q55.1138,109.3828 55.7612,109.5322 Q56.4087,109.6816 56.9731,109.9805 L56.9731,112.7031 Q56.3423,112.1221 55.7488,111.8523 Q55.1553,111.5825 54.5244,111.5825 Q53.1797,111.5825 52.4949,112.6492 Q51.8101,113.7158 51.8101,115.8159 Q51.8101,117.9077 52.4949,118.9744 Q53.1797,120.041 54.5244,120.041 Q55.1553,120.041 55.7488,119.7712 Q56.3423,119.5015 56.9731,118.9204 Z "/><text fill="#000000" font-family="sans-serif" font-size="12" lengthAdjust="spacingAndGlyphs" textLength="48" x="68" y="120.5352">Scenario</text><!--class Entity--><rect fill="#FEFECE" filter="url(#f1g29ad0pdiwiv)" height="32" id="Entity" style="stroke: #A80036; stroke-width: 1.5;" width="63" x="40.5" y="192"/><ellipse cx="55.5" cy="208" fill="#ADD1B2" rx="11" ry="11" style="stroke: #A80036; stroke-width: 1.0;"/><path d="M58.4731,213.6431 Q57.8921,213.9419 57.2529,214.0913 Q56.6138,214.2407 55.9082,214.2407 Q53.4014,214.2407 52.0815,212.5889 Q50.7617,210.937 50.7617,207.8159 Q50.7617,204.6865 52.0815,203.0347 Q53.4014,201.3828 55.9082,201.3828 Q56.6138,201.3828 57.2612,201.5322 Q57.9087,201.6816 58.4731,201.9805 L58.4731,204.7031 Q57.8423,204.1221 57.2488,203.8523 Q56.6553,203.5825 56.0244,203.5825 Q54.6797,203.5825 53.9949,204.6492 Q53.3101,205.7158 53.3101,207.8159 Q53.3101,209.9077 53.9949,210.9744 Q54.6797,212.041 56.0244,212.041 Q56.6553,212.041 57.2488,211.7712 Q57.8423,211.5015 58.4731,210.9204 Z "/><text fill="#000000" font-family="sans-serif" font-size="12" lengthAdjust="spacingAndGlyphs" textLength="31" x="69.5" y="212.5352">Entity</text><!--class PhysicsComponent--><rect fill="#FEFECE" filter="url(#f1g29ad0pdiwiv)" height="32" id="PhysicsComponent" style="stroke: #A80036; stroke-width: 1.5;" width="139" x="249.5" y="376"/><ellipse cx="264.5" cy="392" fill="#ADD1B2" rx="11" ry="11" style="stroke: #A80036; stroke-width: 1.0;"/><path d="M267.4731,397.6431 Q266.8921,397.9419 266.2529,398.0913 Q265.6138,398.2407 264.9082,398.2407 Q262.4014,398.2407 261.0815,396.5889 Q259.7617,394.937 259.7617,391.8159 Q259.7617,388.6865 261.0815,387.0347 Q262.4014,385.3828 264.9082,385.3828 Q265.6138,385.3828 266.2612,385.5322 Q266.9087,385.6816 267.4731,385.9805 L267.4731,388.7031 Q266.8423,388.1221 266.2488,387.8523 Q265.6553,387.5825 265.0244,387.5825 Q263.6797,387.5825 262.9949,388.6492 Q262.3101,389.7158 262.3101,391.8159 Q262.3101,393.9077 262.9949,394.9744 Q263.6797,396.041 265.0244,396.041 Q265.6553,396.041 266.2488,395.7712 Q266.8423,395.5015 267.4731,394.9204 Z "/><text fill="#000000" font-family="sans-serif" font-size="12" lengthAdjust="spacingAndGlyphs" textLength="107" x="278.5" y="396.5352">PhysicsComponent</text><!--class AudioComponent--><rect fill="#FEFECE" filter="url(#f1g29ad0pdiwiv)" height="32" id="AudioComponent" style="stroke: #A80036; stroke-width: 1.5;" width="131" x="52.5" y="376"/><ellipse cx="67.5" cy="392" fill="#ADD1B2" rx="11" ry="11" style="stroke: #A80036; stroke-width: 1.0;"/><path d="M70.4731,397.6431 Q69.8921,397.9419 69.2529,398.0913 Q68.6138,398.2407 67.9082,398.2407 Q65.4014,398.2407 64.0815,396.5889 Q62.7617,394.937 62.7617,391.8159 Q62.7617,388.6865 64.0815,387.0347 Q65.4014,385.3828 67.9082,385.3828 Q68.6138,385.3828 69.2612,385.5322 Q69.9087,385.6816 70.4731,385.9805 L70.4731,388.7031 Q69.8423,388.1221 69.2488,387.8523 Q68.6553,387.5825 68.0244,387.5825 Q66.6797,387.5825 65.9949,388.6492 Q65.3101,389.7158 65.3101,391.8159 Q65.3101,393.9077 65.9949,394.9744 Q66.6797,396.041 68.0244,396.041 Q68.6553,396.041 69.2488,395.7712 Q69.8423,395.5015 70.4731,394.9204 Z "/><text fill="#000000" font-family="sans-serif" font-size="12" lengthAdjust="spacingAndGlyphs" textLength="99" x="81.5" y="396.5352">AudioComponent</text><!--link Manager to PhysicsManager--><path d="M241.0843,234.3361 C267.8196,250.3078 301.0767,270.1757 323.9659,283.8498 " fill="none" id="Manager-PhysicsManager" style="stroke: #A80036; stroke-width: 1.0;"/><polygon fill="none" points="237.4043,240.2917,223.8248,224.0252,244.5843,228.273,237.4043,240.2917" style="stroke: #A80036; stroke-width: 1.0;"/><!--link Manager to AudioManager--><path d="M197,244.4048 C197,258.0788 197,272.9368 197,283.8498 " fill="none" id="Manager-AudioManager" style="stroke: #A80036; stroke-width: 1.0;"/><polygon fill="none" points="190.0001,244.0252,197,224.0252,204.0001,244.0251,190.0001,244.0252" style="stroke: #A80036; stroke-width: 1.0;"/><!--link Game to Manager--><path d="M136.0475,52.2325 C151.342,91.3184 178.4624,160.6263 190.6996,191.8991 " fill="none" id="Game-Manager" style="stroke: #A80036; stroke-width: 1.0;"/><polygon fill="#A80036" points="131.2636,40.0069,129.7251,47.052,135.6365,51.1818,137.175,44.1367,131.2636,40.0069" style="stroke: #A80036; stroke-width: 1.0;"/><text fill="#000000" font-family="sans-serif" font-size="13" lengthAdjust="spacingAndGlyphs" textLength="8" x="124.0417" y="60.7091">1</text><text fill="#000000" font-family="sans-serif" font-size="13" lengthAdjust="spacingAndGlyphs" textLength="6" x="181.3863" y="181.115">*</text><!--link Game to Scenario--><path d="M111.1361,51.7277 C103.2756,67.4489 93.7149,86.5701 87.0751,99.8498 " fill="none" id="Game-Scenario" style="stroke: #A80036; stroke-width: 1.0;"/><polygon fill="#A80036" points="116.9874,40.0252,110.7264,43.6029,111.6208,50.7583,117.8818,47.1806,116.9874,40.0252" style="stroke: #A80036; stroke-width: 1.0;"/><!--link Scenario to Entity--><path d="M76.783,145.1374 C75.6081,160.5796 74.2092,178.9646 73.2288,191.8498 " fill="none" id="Scenario-Entity" style="stroke: #A80036; stroke-width: 1.0;"/><polygon fill="#A80036" points="77.7807,132.0252,73.337,137.7044,76.8703,143.9906,81.314,138.3114,77.7807,132.0252" style="stroke: #A80036; stroke-width: 1.0;"/><text fill="#000000" font-family="sans-serif" font-size="13" lengthAdjust="spacingAndGlyphs" textLength="8" x="68.0518" y="152.4377">1</text><text fill="#000000" font-family="sans-serif" font-size="13" lengthAdjust="spacingAndGlyphs" textLength="34" x="33.8075" y="181.3418">many</text><!--link Entity to Component--><path d="M66.6159,237.1374 C63.7625,252.5796 60.3652,270.9646 57.9843,283.8498 " fill="none" id="Entity-Component" style="stroke: #A80036; stroke-width: 1.0;"/><polygon fill="#A80036" points="69.0388,224.0252,64.0151,229.1985,66.8582,235.8254,71.8819,230.6522,69.0388,224.0252" style="stroke: #A80036; stroke-width: 1.0;"/><text fill="#000000" font-family="sans-serif" font-size="13" lengthAdjust="spacingAndGlyphs" textLength="8" x="58.7329" y="244.4377">1</text><text fill="#000000" font-family="sans-serif" font-size="13" lengthAdjust="spacingAndGlyphs" textLength="34" x="19.1664" y="273.3418">many</text><!--link Component to PhysicsComponent--><path d="M119.8915,322.6137 C167.248,339.1167 230.3044,361.0909 272.6559,375.8498 " fill="none" id="Component-PhysicsComponent" style="stroke: #A80036; stroke-width: 1.0;"/><polygon fill="none" points="117.5678,329.2169,100.9853,316.0252,122.1749,315.9966,117.5678,329.2169" style="stroke: #A80036; stroke-width: 1.0;"/><!--link Component to AudioComponent--><path d="M77.5796,332.9734 C87.5577,347.5446 98.8373,364.0164 106.9406,375.8498 " fill="none" id="Component-AudioComponent" style="stroke: #A80036; stroke-width: 1.0;"/><polygon fill="none" points="71.4983,336.482,65.9738,316.0252,83.0495,328.5719,71.4983,336.482" style="stroke: #A80036; stroke-width: 1.0;"/><!--link PhysicsManager to PhysicsComponent--><path d="M345.426,316.0252 C340.1357,331.2348 332.1519,354.1882 326.3445,370.8845 " fill="none" id="PhysicsManager-PhysicsComponent" style="stroke: #A80036; stroke-width: 1.0;"/><polygon fill="#A80036" points="324.6175,375.8498,331.3522,368.6634,326.2601,371.1273,323.7962,366.0352,324.6175,375.8498" style="stroke: #A80036; stroke-width: 1.0;"/><!--link AudioManager to AudioComponent--><path d="M183.2393,316.0252 C169.9536,331.497 149.7872,354.982 135.395,371.7425 " fill="none" id="AudioManager-AudioComponent" style="stroke: #A80036; stroke-width: 1.0;"/><polygon fill="#A80036" points="131.8681,375.8498,140.766,371.6277,135.1255,372.0564,134.6967,366.4159,131.8681,375.8498" style="stroke: #A80036; stroke-width: 1.0;"/><!--
@startuml
abstract Manager
abstract Component
Manager <|- - PhysicsManager
Manager <|- - AudioManager
Game "1" *- - "*" Manager
Game *- - Scenario
Scenario "1" *- - "many" Entity
Entity "1" *- - "many" Component
Component <|- - PhysicsComponent
Component <|- - AudioComponent
PhysicsManager - -> PhysicsComponent
AudioManager - -> AudioComponent
hide members
@enduml

PlantUML version 1.2017.16(Sun Sep 03 12:53:37 CEST 2017)
(GPL source distribution)
Java Runtime: Java(TM) SE Runtime Environment
JVM: Java HotSpot(TM) 64-Bit Server VM
Java Version: 1.8.0_144-b01
Operating System: Mac OS X
OS Version: 10.12.6
Default Encoding: UTF-8
Language: es
Country: ES
--></g></svg>