<?xml version="1.0" encoding="UTF-8" standalone="no"?><svg xmlns="http://www.w3.org/2000/svg" xmlns:xlink="http://www.w3.org/1999/xlink" contentScriptType="application/ecmascript" contentStyleType="text/css" height="439px" preserveAspectRatio="none" style="width:228px;height:439px;" version="1.1" viewBox="0 0 228 439" width="228px" zoomAndPan="magnify"><defs><filter height="300%" id="f1szxrufhimpxy" width="300%" x="-1" y="-1"><feGaussianBlur result="blurOut" stdDeviation="2.0"/><feColorMatrix in="blurOut" result="blurOut2" type="matrix" values="0 0 0 0 0 0 0 0 0 0 0 0 0 0 0 0 0 0 .4 0"/><feOffset dx="4.0" dy="4.0" in="blurOut2" result="blurOut3"/><feBlend in="SourceGraphic" in2="blurOut3" mode="normal"/></filter></defs><g><!--class Entity--><rect fill="#FEFECE" filter="url(#f1szxrufhimpxy)" height="32" id="Entity" style="stroke: #A80036; stroke-width: 1.5;" width="63" x="153" y="101"/><ellipse cx="168" cy="117" fill="#A9DCDF" rx="11" ry="11" style="stroke: #A80036; stroke-width: 1.0;"/><path d="M168.1133,112.3481 L166.9595,117.4199 L169.2754,117.4199 Z M166.6191,110.1069 L169.6157,110.1069 L172.9609,122.5 L170.5122,122.5 L169.7485,119.437 L166.4697,119.437 L165.7227,122.5 L163.2739,122.5 Z "/><text fill="#000000" font-family="sans-serif" font-size="12" font-style="italic" lengthAdjust="spacingAndGlyphs" textLength="31" x="182" y="121.5352">Entity</text><!--class Movable--><rect fill="#FEFECE" filter="url(#f1szxrufhimpxy)" height="32" id="Movable" style="stroke: #A80036; stroke-width: 1.5;" width="80" x="98.5" y="194"/><ellipse cx="113.5" cy="210" fill="#A9DCDF" rx="11" ry="11" style="stroke: #A80036; stroke-width: 1.0;"/><path d="M113.6133,205.3481 L112.4595,210.4199 L114.7754,210.4199 Z M112.1191,203.1069 L115.1157,203.1069 L118.4609,215.5 L116.0122,215.5 L115.2485,212.437 L111.9697,212.437 L111.2227,215.5 L108.7739,215.5 Z "/><text fill="#000000" font-family="sans-serif" font-size="12" font-style="italic" lengthAdjust="spacingAndGlyphs" textLength="48" x="127.5" y="214.5352">Movable</text><!--class Weapon--><rect fill="#FEFECE" filter="url(#f1szxrufhimpxy)" height="32" id="Weapon" style="stroke: #A80036; stroke-width: 1.5;" width="78" x="96.5" y="396"/><ellipse cx="111.5" cy="412" fill="#ADD1B2" rx="11" ry="11" style="stroke: #A80036; stroke-width: 1.0;"/><path d="M114.4731,417.6431 Q113.8921,417.9419 113.2529,418.0913 Q112.6138,418.2407 111.9082,418.2407 Q109.4014,418.2407 108.0815,416.5889 Q106.7617,414.937 106.7617,411.8159 Q106.7617,408.6865 108.0815,407.0347 Q109.4014,405.3828 111.9082,405.3828 Q112.6138,405.3828 113.2612,405.5322 Q113.9087,405.6816 114.4731,405.9805 L114.4731,408.7031 Q113.8423,408.1221 113.2488,407.8523 Q112.6553,407.5825 112.0244,407.5825 Q110.6797,407.5825 109.9949,408.6492 Q109.3101,409.7158 109.3101,411.8159 Q109.3101,413.9077 109.9949,414.9744 Q110.6797,416.041 112.0244,416.041 Q112.6553,416.041 113.2488,415.7712 Q113.8423,415.5015 114.4731,414.9204 Z "/><text fill="#000000" font-family="sans-serif" font-size="12" lengthAdjust="spacingAndGlyphs" textLength="46" x="125.5" y="416.5352">Weapon</text><!--class Player--><rect fill="#FEFECE" filter="url(#f1szxrufhimpxy)" height="32" id="Player" style="stroke: #A80036; stroke-width: 1.5;" width="67" x="6" y="287"/><ellipse cx="21" cy="303" fill="#ADD1B2" rx="11" ry="11" style="stroke: #A80036; stroke-width: 1.0;"/><path d="M23.9731,308.6431 Q23.3921,308.9419 22.7529,309.0913 Q22.1138,309.2407 21.4082,309.2407 Q18.9014,309.2407 17.5815,307.5889 Q16.2617,305.937 16.2617,302.8159 Q16.2617,299.6865 17.5815,298.0347 Q18.9014,296.3828 21.4082,296.3828 Q22.1138,296.3828 22.7612,296.5322 Q23.4087,296.6816 23.9731,296.9805 L23.9731,299.7031 Q23.3423,299.1221 22.7488,298.8523 Q22.1553,298.5825 21.5244,298.5825 Q20.1797,298.5825 19.4949,299.6492 Q18.8101,300.7158 18.8101,302.8159 Q18.8101,304.9077 19.4949,305.9744 Q20.1797,307.041 21.5244,307.041 Q22.1553,307.041 22.7488,306.7712 Q23.3423,306.5015 23.9731,305.9204 Z "/><text fill="#000000" font-family="sans-serif" font-size="12" lengthAdjust="spacingAndGlyphs" textLength="35" x="35" y="307.5352">Player</text><!--class Enemy--><rect fill="#FEFECE" filter="url(#f1szxrufhimpxy)" height="32" id="Enemy" style="stroke: #A80036; stroke-width: 1.5;" width="70" x="108.5" y="287"/><ellipse cx="123.5" cy="303" fill="#ADD1B2" rx="11" ry="11" style="stroke: #A80036; stroke-width: 1.0;"/><path d="M126.4731,308.6431 Q125.8921,308.9419 125.2529,309.0913 Q124.6138,309.2407 123.9082,309.2407 Q121.4014,309.2407 120.0815,307.5889 Q118.7617,305.937 118.7617,302.8159 Q118.7617,299.6865 120.0815,298.0347 Q121.4014,296.3828 123.9082,296.3828 Q124.6138,296.3828 125.2612,296.5322 Q125.9087,296.6816 126.4731,296.9805 L126.4731,299.7031 Q125.8423,299.1221 125.2488,298.8523 Q124.6553,298.5825 124.0244,298.5825 Q122.6797,298.5825 121.9949,299.6492 Q121.3101,300.7158 121.3101,302.8159 Q121.3101,304.9077 121.9949,305.9744 Q122.6797,307.041 124.0244,307.041 Q124.6553,307.041 125.2488,306.7712 Q125.8423,306.5015 126.4731,305.9204 Z "/><text fill="#000000" font-family="sans-serif" font-size="12" lengthAdjust="spacingAndGlyphs" textLength="38" x="137.5" y="307.5352">Enemy</text><!--class Game--><rect fill="#FEFECE" filter="url(#f1szxrufhimpxy)" height="32" id="Game" style="stroke: #A80036; stroke-width: 1.5;" width="66" x="151.5" y="8"/><ellipse cx="166.5" cy="24" fill="#ADD1B2" rx="11" ry="11" style="stroke: #A80036; stroke-width: 1.0;"/><path d="M169.4731,29.6431 Q168.8921,29.9419 168.2529,30.0913 Q167.6138,30.2407 166.9082,30.2407 Q164.4014,30.2407 163.0815,28.5889 Q161.7617,26.937 161.7617,23.8159 Q161.7617,20.6865 163.0815,19.0347 Q164.4014,17.3828 166.9082,17.3828 Q167.6138,17.3828 168.2612,17.5322 Q168.9087,17.6816 169.4731,17.9805 L169.4731,20.7031 Q168.8423,20.1221 168.2488,19.8523 Q167.6553,19.5825 167.0244,19.5825 Q165.6797,19.5825 164.9949,20.6492 Q164.3101,21.7158 164.3101,23.8159 Q164.3101,25.9077 164.9949,26.9744 Q165.6797,28.041 167.0244,28.041 Q167.6553,28.041 168.2488,27.7712 Q168.8423,27.5015 169.4731,26.9204 Z "/><text fill="#000000" font-family="sans-serif" font-size="12" lengthAdjust="spacingAndGlyphs" textLength="34" x="180.5" y="28.5352">Game</text><!--link Entity to Movable--><path d="M167.4663,151.4378 C160.2542,166.0186 152.2014,182.2993 146.4208,193.9863 " fill="none" id="Entity-Movable" style="stroke: #A80036; stroke-width: 1.0;"/><polygon fill="none" points="161.3458,148.0228,176.4874,133.1994,173.8947,154.2298,161.3458,148.0228" style="stroke: #A80036; stroke-width: 1.0;"/><!--link Entity to Weapon--><path d="M191.3249,152.8649 C197.9293,193.4787 205.5819,261.4859 195.5,319 C191.6646,340.8797 190.0989,347.0554 178.5,366 C171.7643,377.0015 162.1021,387.6343 153.6424,395.9009 " fill="none" id="Entity-Weapon" style="stroke: #A80036; stroke-width: 1.0;"/><polygon fill="none" points="184.423,154.0335,187.8369,133.1207,198.2095,151.598,184.423,154.0335" style="stroke: #A80036; stroke-width: 1.0;"/><!--link Movable to Player--><path d="M106.5388,240.0241 C89.915,255.6405 70.2602,274.1041 56.5469,286.9863 " fill="none" id="Movable-Player" style="stroke: #A80036; stroke-width: 1.0;"/><polygon fill="none" points="101.8858,234.791,121.2555,226.1994,111.4713,244.9949,101.8858,234.791" style="stroke: #A80036; stroke-width: 1.0;"/><!--link Movable to Enemy--><path d="M140.4454,246.1852 C141.2046,260.3064 142.0357,275.7642 142.639,286.9863 " fill="none" id="Movable-Enemy" style="stroke: #A80036; stroke-width: 1.0;"/><polygon fill="none" points="133.4548,246.5464,139.3709,226.1994,147.4347,245.7947,133.4548,246.5464" style="stroke: #A80036; stroke-width: 1.0;"/><!--link Game to Entity--><path d="M184.5,53.5421 C184.5,69.2592 184.5,87.9713 184.5,100.9863 " fill="none" id="Game-Entity" style="stroke: #A80036; stroke-width: 1.0;"/><polygon fill="#A80036" points="184.5,40.1994,180.5,46.1994,184.5,52.1994,188.5,46.1994,184.5,40.1994" style="stroke: #A80036; stroke-width: 1.0;"/><text fill="#000000" font-family="sans-serif" font-size="13" lengthAdjust="spacingAndGlyphs" textLength="8" x="175.175" y="60.6696">1</text><text fill="#000000" font-family="sans-serif" font-size="13" lengthAdjust="spacingAndGlyphs" textLength="6" x="177.4313" y="90.2332">*</text><!--link Player to Weapon--><path d="M62.2788,328.8634 C80.5845,349.648 105.7257,378.1938 121.2768,395.8507 " fill="none" id="Player-Weapon" style="stroke: #A80036; stroke-width: 1.0;"/><polygon fill="#FFFFFF" points="53.6651,319.0833,54.629,326.2297,61.5963,328.0886,60.6325,320.9422,53.6651,319.0833" style="stroke: #A80036; stroke-width: 1.0;"/><text fill="#000000" font-family="sans-serif" font-size="13" lengthAdjust="spacingAndGlyphs" textLength="75" x="94.5" y="362.5684">aggregation</text><!--
@startuml
abstract Entity
Entity <|- - Movable
Entity <|- - Weapon
abstract Movable
Movable <|- - Player
Movable <|- - Enemy
Game "1" *- - "*" Entity
Player o- - Weapon : aggregation
hide members
@enduml

PlantUML version 1.2017.19(Sun Nov 12 12:46:22 CET 2017)
(GPL source distribution)
Java Runtime: Java(TM) SE Runtime Environment
JVM: Java HotSpot(TM) 64-Bit Server VM
Java Version: 1.8.0_144-b01
Operating System: Mac OS X
OS Version: 10.13.1
Default Encoding: UTF-8
Language: es
Country: ES
--></g></svg>