<?xml version="1.0" encoding="UTF-8" standalone="no"?>
<!DOCTYPE svg PUBLIC "-//W3C//DTD SVG 1.1//EN"
 "http://www.w3.org/Graphics/SVG/1.1/DTD/svg11.dtd">
<!-- Generated by graphviz version 2.40.1 (20161225.0304)
 -->
<!-- Title: nodos Pages: 1 -->
<svg width="326pt" height="98pt"
 viewBox="0.00 0.00 326.25 98.00" xmlns="http://www.w3.org/2000/svg" xmlns:xlink="http://www.w3.org/1999/xlink">
<g id="graph0" class="graph" transform="scale(1 1) rotate(0) translate(4 94)">
<title>nodos</title>
<g id="clust1" class="cluster">
<title>cluster_0</title>
<polygon fill="transparent" stroke="#000000" points="8,-8 8,-82 310.2545,-82 310.2545,-8 8,-8"/>
<text text-anchor="middle" x="159.1273" y="-66.8" font-family="Times,serif" font-size="14.00" fill="#000000">audio</text>
</g>
<!-- oscillator -->
<g id="node1" class="node">
<title>oscillator</title>
<ellipse fill="none" stroke="#000000" cx="59.015" cy="-34" rx="43.0301" ry="18"/>
<text text-anchor="middle" x="59.015" y="-29.8" font-family="Times,serif" font-size="14.00" fill="#000000">oscillator</text>
</g>
<!-- gain -->
<g id="node2" class="node">
<title>gain</title>
<ellipse fill="none" stroke="#000000" cx="165.0301" cy="-34" rx="27" ry="18"/>
<text text-anchor="middle" x="165.0301" y="-29.8" font-family="Times,serif" font-size="14.00" fill="#000000">gain</text>
</g>
<!-- oscillator&#45;&gt;gain -->
<g id="edge1" class="edge">
<title>oscillator&#45;&gt;gain</title>
<path fill="none" stroke="#000000" d="M102.1354,-34C110.6,-34 119.4132,-34 127.6701,-34"/>
<polygon fill="#000000" stroke="#000000" points="127.7631,-37.5001 137.763,-34 127.763,-30.5001 127.7631,-37.5001"/>
</g>
<!-- speaker -->
<g id="node3" class="node">
<title>speaker</title>
<ellipse fill="none" stroke="#000000" cx="265.1423" cy="-34" rx="37.2248" ry="18"/>
<text text-anchor="middle" x="265.1423" y="-29.8" font-family="Times,serif" font-size="14.00" fill="#000000">speaker</text>
</g>
<!-- gain&#45;&gt;speaker -->
<g id="edge2" class="edge">
<title>gain&#45;&gt;speaker</title>
<path fill="none" stroke="#000000" d="M192.1219,-34C200.0299,-34 208.9142,-34 217.6914,-34"/>
<polygon fill="#000000" stroke="#000000" points="217.8809,-37.5001 227.8809,-34 217.8809,-30.5001 217.8809,-37.5001"/>
</g>
</g>
</svg>
