<?xml version="1.0" encoding="UTF-8" standalone="no"?>
<!DOCTYPE svg PUBLIC "-//W3C//DTD SVG 1.1//EN"
 "http://www.w3.org/Graphics/SVG/1.1/DTD/svg11.dtd">
<!-- Generated by graphviz version 2.38.0 (20140413.2041)
 -->
<!-- Title: %3 Pages: 1 -->
<svg width="768pt" height="78pt"
 viewBox="0.00 0.00 768.49 77.50" xmlns="http://www.w3.org/2000/svg" xmlns:xlink="http://www.w3.org/1999/xlink">
<g id="graph0" class="graph" transform="scale(1 1) rotate(0) translate(4 73.5)">
<title>%3</title>
<!-- compilador -->
<g id="node1" class="node"><title>compilador</title>
<ellipse fill="none" stroke="black" cx="359.995" cy="-18.5" rx="51.9908" ry="18"/>
<text text-anchor="middle" x="359.995" y="-14.8" font-family="Times New Roman,serif" font-size="14.00">compilador</text>
</g>
<!-- compilador&#45;&gt;compilador -->
<g id="edge2" class="edge"><title>compilador&#45;&gt;compilador</title>
<path fill="none" stroke="black" d="M333.75,-34.416C326.903,-44.6504 335.652,-54.5 359.995,-54.5 375.971,-54.5 385.23,-50.2581 387.773,-44.4494"/>
<polygon fill="black" stroke="black" points="391.211,-43.773 386.241,-34.416 384.291,-44.8298 391.211,-43.773"/>
<text text-anchor="middle" x="359.995" y="-58.3" font-family="Times New Roman,serif" font-size="14.00">(2) todo se transforma en código máquina</text>
</g>
<!-- processor -->
<g id="node2" class="node"><title>processor</title>
<ellipse fill="none" stroke="black" cx="675.986" cy="-18.5" rx="51.9908" ry="18"/>
<text text-anchor="middle" x="675.986" y="-14.8" font-family="Times New Roman,serif" font-size="14.00">procesador</text>
</g>
<!-- compilador&#45;&gt;processor -->
<g id="edge3" class="edge"><title>compilador&#45;&gt;processor</title>
<path fill="none" stroke="black" d="M412.142,-18.5C467.224,-18.5 554.843,-18.5 613.603,-18.5"/>
<polygon fill="black" stroke="black" points="613.861,-22.0001 623.861,-18.5 613.861,-15.0001 613.861,-22.0001"/>
<text text-anchor="middle" x="517.991" y="-22.3" font-family="Times New Roman,serif" font-size="14.00">(3) todo se envía al procesador</text>
</g>
<!-- processor&#45;&gt;processor -->
<g id="edge4" class="edge"><title>processor&#45;&gt;processor</title>
<path fill="none" stroke="black" d="M649.314,-34.0414C641.806,-44.4087 650.697,-54.5 675.986,-54.5 692.582,-54.5 702.116,-50.154 704.587,-44.2362"/>
<polygon fill="black" stroke="black" points="707.957,-43.2163 702.658,-34.0414 701.079,-44.5179 707.957,-43.2163"/>
<text text-anchor="middle" x="675.986" y="-58.3" font-family="Times New Roman,serif" font-size="14.00">(4) el procesador ejecuta todo</text>
</g>
<!-- program -->
<g id="node3" class="node"><title>program</title>
<polygon fill="none" stroke="black" points="0,-0.5 0,-36.5 106,-36.5 106,-0.5 0,-0.5"/>
<text text-anchor="middle" x="13" y="-14.8" font-family="Times New Roman,serif" font-size="14.00">A</text>
<polyline fill="none" stroke="black" points="26,-0.5 26,-36.5 "/>
<text text-anchor="middle" x="39" y="-14.8" font-family="Times New Roman,serif" font-size="14.00">B</text>
<polyline fill="none" stroke="black" points="52,-0.5 52,-36.5 "/>
<text text-anchor="middle" x="65" y="-14.8" font-family="Times New Roman,serif" font-size="14.00">C</text>
<polyline fill="none" stroke="black" points="78,-0.5 78,-36.5 "/>
<text text-anchor="middle" x="92" y="-14.8" font-family="Times New Roman,serif" font-size="14.00">...</text>
</g>
<!-- program&#45;&gt;compilador -->
<g id="edge1" class="edge"><title>program&#45;&gt;compilador</title>
<path fill="none" stroke="black" d="M106.084,-18.5C159.18,-18.5 241.511,-18.5 297.712,-18.5"/>
<polygon fill="black" stroke="black" points="297.889,-22.0001 307.889,-18.5 297.889,-15.0001 297.889,-22.0001"/>
<text text-anchor="middle" x="207" y="-22.3" font-family="Times New Roman,serif" font-size="14.00">(1) todo el programa se envía</text>
</g>
</g>
</svg>
