<?xml version="1.0" encoding="UTF-8" standalone="no"?>
<!DOCTYPE svg PUBLIC "-//W3C//DTD SVG 1.1//EN"
 "http://www.w3.org/Graphics/SVG/1.1/DTD/svg11.dtd">
<!-- Generated by graphviz version 2.40.1 (20161225.0304)
 -->
<!-- Title: %3 Pages: 1 -->
<svg width="753pt" height="77pt"
 viewBox="0.00 0.00 752.78 76.50" xmlns="http://www.w3.org/2000/svg" xmlns:xlink="http://www.w3.org/1999/xlink">
<g id="graph0" class="graph" transform="scale(1 1) rotate(0) translate(4 72.5)">
<title>%3</title>
<!-- compilador -->
<g id="node1" class="node">
<title>compilador</title>
<ellipse fill="none" stroke="#000000" cx="354.1063" cy="-18.5" rx="50.2637" ry="18"/>
<text text-anchor="middle" x="354.1063" y="-14.3" font-family="Times,serif" font-size="14.00" fill="#000000">compilador</text>
</g>
<!-- compilador&#45;&gt;compilador -->
<g id="edge2" class="edge">
<title>compilador&#45;&gt;compilador</title>
<path fill="none" stroke="#000000" d="M328.4601,-34.0414C321.2412,-44.4087 329.7899,-54.5 354.1063,-54.5 370.064,-54.5 379.231,-50.154 381.6076,-44.2362"/>
<polygon fill="#000000" stroke="#000000" points="384.9863,-43.2533 379.7525,-34.0414 378.0993,-44.5065 384.9863,-43.2533"/>
<text text-anchor="middle" x="354.1063" y="-57.3" font-family="Times,serif" font-size="14.00" fill="#000000">(2) todo se transforma en código máquina</text>
</g>
<!-- processor -->
<g id="node2" class="node">
<title>processor</title>
<ellipse fill="none" stroke="#000000" cx="661.5996" cy="-18.5" rx="48.8014" ry="18"/>
<text text-anchor="middle" x="661.5996" y="-14.3" font-family="Times,serif" font-size="14.00" fill="#000000">procesador</text>
</g>
<!-- compilador&#45;&gt;processor -->
<g id="edge3" class="edge">
<title>compilador&#45;&gt;processor</title>
<path fill="none" stroke="#000000" d="M404.5383,-18.5C458.8651,-18.5 545.2239,-18.5 602.648,-18.5"/>
<polygon fill="#000000" stroke="#000000" points="602.6654,-22.0001 612.6653,-18.5 602.6653,-15.0001 602.6654,-22.0001"/>
<text text-anchor="middle" x="508.5935" y="-21.3" font-family="Times,serif" font-size="14.00" fill="#000000">(3) todo se envía al procesador</text>
</g>
<!-- processor&#45;&gt;processor -->
<g id="edge4" class="edge">
<title>processor&#45;&gt;processor</title>
<path fill="none" stroke="#000000" d="M635.6115,-34.0414C628.2963,-44.4087 636.959,-54.5 661.5996,-54.5 677.77,-54.5 687.0593,-50.154 689.4675,-44.2362"/>
<polygon fill="#000000" stroke="#000000" points="692.8431,-43.241 687.5878,-34.0414 685.9591,-44.5104 692.8431,-43.241"/>
<text text-anchor="middle" x="661.5996" y="-57.3" font-family="Times,serif" font-size="14.00" fill="#000000">(4) el procesador ejecuta todo</text>
</g>
<!-- program -->
<g id="node3" class="node">
<title>program</title>
<polygon fill="none" stroke="#000000" points="0,-.5 0,-36.5 103.2861,-36.5 103.2861,-.5 0,-.5"/>
<text text-anchor="middle" x="13.0552" y="-14.3" font-family="Times,serif" font-size="14.00" fill="#000000">A</text>
<polyline fill="none" stroke="#000000" points="26.1104,-.5 26.1104,-36.5 "/>
<text text-anchor="middle" x="38.7793" y="-14.3" font-family="Times,serif" font-size="14.00" fill="#000000">B</text>
<polyline fill="none" stroke="#000000" points="51.4482,-.5 51.4482,-36.5 "/>
<text text-anchor="middle" x="64.1172" y="-14.3" font-family="Times,serif" font-size="14.00" fill="#000000">C</text>
<polyline fill="none" stroke="#000000" points="76.7861,-.5 76.7861,-36.5 "/>
<text text-anchor="middle" x="90.0361" y="-14.3" font-family="Times,serif" font-size="14.00" fill="#000000">...</text>
</g>
<!-- program&#45;&gt;compilador -->
<g id="edge1" class="edge">
<title>program&#45;&gt;compilador</title>
<path fill="none" stroke="#000000" d="M103.2947,-18.5C156.0291,-18.5 237.8434,-18.5 293.5834,-18.5"/>
<polygon fill="#000000" stroke="#000000" points="293.675,-22.0001 303.675,-18.5 293.675,-15.0001 293.675,-22.0001"/>
<text text-anchor="middle" x="203.5054" y="-21.3" font-family="Times,serif" font-size="14.00" fill="#000000">(1) todo el programa se envía</text>
</g>
</g>
</svg>
