<?xml version="1.0" encoding="UTF-8" standalone="no"?>
<!DOCTYPE svg PUBLIC "-//W3C//DTD SVG 1.1//EN"
 "http://www.w3.org/Graphics/SVG/1.1/DTD/svg11.dtd">
<!-- Generated by graphviz version 2.38.0 (20140413.2041)
 -->
<!-- Title: %3 Pages: 1 -->
<svg width="749pt" height="78pt"
 viewBox="0.00 0.00 748.59 77.50" xmlns="http://www.w3.org/2000/svg" xmlns:xlink="http://www.w3.org/1999/xlink">
<g id="graph0" class="graph" transform="scale(1 1) rotate(0) translate(4 73.5)">
<title>%3</title>
<!-- compilador -->
<g id="node1" class="node"><title>compilador</title>
<ellipse fill="none" stroke="black" cx="354.345" cy="-18.5" rx="51.1914" ry="18"/>
<text text-anchor="middle" x="354.345" y="-14.8" font-family="Times,serif" font-size="14.00">compilador</text>
</g>
<!-- compilador&#45;&gt;compilador -->
<g id="edge2" class="edge"><title>compilador&#45;&gt;compilador</title>
<path fill="none" stroke="black" d="M328.791,-34.416C322.124,-44.6504 330.642,-54.5 354.345,-54.5 369.901,-54.5 378.916,-50.2581 381.392,-44.4494"/>
<polygon fill="black" stroke="black" points="384.833,-43.7925 379.9,-34.416 377.909,-44.8221 384.833,-43.7925"/>
<text text-anchor="middle" x="354.345" y="-58.3" font-family="Times,serif" font-size="14.00">(2) todo se transforma en código máquina</text>
</g>
<!-- processor -->
<g id="node2" class="node"><title>processor</title>
<ellipse fill="none" stroke="black" cx="659.087" cy="-18.5" rx="49.2915" ry="18"/>
<text text-anchor="middle" x="659.087" y="-14.8" font-family="Times,serif" font-size="14.00">procesador</text>
</g>
<!-- compilador&#45;&gt;processor -->
<g id="edge3" class="edge"><title>compilador&#45;&gt;processor</title>
<path fill="none" stroke="black" d="M406.017,-18.5C459.261,-18.5 542.925,-18.5 599.101,-18.5"/>
<polygon fill="black" stroke="black" points="599.257,-22.0001 609.257,-18.5 599.257,-15.0001 599.257,-22.0001"/>
<text text-anchor="middle" x="507.691" y="-22.3" font-family="Times,serif" font-size="14.00">(3) todo se envía al procesador</text>
</g>
<!-- processor&#45;&gt;processor -->
<g id="edge4" class="edge"><title>processor&#45;&gt;processor</title>
<path fill="none" stroke="black" d="M633.44,-34.0414C626.221,-44.4087 634.77,-54.5 659.087,-54.5 675.044,-54.5 684.211,-50.154 686.588,-44.2362"/>
<polygon fill="black" stroke="black" points="689.966,-43.2533 684.733,-34.0414 683.08,-44.5065 689.966,-43.2533"/>
<text text-anchor="middle" x="659.087" y="-58.3" font-family="Times,serif" font-size="14.00">(4) el procesador ejecuta todo</text>
</g>
<!-- program -->
<g id="node3" class="node"><title>program</title>
<polygon fill="none" stroke="black" points="0,-0.5 0,-36.5 106,-36.5 106,-0.5 0,-0.5"/>
<text text-anchor="middle" x="13" y="-14.8" font-family="Times,serif" font-size="14.00">A</text>
<polyline fill="none" stroke="black" points="26,-0.5 26,-36.5 "/>
<text text-anchor="middle" x="39" y="-14.8" font-family="Times,serif" font-size="14.00">B</text>
<polyline fill="none" stroke="black" points="52,-0.5 52,-36.5 "/>
<text text-anchor="middle" x="65" y="-14.8" font-family="Times,serif" font-size="14.00">C</text>
<polyline fill="none" stroke="black" points="78,-0.5 78,-36.5 "/>
<text text-anchor="middle" x="92" y="-14.8" font-family="Times,serif" font-size="14.00">...</text>
</g>
<!-- program&#45;&gt;compilador -->
<g id="edge1" class="edge"><title>program&#45;&gt;compilador</title>
<path fill="none" stroke="black" d="M106.142,-18.5C158.073,-18.5 237.749,-18.5 292.531,-18.5"/>
<polygon fill="black" stroke="black" points="292.798,-22.0001 302.798,-18.5 292.798,-15.0001 292.798,-22.0001"/>
<text text-anchor="middle" x="204.5" y="-22.3" font-family="Times,serif" font-size="14.00">(1) todo el programa se envía</text>
</g>
</g>
</svg>
