<?xml version="1.0" encoding="UTF-8" standalone="no"?>
<!DOCTYPE svg PUBLIC "-//W3C//DTD SVG 1.1//EN"
 "http://www.w3.org/Graphics/SVG/1.1/DTD/svg11.dtd">
<!-- Generated by graphviz version 2.40.1 (20161225.0304)
 -->
<!-- Title: %3 Pages: 1 -->
<svg width="617pt" height="138pt"
 viewBox="0.00 0.00 617.47 138.28" xmlns="http://www.w3.org/2000/svg" xmlns:xlink="http://www.w3.org/1999/xlink">
<g id="graph0" class="graph" transform="scale(1 1) rotate(0) translate(4 134.284)">
<title>%3</title>
<!-- interpreter -->
<g id="node1" class="node">
<title>interpreter</title>
<ellipse fill="none" stroke="#000000" cx="271.9144" cy="-60.284" rx="43.9732" ry="18"/>
<text text-anchor="middle" x="271.9144" y="-56.084" font-family="Times,serif" font-size="14.00" fill="#000000">intérprete</text>
</g>
<!-- interpreter&#45;&gt;interpreter -->
<g id="edge3" class="edge">
<title>interpreter&#45;&gt;interpreter</title>
<path fill="none" stroke="#000000" d="M253.2815,-76.948C249.1409,-86.909 255.3519,-96.284 271.9144,-96.284 282.5247,-96.284 288.8868,-92.4365 291.0006,-87.0522"/>
<polygon fill="#000000" stroke="#000000" points="294.492,-86.7811 290.5472,-76.948 287.499,-87.0949 294.492,-86.7811"/>
<text text-anchor="middle" x="271.9144" y="-99.084" font-family="Times,serif" font-size="14.00" fill="#000000">(2) A se transforma en M</text>
</g>
<!-- processor -->
<g id="node2" class="node">
<title>processor</title>
<ellipse fill="none" stroke="#000000" cx="560.5711" cy="-60.284" rx="48.8014" ry="18"/>
<text text-anchor="middle" x="560.5711" y="-56.084" font-family="Times,serif" font-size="14.00" fill="#000000">procesador</text>
</g>
<!-- interpreter&#45;&gt;processor -->
<g id="edge4" class="edge">
<title>interpreter&#45;&gt;processor</title>
<path fill="none" stroke="#000000" d="M316.0693,-60.284C365.6249,-60.284 446.2707,-60.284 501.2876,-60.284"/>
<polygon fill="#000000" stroke="#000000" points="501.5904,-63.7841 511.5904,-60.284 501.5904,-56.7841 501.5904,-63.7841"/>
<text text-anchor="middle" x="413.7857" y="-63.084" font-family="Times,serif" font-size="14.00" fill="#000000">(3) M se envía al procesador</text>
</g>
<!-- program -->
<g id="node3" class="node">
<title>program</title>
<polygon fill="none" stroke="#000000" points="0,-42.284 0,-78.284 103.2861,-78.284 103.2861,-42.284 0,-42.284"/>
<text text-anchor="middle" x="13.0552" y="-56.084" font-family="Times,serif" font-size="14.00" fill="#000000">A</text>
<polyline fill="none" stroke="#000000" points="26.1104,-42.284 26.1104,-78.284 "/>
<text text-anchor="middle" x="38.7793" y="-56.084" font-family="Times,serif" font-size="14.00" fill="#000000">B</text>
<polyline fill="none" stroke="#000000" points="51.4482,-42.284 51.4482,-78.284 "/>
<text text-anchor="middle" x="64.1172" y="-56.084" font-family="Times,serif" font-size="14.00" fill="#000000">C</text>
<polyline fill="none" stroke="#000000" points="76.7861,-42.284 76.7861,-78.284 "/>
<text text-anchor="middle" x="90.0361" y="-56.084" font-family="Times,serif" font-size="14.00" fill="#000000">...</text>
</g>
<!-- program&#45;&gt;interpreter -->
<g id="edge1" class="edge">
<title>program:f1&#45;&gt;interpreter</title>
<path fill="none" stroke="#000000" d="M12.6431,-78.284C12.6431,-165.9433 161.9634,-110.1874 233.9668,-78.2057"/>
<polygon fill="#000000" stroke="#000000" points="235.497,-81.3552 243.1772,-74.0569 232.622,-74.9729 235.497,-81.3552"/>
<text text-anchor="middle" x="165.6069" y="-119.084" font-family="Times,serif" font-size="14.00" fill="#000000">(1) A se envía</text>
</g>
<!-- program&#45;&gt;interpreter -->
<g id="edge2" class="edge">
<title>program:f2&#45;&gt;interpreter</title>
<path fill="none" stroke="#000000" d="M38.6431,-42.284C38.6431,35.1457 167.9855,-12.7179 234.0462,-42.2133"/>
<polygon fill="#000000" stroke="#000000" points="232.7579,-45.4722 243.3107,-46.4148 235.649,-39.0971 232.7579,-45.4722"/>
<text text-anchor="middle" x="165.6069" y="-35.084" font-family="Times,serif" font-size="14.00" fill="#000000">(4) B se envía...</text>
</g>
</g>
</svg>
