<?xml version="1.0" encoding="UTF-8" standalone="no"?>
<!DOCTYPE svg PUBLIC "-//W3C//DTD SVG 1.1//EN"
 "http://www.w3.org/Graphics/SVG/1.1/DTD/svg11.dtd">
<!-- Generated by graphviz version 2.38.0 (20140413.2041)
 -->
<!-- Title: %3 Pages: 1 -->
<svg width="630pt" height="142pt"
 viewBox="0.00 0.00 630.38 141.64" xmlns="http://www.w3.org/2000/svg" xmlns:xlink="http://www.w3.org/1999/xlink">
<g id="graph0" class="graph" transform="scale(1 1) rotate(0) translate(4 137.637)">
<title>%3</title>
<!-- interpreter -->
<g id="node1" class="node"><title>interpreter</title>
<ellipse fill="none" stroke="black" cx="276.196" cy="-61.6367" rx="44.393" ry="18"/>
<text text-anchor="middle" x="276.196" y="-57.9367" font-family="Times New Roman,serif" font-size="14.00">intérprete</text>
</g>
<!-- interpreter&#45;&gt;interpreter -->
<g id="edge3" class="edge"><title>interpreter&#45;&gt;interpreter</title>
<path fill="none" stroke="black" d="M257.563,-78.3007C253.423,-88.2617 259.634,-97.6367 276.196,-97.6367 286.806,-97.6367 293.168,-93.7892 295.282,-88.4049"/>
<polygon fill="black" stroke="black" points="298.774,-88.1338 294.829,-78.3007 291.781,-88.4476 298.774,-88.1338"/>
<text text-anchor="middle" x="276.196" y="-101.437" font-family="Times New Roman,serif" font-size="14.00">(2) A se transforma en M</text>
</g>
<!-- processor -->
<g id="node2" class="node"><title>processor</title>
<ellipse fill="none" stroke="black" cx="570.388" cy="-61.6367" rx="51.9908" ry="18"/>
<text text-anchor="middle" x="570.388" y="-57.9367" font-family="Times New Roman,serif" font-size="14.00">procesador</text>
</g>
<!-- interpreter&#45;&gt;processor -->
<g id="edge4" class="edge"><title>interpreter&#45;&gt;processor</title>
<path fill="none" stroke="black" d="M320.625,-61.6367C370.312,-61.6367 452.036,-61.6367 508.168,-61.6367"/>
<polygon fill="black" stroke="black" points="508.338,-65.1368 518.338,-61.6367 508.338,-58.1368 508.338,-65.1368"/>
<text text-anchor="middle" x="419.392" y="-65.4367" font-family="Times New Roman,serif" font-size="14.00">(3) M se envía al procesador</text>
</g>
<!-- program -->
<g id="node3" class="node"><title>program</title>
<polygon fill="none" stroke="black" points="0,-43.6367 0,-79.6367 106,-79.6367 106,-43.6367 0,-43.6367"/>
<text text-anchor="middle" x="13" y="-57.9367" font-family="Times New Roman,serif" font-size="14.00">A</text>
<polyline fill="none" stroke="black" points="26,-43.6367 26,-79.6367 "/>
<text text-anchor="middle" x="39" y="-57.9367" font-family="Times New Roman,serif" font-size="14.00">B</text>
<polyline fill="none" stroke="black" points="52,-43.6367 52,-79.6367 "/>
<text text-anchor="middle" x="65" y="-57.9367" font-family="Times New Roman,serif" font-size="14.00">C</text>
<polyline fill="none" stroke="black" points="78,-43.6367 78,-79.6367 "/>
<text text-anchor="middle" x="92" y="-57.9367" font-family="Times New Roman,serif" font-size="14.00">...</text>
</g>
<!-- program&#45;&gt;interpreter -->
<g id="edge1" class="edge"><title>program:f1&#45;&gt;interpreter</title>
<path fill="none" stroke="black" d="M13,-80.6367C13,-169.631 165.123,-112.028 237.624,-79.5206"/>
<polygon fill="black" stroke="black" points="239.233,-82.6342 246.887,-75.3093 236.335,-76.2618 239.233,-82.6342"/>
<text text-anchor="middle" x="169" y="-122.437" font-family="Times New Roman,serif" font-size="14.00">(1) A se envía</text>
</g>
<!-- program&#45;&gt;interpreter -->
<g id="edge2" class="edge"><title>program:f2&#45;&gt;interpreter</title>
<path fill="none" stroke="black" d="M39,-42.6367C39,36.1761 171.277,-13.6111 237.852,-43.6598"/>
<polygon fill="black" stroke="black" points="236.625,-46.9475 247.174,-47.9323 239.541,-40.584 236.625,-46.9475"/>
<text text-anchor="middle" x="169" y="-36.4367" font-family="Times New Roman,serif" font-size="14.00">(4) B se envía...</text>
</g>
</g>
</svg>
