<?xml version="1.0" encoding="UTF-8" standalone="no"?>
<!DOCTYPE svg PUBLIC "-//W3C//DTD SVG 1.1//EN"
 "http://www.w3.org/Graphics/SVG/1.1/DTD/svg11.dtd">
<!-- Generated by graphviz version 2.38.0 (20140413.2041)
 -->
<!-- Title: %3 Pages: 1 -->
<svg width="558pt" height="116pt"
 viewBox="0.00 0.00 558.38 116.00" xmlns="http://www.w3.org/2000/svg" xmlns:xlink="http://www.w3.org/1999/xlink">
<g id="graph0" class="graph" transform="scale(1 1) rotate(0) translate(4 112)">
<title>%3</title>
<!-- processor -->
<g id="node1" class="node"><title>processor</title>
<polygon fill="none" stroke="black" points="536.879,-36 460.879,-36 460.879,-0 536.879,-0 536.879,-36"/>
<text text-anchor="middle" x="498.879" y="-14.3" font-family="Times,serif" font-size="14.00">procesador</text>
</g>
<!-- vm -->
<g id="node2" class="node"><title>vm</title>
<polygon fill="none" stroke="black" points="550.379,-108 447.379,-108 447.379,-72 550.379,-72 550.379,-108"/>
<text text-anchor="middle" x="498.879" y="-86.3" font-family="Times,serif" font-size="14.00">máquina virtual</text>
</g>
<!-- vm&#45;&gt;processor -->
<g id="edge4" class="edge"><title>vm&#45;&gt;processor</title>
<path fill="none" stroke="black" d="M498.879,-71.5867C498.879,-63.9407 498.879,-54.8916 498.879,-46.4274"/>
<polygon fill="black" stroke="black" points="502.38,-46.1686 498.879,-36.1686 495.38,-46.1687 502.38,-46.1686"/>
<text text-anchor="middle" x="488.379" y="-50.3" font-family="Times,serif" font-size="14.00">ejecuta programa en</text>
</g>
<!-- compile -->
<g id="node3" class="node"><title>compile</title>
<ellipse fill="none" stroke="black" cx="284.535" cy="-31" rx="57.6901" ry="18"/>
<text text-anchor="middle" x="284.535" y="-27.3" font-family="Times,serif" font-size="14.00">código objeto</text>
</g>
<!-- compile&#45;&gt;processor -->
<g id="edge2" class="edge"><title>compile&#45;&gt;processor</title>
<path fill="none" stroke="black" d="M341.603,-27.5674C375.531,-25.4903 418.316,-22.871 450.537,-20.8984"/>
<polygon fill="black" stroke="black" points="450.835,-24.3868 460.602,-20.2822 450.407,-17.3999 450.835,-24.3868"/>
<text text-anchor="middle" x="394.879" y="-30.8" font-family="Times,serif" font-size="14.00">ejecutado en</text>
</g>
<!-- source -->
<g id="node4" class="node"><title>source</title>
<ellipse fill="none" stroke="black" cx="57.8449" cy="-65" rx="57.6901" ry="18"/>
<text text-anchor="middle" x="57.8449" y="-61.3" font-family="Times,serif" font-size="14.00">código fuente</text>
</g>
<!-- source&#45;&gt;vm -->
<g id="edge3" class="edge"><title>source&#45;&gt;vm</title>
<path fill="none" stroke="black" d="M112.367,-71.1139C119.53,-71.8169 126.784,-72.4702 133.69,-73 240.16,-81.1678 364.462,-85.9532 436.856,-88.2671"/>
<polygon fill="black" stroke="black" points="437.047,-91.7747 447.153,-88.5906 437.267,-84.7782 437.047,-91.7747"/>
<text text-anchor="middle" x="284.535" y="-88.8" font-family="Times,serif" font-size="14.00">interpretado por</text>
</g>
<!-- source&#45;&gt;compile -->
<g id="edge1" class="edge"><title>source&#45;&gt;compile</title>
<path fill="none" stroke="black" d="M110.112,-57.2423C143.355,-52.2119 186.85,-45.6303 221.964,-40.3169"/>
<polygon fill="black" stroke="black" points="222.736,-43.74 232.1,-38.7831 221.688,-36.8188 222.736,-43.74"/>
<text text-anchor="middle" x="171.19" y="-57.8" font-family="Times,serif" font-size="14.00">compilado en</text>
</g>
</g>
</svg>
