<?xml version="1.0" encoding="UTF-8" standalone="no"?>
<!DOCTYPE svg PUBLIC "-//W3C//DTD SVG 1.1//EN"
 "http://www.w3.org/Graphics/SVG/1.1/DTD/svg11.dtd">
<!-- Generated by graphviz version 2.38.0 (20140413.2041)
 -->
<!-- Title: %3 Pages: 1 -->
<svg width="571pt" height="116pt"
 viewBox="0.00 0.00 571.38 116.00" xmlns="http://www.w3.org/2000/svg" xmlns:xlink="http://www.w3.org/1999/xlink">
<g id="graph0" class="graph" transform="scale(1 1) rotate(0) translate(4 112)">
<title>%3</title>
<!-- processor -->
<g id="node1" class="node"><title>processor</title>
<polygon fill="none" stroke="black" points="552.878,-36 472.878,-36 472.878,-0 552.878,-0 552.878,-36"/>
<text text-anchor="middle" x="512.878" y="-14.3" font-family="Times New Roman,serif" font-size="14.00">procesador</text>
</g>
<!-- vm -->
<g id="node2" class="node"><title>vm</title>
<polygon fill="none" stroke="black" points="563.378,-108 462.378,-108 462.378,-72 563.378,-72 563.378,-108"/>
<text text-anchor="middle" x="512.878" y="-86.3" font-family="Times New Roman,serif" font-size="14.00">máquina virtual</text>
</g>
<!-- vm&#45;&gt;processor -->
<g id="edge4" class="edge"><title>vm&#45;&gt;processor</title>
<path fill="none" stroke="black" d="M512.878,-71.5867C512.878,-63.9407 512.878,-54.8916 512.878,-46.4274"/>
<polygon fill="black" stroke="black" points="516.378,-46.1686 512.878,-36.1686 509.378,-46.1687 516.378,-46.1686"/>
<text text-anchor="middle" x="502.378" y="-50.3" font-family="Times New Roman,serif" font-size="14.00">ejecuta programa en</text>
</g>
<!-- compile -->
<g id="node3" class="node"><title>compile</title>
<ellipse fill="none" stroke="black" cx="294.634" cy="-31" rx="61.99" ry="18"/>
<text text-anchor="middle" x="294.634" y="-27.3" font-family="Times New Roman,serif" font-size="14.00">código objeto</text>
</g>
<!-- compile&#45;&gt;processor -->
<g id="edge2" class="edge"><title>compile&#45;&gt;processor</title>
<path fill="none" stroke="black" d="M355.296,-27.4133C389.138,-25.3788 430.965,-22.8643 462.874,-20.946"/>
<polygon fill="black" stroke="black" points="463.091,-24.4394 472.863,-20.3455 462.671,-17.452 463.091,-24.4394"/>
<text text-anchor="middle" x="409.378" y="-30.8" font-family="Times New Roman,serif" font-size="14.00">ejecutado en</text>
</g>
<!-- source -->
<g id="node4" class="node"><title>source</title>
<ellipse fill="none" stroke="black" cx="60.4446" cy="-65" rx="60.3893" ry="18"/>
<text text-anchor="middle" x="60.4446" y="-61.3" font-family="Times New Roman,serif" font-size="14.00">código fuente</text>
</g>
<!-- source&#45;&gt;vm -->
<g id="edge3" class="edge"><title>source&#45;&gt;vm</title>
<path fill="none" stroke="black" d="M117.668,-71.1904C124.806,-71.8636 132.015,-72.4887 138.889,-73 249.404,-81.2197 378.654,-86.0425 452.331,-88.3396"/>
<polygon fill="black" stroke="black" points="452.248,-91.8386 462.35,-88.6471 452.463,-84.8419 452.248,-91.8386"/>
<text text-anchor="middle" x="294.634" y="-88.8" font-family="Times New Roman,serif" font-size="14.00">interpretado por</text>
</g>
<!-- source&#45;&gt;compile -->
<g id="edge1" class="edge"><title>source&#45;&gt;compile</title>
<path fill="none" stroke="black" d="M115.005,-57.157C149.037,-52.1736 193.289,-45.6938 229.233,-40.4304"/>
<polygon fill="black" stroke="black" points="229.748,-43.8924 239.135,-38.9804 228.733,-36.9663 229.748,-43.8924"/>
<text text-anchor="middle" x="176.889" y="-57.8" font-family="Times New Roman,serif" font-size="14.00">compilado en</text>
</g>
</g>
</svg>
