<?xml version="1.0" encoding="UTF-8" standalone="no"?>
<!DOCTYPE svg PUBLIC "-//W3C//DTD SVG 1.1//EN"
 "http://www.w3.org/Graphics/SVG/1.1/DTD/svg11.dtd">
<!-- Generated by graphviz version 2.40.1 (20161225.0304)
 -->
<!-- Title: %3 Pages: 1 -->
<svg width="564pt" height="116pt"
 viewBox="0.00 0.00 564.36 116.00" xmlns="http://www.w3.org/2000/svg" xmlns:xlink="http://www.w3.org/1999/xlink">
<g id="graph0" class="graph" transform="scale(1 1) rotate(0) translate(4 112)">
<title>%3</title>
<!-- processor -->
<g id="node1" class="node">
<title>processor</title>
<polygon fill="none" stroke="#000000" points="543.1475,-36 465.3172,-36 465.3172,0 543.1475,0 543.1475,-36"/>
<text text-anchor="middle" x="504.2323" y="-13.8" font-family="Times,serif" font-size="14.00" fill="#000000">procesador</text>
</g>
<!-- vm -->
<g id="node2" class="node">
<title>vm</title>
<polygon fill="none" stroke="#000000" points="556.4846,-108 451.9801,-108 451.9801,-72 556.4846,-72 556.4846,-108"/>
<text text-anchor="middle" x="504.2323" y="-85.8" font-family="Times,serif" font-size="14.00" fill="#000000">máquina virtual</text>
</g>
<!-- vm&#45;&gt;processor -->
<g id="edge4" class="edge">
<title>vm&#45;&gt;processor</title>
<path fill="none" stroke="#000000" d="M504.2323,-71.5867C504.2323,-63.9407 504.2323,-54.8916 504.2323,-46.4274"/>
<polygon fill="#000000" stroke="#000000" points="507.7324,-46.1686 504.2323,-36.1686 500.7324,-46.1687 507.7324,-46.1686"/>
<text text-anchor="middle" x="494.2323" y="-49.8" font-family="Times,serif" font-size="14.00" fill="#000000">ejecuta programa en</text>
</g>
<!-- compile -->
<g id="node3" class="node">
<title>compile</title>
<ellipse fill="none" stroke="#000000" cx="287.2666" cy="-31" rx="58.4822" ry="18"/>
<text text-anchor="middle" x="287.2666" y="-26.8" font-family="Times,serif" font-size="14.00" fill="#000000">código objeto</text>
</g>
<!-- compile&#45;&gt;processor -->
<g id="edge2" class="edge">
<title>compile&#45;&gt;processor</title>
<path fill="none" stroke="#000000" d="M344.8398,-27.5504C379.1641,-25.4938 422.2822,-22.9102 455.0143,-20.949"/>
<polygon fill="#000000" stroke="#000000" points="455.4797,-24.4275 465.2524,-20.3356 455.0609,-17.44 455.4797,-24.4275"/>
<text text-anchor="middle" x="398.9321" y="-29.8" font-family="Times,serif" font-size="14.00" fill="#000000">ejecutado en</text>
</g>
<!-- source -->
<g id="node4" class="node">
<title>source</title>
<ellipse fill="none" stroke="#000000" cx="58.4825" cy="-59" rx="58.465" ry="18"/>
<text text-anchor="middle" x="58.4825" y="-54.8" font-family="Times,serif" font-size="14.00" fill="#000000">código fuente</text>
</g>
<!-- source&#45;&gt;vm -->
<g id="edge3" class="edge">
<title>source&#45;&gt;vm</title>
<path fill="none" stroke="#000000" d="M112.7586,-65.7781C120.2127,-66.5946 127.7734,-67.3632 134.965,-68 242.6511,-77.5358 368.3798,-84.0432 441.863,-87.3819"/>
<polygon fill="#000000" stroke="#000000" points="441.7306,-90.8794 451.8777,-87.832 442.045,-83.8865 441.7306,-90.8794"/>
<text text-anchor="middle" x="287.2666" y="-85.8" font-family="Times,serif" font-size="14.00" fill="#000000">interpretado por</text>
</g>
<!-- source&#45;&gt;compile -->
<g id="edge1" class="edge">
<title>source&#45;&gt;compile</title>
<path fill="none" stroke="#000000" d="M112.9913,-52.3289C145.9516,-48.295 188.1491,-43.1306 222.7658,-38.894"/>
<polygon fill="#000000" stroke="#000000" points="223.2786,-42.3574 232.7793,-37.6685 222.4282,-35.4093 223.2786,-42.3574"/>
<text text-anchor="middle" x="172.8702" y="-52.8" font-family="Times,serif" font-size="14.00" fill="#000000">compilado en</text>
</g>
</g>
</svg>
