<?xml version="1.0" encoding="UTF-8" standalone="no"?>
<!DOCTYPE svg PUBLIC "-//W3C//DTD SVG 1.1//EN"
 "http://www.w3.org/Graphics/SVG/1.1/DTD/svg11.dtd">
<!-- Generated by graphviz version 2.38.0 (20140413.2041)
 -->
<!-- Title: %3 Pages: 1 -->
<svg width="632pt" height="67pt"
 viewBox="0.00 0.00 631.66 67.00" xmlns="http://www.w3.org/2000/svg" xmlns:xlink="http://www.w3.org/1999/xlink">
<g id="graph0" class="graph" transform="scale(1 1) rotate(0) translate(4 63)">
<title>%3</title>
<!-- switch1 -->
<g id="node1" class="node"><title>switch1</title>
<ellipse fill="none" stroke="black" cx="68.8939" cy="-18" rx="68.7879" ry="18"/>
<text text-anchor="middle" x="68.8939" y="-14.3" font-family="Times,serif" font-size="14.00">cambiar ventana</text>
</g>
<!-- probar -->
<g id="node5" class="node"><title>probar</title>
<ellipse fill="none" stroke="black" cx="207.585" cy="-41" rx="33.5952" ry="18"/>
<text text-anchor="middle" x="207.585" y="-37.3" font-family="Times,serif" font-size="14.00">probar</text>
</g>
<!-- switch1&#45;&gt;probar -->
<g id="edge3" class="edge"><title>switch1&#45;&gt;probar</title>
<path fill="none" stroke="black" d="M127.467,-27.6874C140.108,-29.8144 153.253,-32.0262 165.113,-34.0219"/>
<polygon fill="black" stroke="black" points="164.719,-37.5046 175.161,-35.7125 165.88,-30.6016 164.719,-37.5046"/>
</g>
<!-- switch2 -->
<g id="node2" class="node"><title>switch2</title>
<ellipse fill="none" stroke="black" cx="346.276" cy="-41" rx="68.7879" ry="18"/>
<text text-anchor="middle" x="346.276" y="-37.3" font-family="Times,serif" font-size="14.00">cambiar ventana</text>
</g>
<!-- editar -->
<g id="node3" class="node"><title>editar</title>
<ellipse fill="none" stroke="black" cx="481.717" cy="-41" rx="30.5947" ry="18"/>
<text text-anchor="middle" x="481.717" y="-37.3" font-family="Times,serif" font-size="14.00">editar</text>
</g>
<!-- switch2&#45;&gt;editar -->
<g id="edge5" class="edge"><title>switch2&#45;&gt;editar</title>
<path fill="none" stroke="black" d="M415.56,-41C424.209,-41 432.824,-41 440.822,-41"/>
<polygon fill="black" stroke="black" points="440.931,-44.5001 450.931,-41 440.931,-37.5001 440.931,-44.5001"/>
</g>
<!-- guardar -->
<g id="node4" class="node"><title>guardar</title>
<ellipse fill="none" stroke="black" cx="585.961" cy="-18" rx="37.8943" ry="18"/>
<text text-anchor="middle" x="585.961" y="-14.3" font-family="Times,serif" font-size="14.00">guardar</text>
</g>
<!-- editar&#45;&gt;guardar -->
<g id="edge1" class="edge"><title>editar&#45;&gt;guardar</title>
<path fill="none" stroke="black" d="M510.386,-34.7759C519.976,-32.6184 530.973,-30.1446 541.524,-27.7713"/>
<polygon fill="black" stroke="black" points="542.453,-31.1497 551.441,-25.5403 540.917,-24.3204 542.453,-31.1497"/>
</g>
<!-- guardar&#45;&gt;switch1 -->
<g id="edge2" class="edge"><title>guardar&#45;&gt;switch1</title>
<path fill="none" stroke="black" d="M548.367,-15.593C536.822,-14.9393 524.015,-14.323 512.264,-14 361.887,-9.86601 324.194,-11.1057 173.788,-14 165.134,-14.1665 156.076,-14.411 147.07,-14.6984"/>
<polygon fill="black" stroke="black" points="146.825,-11.2046 136.948,-15.0393 147.061,-18.2007 146.825,-11.2046"/>
</g>
<!-- probar&#45;&gt;switch2 -->
<g id="edge4" class="edge"><title>probar&#45;&gt;switch2</title>
<path fill="none" stroke="black" d="M241.674,-41C249.539,-41 258.261,-41 267.211,-41"/>
<polygon fill="black" stroke="black" points="267.378,-44.5001 277.378,-41 267.378,-37.5001 267.378,-44.5001"/>
</g>
</g>
</svg>
