<?xml version="1.0" encoding="UTF-8" standalone="no"?>
<!DOCTYPE svg PUBLIC "-//W3C//DTD SVG 1.1//EN"
 "http://www.w3.org/Graphics/SVG/1.1/DTD/svg11.dtd">
<!-- Generated by graphviz version 2.38.0 (20140413.2041)
 -->
<!-- Title: %3 Pages: 1 -->
<svg width="763pt" height="126pt"
 viewBox="0.00 0.00 762.55 126.00" xmlns="http://www.w3.org/2000/svg" xmlns:xlink="http://www.w3.org/1999/xlink">
<g id="graph0" class="graph" transform="scale(1 1) rotate(0) translate(4 122)">
<title>%3</title>
<!-- switch1 -->
<g id="node1" class="node"><title>switch1</title>
<ellipse fill="none" stroke="black" cx="69.5438" cy="-23" rx="69.5877" ry="18"/>
<text text-anchor="middle" x="69.5438" y="-19.3" font-family="Times New Roman,serif" font-size="14.00">cambiar ventana</text>
</g>
<!-- recargar -->
<g id="node5" class="node"><title>recargar</title>
<ellipse fill="none" stroke="black" cx="215.384" cy="-46" rx="40.0939" ry="18"/>
<text text-anchor="middle" x="215.384" y="-42.3" font-family="Times New Roman,serif" font-size="14.00">recargar</text>
</g>
<!-- switch1&#45;&gt;recargar -->
<g id="edge3" class="edge"><title>switch1&#45;&gt;recargar</title>
<path fill="none" stroke="black" d="M129.049,-32.355C141.688,-34.376 154.9,-36.4886 167.049,-38.4311"/>
<polygon fill="black" stroke="black" points="166.54,-41.8941 176.967,-40.0171 167.645,-34.9819 166.54,-41.8941"/>
</g>
<!-- switch2 -->
<g id="node2" class="node"><title>switch2</title>
<ellipse fill="none" stroke="black" cx="475.217" cy="-86" rx="69.5877" ry="18"/>
<text text-anchor="middle" x="475.217" y="-82.3" font-family="Times New Roman,serif" font-size="14.00">cambiar ventana</text>
</g>
<!-- editar -->
<g id="node3" class="node"><title>editar</title>
<ellipse fill="none" stroke="black" cx="611.309" cy="-59" rx="30.5947" ry="18"/>
<text text-anchor="middle" x="611.309" y="-55.3" font-family="Times New Roman,serif" font-size="14.00">editar</text>
</g>
<!-- switch2&#45;&gt;editar -->
<g id="edge6" class="edge"><title>switch2&#45;&gt;editar</title>
<path fill="none" stroke="black" d="M530.757,-75.0181C544.717,-72.2071 559.427,-69.2452 572.349,-66.6433"/>
<polygon fill="black" stroke="black" points="573.168,-70.0488 582.28,-64.6436 571.786,-63.1865 573.168,-70.0488"/>
</g>
<!-- guardar -->
<g id="node4" class="node"><title>guardar</title>
<ellipse fill="none" stroke="black" cx="716.202" cy="-29" rx="38.1938" ry="18"/>
<text text-anchor="middle" x="716.202" y="-25.3" font-family="Times New Roman,serif" font-size="14.00">guardar</text>
</g>
<!-- editar&#45;&gt;guardar -->
<g id="edge1" class="edge"><title>editar&#45;&gt;guardar</title>
<path fill="none" stroke="black" d="M639.074,-51.1962C649.482,-48.1615 661.657,-44.6119 673.179,-41.2526"/>
<polygon fill="black" stroke="black" points="674.454,-44.5264 683.075,-38.3672 672.495,-37.8062 674.454,-44.5264"/>
</g>
<!-- guardar&#45;&gt;switch1 -->
<g id="edge2" class="edge"><title>guardar&#45;&gt;switch1</title>
<path fill="none" stroke="black" d="M680.533,-22.1274C634.18,-13.5517 549.358,-3.55271e-015 476.217,-0 329.677,-0 329.677,-0 329.677,-0 265.74,-3.33067e-015 193.275,-7.03306 141.265,-13.3209"/>
<polygon fill="black" stroke="black" points="140.642,-9.87109 131.145,-14.5662 141.497,-16.8187 140.642,-9.87109"/>
</g>
<!-- probar -->
<g id="node6" class="node"><title>probar</title>
<ellipse fill="none" stroke="black" cx="330.677" cy="-100" rx="35.194" ry="18"/>
<text text-anchor="middle" x="330.677" y="-96.3" font-family="Times New Roman,serif" font-size="14.00">probar</text>
</g>
<!-- recargar&#45;&gt;probar -->
<g id="edge4" class="edge"><title>recargar&#45;&gt;probar</title>
<path fill="none" stroke="black" d="M243.521,-58.9343C258.952,-66.2897 278.438,-75.5773 294.973,-83.4586"/>
<polygon fill="black" stroke="black" points="293.782,-86.7681 304.315,-87.9113 296.794,-80.4491 293.782,-86.7681"/>
</g>
<!-- corregir -->
<g id="node7" class="node"><title>corregir</title>
<ellipse fill="none" stroke="black" cx="330.677" cy="-46" rx="38.9931" ry="18"/>
<text text-anchor="middle" x="330.677" y="-42.3" font-family="Times New Roman,serif" font-size="14.00">corregir</text>
</g>
<!-- recargar&#45;&gt;corregir -->
<g id="edge7" class="edge"><title>recargar&#45;&gt;corregir</title>
<path fill="none" stroke="black" d="M253.167,-39.6333C262.854,-39.2445 273.428,-39.1515 283.539,-39.3543"/>
<polygon fill="black" stroke="black" points="283.748,-42.8623 293.851,-39.6728 283.964,-35.8657 283.748,-42.8623"/>
</g>
<!-- probar&#45;&gt;switch2 -->
<g id="edge5" class="edge"><title>probar&#45;&gt;switch2</title>
<path fill="none" stroke="black" d="M365.457,-96.6822C375.877,-95.6588 387.79,-94.4887 399.823,-93.3068"/>
<polygon fill="black" stroke="black" points="400.319,-96.7751 409.929,-92.3143 399.635,-89.8086 400.319,-96.7751"/>
</g>
<!-- corregir&#45;&gt;recargar -->
<g id="edge8" class="edge"><title>corregir&#45;&gt;recargar</title>
<path fill="none" stroke="black" d="M293.851,-52.3272C284.123,-52.7399 273.444,-52.8504 263.206,-52.6589"/>
<polygon fill="black" stroke="black" points="263.265,-49.1593 253.167,-52.3667 263.061,-56.1563 263.265,-49.1593"/>
</g>
</g>
</svg>
