<?xml version="1.0" encoding="UTF-8" standalone="no"?>
<!DOCTYPE svg PUBLIC "-//W3C//DTD SVG 1.1//EN"
 "http://www.w3.org/Graphics/SVG/1.1/DTD/svg11.dtd">
<!-- Generated by graphviz version 2.38.0 (20140413.2041)
 -->
<!-- Title: %3 Pages: 1 -->
<svg width="638pt" height="67pt"
 viewBox="0.00 0.00 638.16 67.00" xmlns="http://www.w3.org/2000/svg" xmlns:xlink="http://www.w3.org/1999/xlink">
<g id="graph0" class="graph" transform="scale(1 1) rotate(0) translate(4 63)">
<title>%3</title>
<!-- switch1 -->
<g id="node1" class="node"><title>switch1</title>
<ellipse fill="none" stroke="black" cx="69.5438" cy="-18" rx="69.5877" ry="18"/>
<text text-anchor="middle" x="69.5438" y="-14.3" font-family="Times New Roman,serif" font-size="14.00">cambiar ventana</text>
</g>
<!-- probar -->
<g id="node5" class="node"><title>probar</title>
<ellipse fill="none" stroke="black" cx="210.185" cy="-41" rx="35.194" ry="18"/>
<text text-anchor="middle" x="210.185" y="-37.3" font-family="Times New Roman,serif" font-size="14.00">probar</text>
</g>
<!-- switch1&#45;&gt;probar -->
<g id="edge3" class="edge"><title>switch1&#45;&gt;probar</title>
<path fill="none" stroke="black" d="M128.537,-27.6208C141.163,-29.7154 154.304,-31.8955 166.223,-33.8728"/>
<polygon fill="black" stroke="black" points="165.902,-37.3673 176.34,-35.5511 167.047,-30.4617 165.902,-37.3673"/>
</g>
<!-- switch2 -->
<g id="node2" class="node"><title>switch2</title>
<ellipse fill="none" stroke="black" cx="350.825" cy="-41" rx="69.5877" ry="18"/>
<text text-anchor="middle" x="350.825" y="-37.3" font-family="Times New Roman,serif" font-size="14.00">cambiar ventana</text>
</g>
<!-- editar -->
<g id="node3" class="node"><title>editar</title>
<ellipse fill="none" stroke="black" cx="486.916" cy="-41" rx="30.5947" ry="18"/>
<text text-anchor="middle" x="486.916" y="-37.3" font-family="Times New Roman,serif" font-size="14.00">editar</text>
</g>
<!-- switch2&#45;&gt;editar -->
<g id="edge5" class="edge"><title>switch2&#45;&gt;editar</title>
<path fill="none" stroke="black" d="M420.442,-41C429.223,-41 437.969,-41 446.075,-41"/>
<polygon fill="black" stroke="black" points="446.313,-44.5001 456.313,-41 446.313,-37.5001 446.313,-44.5001"/>
</g>
<!-- guardar -->
<g id="node4" class="node"><title>guardar</title>
<ellipse fill="none" stroke="black" cx="591.81" cy="-18" rx="38.1938" ry="18"/>
<text text-anchor="middle" x="591.81" y="-14.3" font-family="Times New Roman,serif" font-size="14.00">guardar</text>
</g>
<!-- editar&#45;&gt;guardar -->
<g id="edge1" class="edge"><title>editar&#45;&gt;guardar</title>
<path fill="none" stroke="black" d="M515.761,-34.7759C525.323,-32.6385 536.273,-30.1908 546.799,-27.8378"/>
<polygon fill="black" stroke="black" points="547.707,-31.2215 556.702,-25.6242 546.179,-24.3901 547.707,-31.2215"/>
</g>
<!-- guardar&#45;&gt;switch1 -->
<g id="edge2" class="edge"><title>guardar&#45;&gt;switch1</title>
<path fill="none" stroke="black" d="M553.513,-15.5719C541.963,-14.926 529.192,-14.3196 517.464,-14 365.353,-9.85536 327.227,-11.0905 175.088,-14 166.445,-14.1653 157.403,-14.4073 148.409,-14.6919"/>
<polygon fill="black" stroke="black" points="148.176,-11.1977 138.298,-15.0295 148.409,-18.1938 148.176,-11.1977"/>
</g>
<!-- probar&#45;&gt;switch2 -->
<g id="edge4" class="edge"><title>probar&#45;&gt;switch2</title>
<path fill="none" stroke="black" d="M245.455,-41C253.379,-41 262.131,-41 271.098,-41"/>
<polygon fill="black" stroke="black" points="271.279,-44.5001 281.279,-41 271.279,-37.5001 271.279,-44.5001"/>
</g>
</g>
</svg>
