<?xml version="1.0" encoding="UTF-8" standalone="no"?>
<!DOCTYPE svg PUBLIC "-//W3C//DTD SVG 1.1//EN"
 "http://www.w3.org/Graphics/SVG/1.1/DTD/svg11.dtd">
<!-- Generated by graphviz version 2.40.1 (20161225.0304)
 -->
<!-- Title: %3 Pages: 1 -->
<svg width="626pt" height="67pt"
 viewBox="0.00 0.00 626.25 67.00" xmlns="http://www.w3.org/2000/svg" xmlns:xlink="http://www.w3.org/1999/xlink">
<g id="graph0" class="graph" transform="scale(1 1) rotate(0) translate(4 63)">
<title>%3</title>
<!-- switch1 -->
<g id="node1" class="node">
<title>switch1</title>
<ellipse fill="none" stroke="#000000" cx="68.2932" cy="-18" rx="68.087" ry="18"/>
<text text-anchor="middle" x="68.2932" y="-13.8" font-family="Times,serif" font-size="14.00" fill="#000000">cambiar ventana</text>
</g>
<!-- probar -->
<g id="node5" class="node">
<title>probar</title>
<ellipse fill="none" stroke="#000000" cx="205.7735" cy="-41" rx="33.3752" ry="18"/>
<text text-anchor="middle" x="205.7735" y="-36.8" font-family="Times,serif" font-size="14.00" fill="#000000">probar</text>
</g>
<!-- switch1&#45;&gt;probar -->
<g id="edge3" class="edge">
<title>switch1&#45;&gt;probar</title>
<path fill="none" stroke="#000000" d="M126.1987,-27.6874C138.7989,-29.7954 151.8973,-31.9867 163.7427,-33.9684"/>
<polygon fill="#000000" stroke="#000000" points="163.3452,-37.4505 173.7857,-35.6486 164.5003,-30.5464 163.3452,-37.4505"/>
</g>
<!-- switch2 -->
<g id="node2" class="node">
<title>switch2</title>
<ellipse fill="none" stroke="#000000" cx="343.2537" cy="-41" rx="68.087" ry="18"/>
<text text-anchor="middle" x="343.2537" y="-36.8" font-family="Times,serif" font-size="14.00" fill="#000000">cambiar ventana</text>
</g>
<!-- editar -->
<g id="node3" class="node">
<title>editar</title>
<ellipse fill="none" stroke="#000000" cx="477.7847" cy="-41" rx="30.4775" ry="18"/>
<text text-anchor="middle" x="477.7847" y="-36.8" font-family="Times,serif" font-size="14.00" fill="#000000">editar</text>
</g>
<!-- switch2&#45;&gt;editar -->
<g id="edge5" class="edge">
<title>switch2&#45;&gt;editar</title>
<path fill="none" stroke="#000000" d="M411.7016,-41C420.3671,-41 429.0064,-41 437.0441,-41"/>
<polygon fill="#000000" stroke="#000000" points="437.2155,-44.5001 447.2155,-41 437.2155,-37.5001 437.2155,-44.5001"/>
</g>
<!-- guardar -->
<g id="node4" class="node">
<title>guardar</title>
<ellipse fill="none" stroke="#000000" cx="581.1347" cy="-18" rx="37.2248" ry="18"/>
<text text-anchor="middle" x="581.1347" y="-13.8" font-family="Times,serif" font-size="14.00" fill="#000000">guardar</text>
</g>
<!-- editar&#45;&gt;guardar -->
<g id="edge1" class="edge">
<title>editar&#45;&gt;guardar</title>
<path fill="none" stroke="#000000" d="M506.2991,-34.6543C515.898,-32.5181 526.8412,-30.0827 537.34,-27.7463"/>
<polygon fill="#000000" stroke="#000000" points="538.2104,-31.1383 547.2113,-25.5495 536.6898,-24.3054 538.2104,-31.1383"/>
</g>
<!-- guardar&#45;&gt;switch1 -->
<g id="edge2" class="edge">
<title>guardar&#45;&gt;switch1</title>
<path fill="none" stroke="#000000" d="M544.3318,-15.593C532.7206,-14.9393 519.8403,-14.323 508.0225,-14 358.9955,-9.9264 321.6417,-11.1427 172.5864,-14 163.9648,-14.1653 154.9445,-14.4073 145.9717,-14.6919"/>
<polygon fill="#000000" stroke="#000000" points="145.7624,-11.1969 135.8851,-15.0295 145.9966,-18.1929 145.7624,-11.1969"/>
</g>
<!-- probar&#45;&gt;switch2 -->
<g id="edge4" class="edge">
<title>probar&#45;&gt;switch2</title>
<path fill="none" stroke="#000000" d="M239.0536,-41C246.906,-41 255.6086,-41 264.5407,-41"/>
<polygon fill="#000000" stroke="#000000" points="264.6898,-44.5001 274.6898,-41 264.6898,-37.5001 264.6898,-44.5001"/>
</g>
</g>
</svg>
