<?xml version="1.0" encoding="UTF-8" standalone="no"?>
<!DOCTYPE svg PUBLIC "-//W3C//DTD SVG 1.1//EN"
 "http://www.w3.org/Graphics/SVG/1.1/DTD/svg11.dtd">
<!-- Generated by graphviz version 2.38.0 (20140413.2041)
 -->
<!-- Title: %3 Pages: 1 -->
<svg width="1035pt" height="98pt"
 viewBox="0.00 0.00 1034.73 98.00" xmlns="http://www.w3.org/2000/svg" xmlns:xlink="http://www.w3.org/1999/xlink">
<g id="graph0" class="graph" transform="scale(1 1) rotate(0) translate(4 94)">
<title>%3</title>
<!-- pull -->
<g id="node1" class="node"><title>pull</title>
<ellipse fill="none" stroke="black" cx="159.489" cy="-18" rx="35.194" ry="18"/>
<text text-anchor="middle" x="159.489" y="-14.3" font-family="Times New Roman,serif" font-size="14.00">git pull</text>
</g>
<!-- merge -->
<g id="node2" class="node"><title>merge</title>
<ellipse fill="none" stroke="black" cx="288.431" cy="-18" rx="32.4942" ry="18"/>
<text text-anchor="middle" x="288.431" y="-14.3" font-family="Times New Roman,serif" font-size="14.00">merge</text>
</g>
<!-- pull&#45;&gt;merge -->
<g id="edge2" class="edge"><title>pull&#45;&gt;merge</title>
<path fill="none" stroke="black" d="M194.841,-18C210.381,-18 228.895,-18 245.268,-18"/>
<polygon fill="black" stroke="black" points="245.665,-21.5001 255.665,-18 245.665,-14.5001 245.665,-21.5001"/>
</g>
<!-- editar -->
<g id="node8" class="node"><title>editar</title>
<ellipse fill="none" stroke="black" cx="412.823" cy="-45" rx="30.5947" ry="18"/>
<text text-anchor="middle" x="412.823" y="-41.3" font-family="Times New Roman,serif" font-size="14.00">editar</text>
</g>
<!-- merge&#45;&gt;editar -->
<g id="edge3" class="edge"><title>merge&#45;&gt;editar</title>
<path fill="none" stroke="black" d="M319.059,-24.5359C335.499,-28.1628 356.126,-32.7132 373.752,-36.6016"/>
<polygon fill="black" stroke="black" points="373.21,-40.066 383.729,-38.8025 374.718,-33.2303 373.21,-40.066"/>
</g>
<!-- commit -->
<g id="node3" class="node"><title>commit</title>
<ellipse fill="none" stroke="black" cx="862.043" cy="-45" rx="49.2915" ry="18"/>
<text text-anchor="middle" x="862.043" y="-41.3" font-family="Times New Roman,serif" font-size="14.00">git commit</text>
</g>
<!-- push -->
<g id="node4" class="node"><title>push</title>
<ellipse fill="none" stroke="black" cx="987.085" cy="-45" rx="39.7935" ry="18"/>
<text text-anchor="middle" x="987.085" y="-41.3" font-family="Times New Roman,serif" font-size="14.00">git push</text>
</g>
<!-- commit&#45;&gt;push -->
<g id="edge8" class="edge"><title>commit&#45;&gt;push</title>
<path fill="none" stroke="black" d="M911.672,-45C920.077,-45 928.818,-45 937.229,-45"/>
<polygon fill="black" stroke="black" points="937.28,-48.5001 947.28,-45 937.28,-41.5001 937.28,-48.5001"/>
</g>
<!-- gulp -->
<g id="node5" class="node"><title>gulp</title>
<ellipse fill="none" stroke="black" cx="288.431" cy="-72" rx="57.6901" ry="18"/>
<text text-anchor="middle" x="288.431" y="-68.3" font-family="Times New Roman,serif" font-size="14.00">arrancar gulp</text>
</g>
<!-- gulp&#45;&gt;editar -->
<g id="edge9" class="edge"><title>gulp&#45;&gt;editar</title>
<path fill="none" stroke="black" d="M336.051,-61.7154C348.486,-58.9722 361.774,-56.0408 373.694,-53.4112"/>
<polygon fill="black" stroke="black" points="374.751,-56.7625 383.762,-51.1904 373.242,-49.9269 374.751,-56.7625"/>
</g>
<!-- tests -->
<g id="node6" class="node"><title>tests</title>
<ellipse fill="none" stroke="black" cx="681.106" cy="-45" rx="95.5831" ry="18"/>
<text text-anchor="middle" x="681.106" y="-41.3" font-family="Times New Roman,serif" font-size="14.00">pasar tests automáticos</text>
</g>
<!-- tests&#45;&gt;commit -->
<g id="edge7" class="edge"><title>tests&#45;&gt;commit</title>
<path fill="none" stroke="black" d="M776.814,-45C785.419,-45 793.96,-45 802.116,-45"/>
<polygon fill="black" stroke="black" points="802.218,-48.5001 812.218,-45 802.217,-41.5001 802.218,-48.5001"/>
</g>
<!-- planificar -->
<g id="node7" class="node"><title>planificar</title>
<ellipse fill="none" stroke="black" cx="44.1961" cy="-18" rx="44.393" ry="18"/>
<text text-anchor="middle" x="44.1961" y="-14.3" font-family="Times New Roman,serif" font-size="14.00">planificar</text>
</g>
<!-- planificar&#45;&gt;pull -->
<g id="edge1" class="edge"><title>planificar&#45;&gt;pull</title>
<path fill="none" stroke="black" d="M88.6741,-18C96.9227,-18 105.566,-18 113.85,-18"/>
<polygon fill="black" stroke="black" points="114.094,-21.5001 124.094,-18 114.094,-14.5001 114.094,-21.5001"/>
</g>
<!-- probar -->
<g id="node9" class="node"><title>probar</title>
<ellipse fill="none" stroke="black" cx="514.467" cy="-45" rx="35.194" ry="18"/>
<text text-anchor="middle" x="514.467" y="-41.3" font-family="Times New Roman,serif" font-size="14.00">probar</text>
</g>
<!-- editar&#45;&gt;probar -->
<g id="edge4" class="edge"><title>editar&#45;&gt;probar</title>
<path fill="none" stroke="black" d="M441.579,-38.8766C450.726,-38.3217 461.115,-38.1354 471.096,-38.3176"/>
<polygon fill="black" stroke="black" points="471.175,-41.8217 481.281,-38.6408 471.397,-34.8252 471.175,-41.8217"/>
</g>
<!-- probar&#45;&gt;tests -->
<g id="edge6" class="edge"><title>probar&#45;&gt;tests</title>
<path fill="none" stroke="black" d="M549.58,-45C557.396,-45 566.108,-45 575.219,-45"/>
<polygon fill="black" stroke="black" points="575.238,-48.5001 585.238,-45 575.238,-41.5001 575.238,-48.5001"/>
</g>
<!-- probar&#45;&gt;editar -->
<g id="edge5" class="edge"><title>probar&#45;&gt;editar</title>
<path fill="none" stroke="black" d="M481.281,-51.3592C471.883,-51.7928 461.523,-51.8656 451.802,-51.5776"/>
<polygon fill="black" stroke="black" points="451.725,-48.0708 441.579,-51.1234 451.414,-55.0639 451.725,-48.0708"/>
</g>
</g>
</svg>
