<?xml version="1.0" encoding="UTF-8" standalone="no"?>
<!DOCTYPE svg PUBLIC "-//W3C//DTD SVG 1.1//EN"
 "http://www.w3.org/Graphics/SVG/1.1/DTD/svg11.dtd">
<!-- Generated by graphviz version 2.40.1 (20161225.0304)
 -->
<!-- Title: %3 Pages: 1 -->
<svg width="750pt" height="126pt"
 viewBox="0.00 0.00 749.87 126.00" xmlns="http://www.w3.org/2000/svg" xmlns:xlink="http://www.w3.org/1999/xlink">
<g id="graph0" class="graph" transform="scale(1 1) rotate(0) translate(4 122)">
<title>%3</title>
<!-- switch1 -->
<g id="node1" class="node">
<title>switch1</title>
<ellipse fill="none" stroke="#000000" cx="68.2932" cy="-23" rx="68.087" ry="18"/>
<text text-anchor="middle" x="68.2932" y="-18.8" font-family="Times,serif" font-size="14.00" fill="#000000">cambiar ventana</text>
</g>
<!-- recargar -->
<g id="node5" class="node">
<title>recargar</title>
<ellipse fill="none" stroke="#000000" cx="211.4949" cy="-46" rx="38.8173" ry="18"/>
<text text-anchor="middle" x="211.4949" y="-41.8" font-family="Times,serif" font-size="14.00" fill="#000000">recargar</text>
</g>
<!-- switch1&#45;&gt;recargar -->
<g id="edge3" class="edge">
<title>switch1&#45;&gt;recargar</title>
<path fill="none" stroke="#000000" d="M126.952,-32.4213C139.3781,-34.4171 152.3421,-36.4993 164.2792,-38.4166"/>
<polygon fill="#000000" stroke="#000000" points="164.0371,-41.9225 174.4656,-40.0526 165.1472,-35.011 164.0371,-41.9225"/>
</g>
<!-- switch2 -->
<g id="node2" class="node">
<title>switch2</title>
<ellipse fill="none" stroke="#000000" cx="466.8815" cy="-86" rx="68.087" ry="18"/>
<text text-anchor="middle" x="466.8815" y="-81.8" font-family="Times,serif" font-size="14.00" fill="#000000">cambiar ventana</text>
</g>
<!-- editar -->
<g id="node3" class="node">
<title>editar</title>
<ellipse fill="none" stroke="#000000" cx="601.4125" cy="-73" rx="30.4775" ry="18"/>
<text text-anchor="middle" x="601.4125" y="-68.8" font-family="Times,serif" font-size="14.00" fill="#000000">editar</text>
</g>
<!-- switch2&#45;&gt;editar -->
<g id="edge6" class="edge">
<title>switch2&#45;&gt;editar</title>
<path fill="none" stroke="#000000" d="M531.3888,-79.7665C541.5798,-78.7818 551.8555,-77.7888 561.2779,-76.8783"/>
<polygon fill="#000000" stroke="#000000" points="561.8866,-80.3359 571.5035,-75.8902 561.2132,-73.3683 561.8866,-80.3359"/>
</g>
<!-- guardar -->
<g id="node4" class="node">
<title>guardar</title>
<ellipse fill="none" stroke="#000000" cx="704.7625" cy="-23" rx="37.2248" ry="18"/>
<text text-anchor="middle" x="704.7625" y="-18.8" font-family="Times,serif" font-size="14.00" fill="#000000">guardar</text>
</g>
<!-- editar&#45;&gt;guardar -->
<g id="edge1" class="edge">
<title>editar&#45;&gt;guardar</title>
<path fill="none" stroke="#000000" d="M625.1231,-61.529C638.1268,-55.2379 654.5115,-47.3111 669.0334,-40.2855"/>
<polygon fill="#000000" stroke="#000000" points="670.7756,-43.3308 678.2532,-35.825 667.7271,-37.0294 670.7756,-43.3308"/>
</g>
<!-- guardar&#45;&gt;switch1 -->
<g id="edge2" class="edge">
<title>guardar&#45;&gt;switch1</title>
<path fill="none" stroke="#000000" d="M669.3998,-17.4323C623.0265,-10.6254 539.0765,0 466.8815,0 324.4959,0 324.4959,0 324.4959,0 261.4855,0 190.1061,-6.9866 138.7231,-13.2584"/>
<polygon fill="#000000" stroke="#000000" points="138.2137,-9.7947 128.7215,-14.501 139.0768,-16.7413 138.2137,-9.7947"/>
</g>
<!-- probar -->
<g id="node6" class="node">
<title>probar</title>
<ellipse fill="none" stroke="#000000" cx="324.4959" cy="-100" rx="33.3752" ry="18"/>
<text text-anchor="middle" x="324.4959" y="-95.8" font-family="Times,serif" font-size="14.00" fill="#000000">probar</text>
</g>
<!-- recargar&#45;&gt;probar -->
<g id="edge4" class="edge">
<title>recargar&#45;&gt;probar</title>
<path fill="none" stroke="#000000" d="M238.5615,-58.9343C254.0626,-66.3419 273.6646,-75.7092 290.2317,-83.6261"/>
<polygon fill="#000000" stroke="#000000" points="289.0497,-86.9403 299.5815,-88.0941 292.0679,-80.6244 289.0497,-86.9403"/>
</g>
<!-- corregir -->
<g id="node7" class="node">
<title>corregir</title>
<ellipse fill="none" stroke="#000000" cx="324.4959" cy="-46" rx="38.1851" ry="18"/>
<text text-anchor="middle" x="324.4959" y="-41.8" font-family="Times,serif" font-size="14.00" fill="#000000">corregir</text>
</g>
<!-- recargar&#45;&gt;corregir -->
<g id="edge7" class="edge">
<title>recargar&#45;&gt;corregir</title>
<path fill="none" stroke="#000000" d="M248.1831,-39.6333C257.8447,-39.2445 268.3914,-39.1515 278.4763,-39.3543"/>
<polygon fill="#000000" stroke="#000000" points="278.6587,-42.8615 288.7623,-39.6728 278.8754,-35.8649 278.6587,-42.8615"/>
</g>
<!-- probar&#45;&gt;switch2 -->
<g id="edge5" class="edge">
<title>probar&#45;&gt;switch2</title>
<path fill="none" stroke="#000000" d="M357.162,-96.7881C367.8515,-95.7371 380.1993,-94.523 392.6709,-93.2967"/>
<polygon fill="#000000" stroke="#000000" points="393.0605,-96.7754 402.67,-92.3136 392.3754,-89.809 393.0605,-96.7754"/>
</g>
<!-- corregir&#45;&gt;recargar -->
<g id="edge8" class="edge">
<title>corregir&#45;&gt;recargar</title>
<path fill="none" stroke="#000000" d="M288.7623,-52.3272C279.0595,-52.7399 268.4076,-52.8504 258.1962,-52.6589"/>
<polygon fill="#000000" stroke="#000000" points="258.281,-49.16 248.1831,-52.3667 258.0767,-56.157 258.281,-49.16"/>
</g>
</g>
</svg>
