<?xml version="1.0" encoding="UTF-8" standalone="no"?>
<!DOCTYPE svg PUBLIC "-//W3C//DTD SVG 1.1//EN"
 "http://www.w3.org/Graphics/SVG/1.1/DTD/svg11.dtd">
<!-- Generated by graphviz version 2.40.1 (20161225.0304)
 -->
<!-- Title: %3 Pages: 1 -->
<svg width="1016pt" height="98pt"
 viewBox="0.00 0.00 1016.02 98.00" xmlns="http://www.w3.org/2000/svg" xmlns:xlink="http://www.w3.org/1999/xlink">
<g id="graph0" class="graph" transform="scale(1 1) rotate(0) translate(4 94)">
<title>%3</title>
<!-- pull -->
<g id="node1" class="node">
<title>pull</title>
<ellipse fill="none" stroke="#000000" cx="158.4169" cy="-18" rx="35.322" ry="18"/>
<text text-anchor="middle" x="158.4169" y="-13.8" font-family="Times,serif" font-size="14.00" fill="#000000">git pull</text>
</g>
<!-- merge -->
<g id="node2" class="node">
<title>merge</title>
<ellipse fill="none" stroke="#000000" cx="286.8248" cy="-18" rx="32.0942" ry="18"/>
<text text-anchor="middle" x="286.8248" y="-13.8" font-family="Times,serif" font-size="14.00" fill="#000000">merge</text>
</g>
<!-- pull&#45;&gt;merge -->
<g id="edge2" class="edge">
<title>pull&#45;&gt;merge</title>
<path fill="none" stroke="#000000" d="M193.8448,-18C209.434,-18 227.8771,-18 244.2104,-18"/>
<polygon fill="#000000" stroke="#000000" points="244.5878,-21.5001 254.5878,-18 244.5878,-14.5001 244.5878,-21.5001"/>
</g>
<!-- editar -->
<g id="node8" class="node">
<title>editar</title>
<ellipse fill="none" stroke="#000000" cx="410.0596" cy="-45" rx="30.4775" ry="18"/>
<text text-anchor="middle" x="410.0596" y="-40.8" font-family="Times,serif" font-size="14.00" fill="#000000">editar</text>
</g>
<!-- merge&#45;&gt;editar -->
<g id="edge3" class="edge">
<title>merge&#45;&gt;editar</title>
<path fill="none" stroke="#000000" d="M316.9714,-24.6049C333.4117,-28.2069 353.9378,-32.7041 371.5291,-36.5582"/>
<polygon fill="#000000" stroke="#000000" points="370.9769,-40.0202 381.4943,-38.7415 372.4751,-33.1824 370.9769,-40.0202"/>
</g>
<!-- commit -->
<g id="node3" class="node">
<title>commit</title>
<ellipse fill="none" stroke="#000000" cx="846.6256" cy="-45" rx="48.8441" ry="18"/>
<text text-anchor="middle" x="846.6256" y="-40.8" font-family="Times,serif" font-size="14.00" fill="#000000">git commit</text>
</g>
<!-- push -->
<g id="node4" class="node">
<title>push</title>
<ellipse fill="none" stroke="#000000" cx="969.6575" cy="-45" rx="38.2208" ry="18"/>
<text text-anchor="middle" x="969.6575" y="-40.8" font-family="Times,serif" font-size="14.00" fill="#000000">git push</text>
</g>
<!-- commit&#45;&gt;push -->
<g id="edge8" class="edge">
<title>commit&#45;&gt;push</title>
<path fill="none" stroke="#000000" d="M895.6046,-45C903.9894,-45 912.6986,-45 921.073,-45"/>
<polygon fill="#000000" stroke="#000000" points="921.0776,-48.5001 931.0776,-45 921.0775,-41.5001 921.0776,-48.5001"/>
</g>
<!-- gulp -->
<g id="node5" class="node">
<title>gulp</title>
<ellipse fill="none" stroke="#000000" cx="286.8248" cy="-72" rx="56.9941" ry="18"/>
<text text-anchor="middle" x="286.8248" y="-67.8" font-family="Times,serif" font-size="14.00" fill="#000000">arrancar gulp</text>
</g>
<!-- gulp&#45;&gt;editar -->
<g id="edge9" class="edge">
<title>gulp&#45;&gt;editar</title>
<path fill="none" stroke="#000000" d="M333.7662,-61.7154C346.1819,-58.9952 359.4417,-56.0901 371.3658,-53.4776"/>
<polygon fill="#000000" stroke="#000000" points="372.4266,-56.8283 381.4458,-51.2691 370.9284,-49.9905 372.4266,-56.8283"/>
</g>
<!-- tests -->
<g id="node6" class="node">
<title>tests</title>
<ellipse fill="none" stroke="#000000" cx="670.3127" cy="-45" rx="91.7825" ry="18"/>
<text text-anchor="middle" x="670.3127" y="-40.8" font-family="Times,serif" font-size="14.00" fill="#000000">pasar tests automáticos</text>
</g>
<!-- tests&#45;&gt;commit -->
<g id="edge7" class="edge">
<title>tests&#45;&gt;commit</title>
<path fill="none" stroke="#000000" d="M762.0841,-45C770.6737,-45 779.2175,-45 787.3885,-45"/>
<polygon fill="#000000" stroke="#000000" points="787.5145,-48.5001 797.5145,-45 787.5145,-41.5001 787.5145,-48.5001"/>
</g>
<!-- planificar -->
<g id="node7" class="node">
<title>planificar</title>
<ellipse fill="none" stroke="#000000" cx="43.503" cy="-18" rx="43.506" ry="18"/>
<text text-anchor="middle" x="43.503" y="-13.8" font-family="Times,serif" font-size="14.00" fill="#000000">planificar</text>
</g>
<!-- planificar&#45;&gt;pull -->
<g id="edge1" class="edge">
<title>planificar&#45;&gt;pull</title>
<path fill="none" stroke="#000000" d="M87.2748,-18C95.662,-18 104.4624,-18 112.9029,-18"/>
<polygon fill="#000000" stroke="#000000" points="112.9682,-21.5001 122.9682,-18 112.9681,-14.5001 112.9682,-21.5001"/>
</g>
<!-- probar -->
<g id="node9" class="node">
<title>probar</title>
<ellipse fill="none" stroke="#000000" cx="509.4845" cy="-45" rx="33.3752" ry="18"/>
<text text-anchor="middle" x="509.4845" y="-40.8" font-family="Times,serif" font-size="14.00" fill="#000000">probar</text>
</g>
<!-- editar&#45;&gt;probar -->
<g id="edge4" class="edge">
<title>editar&#45;&gt;probar</title>
<path fill="none" stroke="#000000" d="M438.5508,-38.8294C447.75,-38.2956 458.1426,-38.1307 468.0795,-38.3345"/>
<polygon fill="#000000" stroke="#000000" points="468.0869,-41.8367 478.2007,-38.6804 468.3261,-34.8408 468.0869,-41.8367"/>
</g>
<!-- probar&#45;&gt;tests -->
<g id="edge6" class="edge">
<title>probar&#45;&gt;tests</title>
<path fill="none" stroke="#000000" d="M542.8082,-45C550.6461,-45 559.4054,-45 568.5628,-45"/>
<polygon fill="#000000" stroke="#000000" points="568.6308,-48.5001 578.6308,-45 568.6308,-41.5001 568.6308,-48.5001"/>
</g>
<!-- probar&#45;&gt;editar -->
<g id="edge5" class="edge">
<title>probar&#45;&gt;editar</title>
<path fill="none" stroke="#000000" d="M478.2007,-51.3196C468.8786,-51.7748 458.5494,-51.8689 448.8108,-51.602"/>
<polygon fill="#000000" stroke="#000000" points="448.689,-48.0939 438.5508,-51.1706 448.3949,-55.0877 448.689,-48.0939"/>
</g>
</g>
</svg>
